<?xml version="1.0" encoding="utf-8"?>
<!-- Generator: Adobe Illustrator 23.0.3, SVG Export Plug-In . SVG Version: 6.00 Build 0)  -->
<svg version="1.1" xmlns="http://www.w3.org/2000/svg" xmlns:xlink="http://www.w3.org/1999/xlink" x="0px" y="0px"
	 viewBox="0 0 500 500" style="enable-background:new 0 0 500 500;" xml:space="preserve">
<style type="text/css">
	.st0{display:none;}
	.st1{display:inline;}
	.st2{fill:#9B614E;stroke:#6F4636;stroke-width:3;stroke-miterlimit:10;}
	.st3{opacity:0.5;fill:#6F4636;}
	.st4{display:inline;fill:#9B614E;stroke:#6F4636;stroke-width:3;stroke-miterlimit:10;}
	.st5{fill:#F29220;}
	.st6{fill:#FFDC74;}
	.st7{fill:#F6B41A;}
	.st8{fill:none;stroke:#F29220;stroke-width:4;stroke-miterlimit:10;}
	
		.st9{display:inline;opacity:0.5;fill:none;stroke:#3F291B;stroke-width:2;stroke-linecap:round;stroke-linejoin:round;stroke-miterlimit:10;}
	
		.st10{display:inline;opacity:0.5;fill:none;stroke:#3F291B;stroke-width:3;stroke-linecap:round;stroke-linejoin:round;stroke-miterlimit:10;}
	.st11{display:inline;fill:none;stroke:#3F291B;stroke-width:3;stroke-linecap:round;stroke-linejoin:round;stroke-miterlimit:10;}
	.st12{fill:#003F53;}
	.st13{fill:#07698D;}
	.st14{fill:#038AB8;}
	.st15{display:inline;fill:#3F291B;}
	.st16{opacity:0.5;fill:none;stroke:#3F291B;stroke-width:3;stroke-linecap:round;stroke-linejoin:round;stroke-miterlimit:10;}
	.st17{display:inline;opacity:0.7;fill:#6F4636;}
</style>
<g id="all" class="st0">
	<g class="st1">
		<path class="st2" d="M262.11,279.2h-27.29c-2.2,0-4-1.8-4-4v-23.42c0-2.2,1.8-4,4-4h27.29c2.2,0,4,1.8,4,4v23.42
			C266.11,277.4,264.31,279.2,262.11,279.2z"/>
		<path class="st3" d="M233.15,268.37l31.98-4.47c0,0,1.53-15.41,0-15.63c-1.53-0.22-33.36,0.1-33.36,0.1l0.01,20"/>
	</g>
	<path class="st4" d="M250.95,114.2c-33.48,0-61.01,29.09-64.25,66.34c-6.79,1.54-11.94,8.95-11.94,17.87
		c0,10.04,6.51,18.18,14.55,18.18c0.7,0,1.39-0.08,2.06-0.2c9.76,26.58,32.76,45.25,59.58,45.25c35.66,0,64.58-33.01,64.58-73.73
		C315.52,147.21,286.61,114.2,250.95,114.2z"/>
	<g class="st1">
		<path class="st5" d="M271.24,296.19h-47c-2.2,0-4-1.8-4-4v-16.3c0-2.2,1.8-4,4-4h47c2.2,0,4,1.8,4,4v16.3
			C275.24,294.39,273.44,296.19,271.24,296.19z"/>
		<path class="st5" d="M330.22,329.97c0,28.08-35.85,18.42-80.07,18.42s-80.07,9.66-80.07-18.42s35.85-44.84,80.07-44.84
			S330.22,301.9,330.22,329.97z"/>
		<path class="st6" d="M284.67,287.29c0,0,40.32,17.7,42.06,32.54c1.57,13.31,4.96,18.23-9.02,24.15s-23.56,4.5-23.56,4.5
			l-23.56-49.88L284.67,287.29z"/>
		<path class="st7" d="M228.53,289.43c0,0-16.61,20.95-8.3,32.73s37.04,26.32,37.04,26.32h45.02c0,0,10.91-3.63,6.98-25.44
			c-3.93-21.82-15.6-30.63-29.62-35.17C265.64,283.32,228.53,289.43,228.53,289.43z"/>
		<path class="st8" d="M330.22,329.97c0,28.08-35.85,18.42-80.07,18.42s-80.07,9.66-80.07-18.42s35.85-44.84,80.07-44.84
			S330.22,301.9,330.22,329.97z"/>
	</g>
	<path class="st9" d="M255.3,165.37c-7.25-1.95-15.2,0.34-19.78,6.41"/>
	<path class="st9" d="M287.52,165.37c7.25-1.95,15.2,0.34,19.78,6.41"/>
	<path class="st10" d="M287.6,212.77c-4.05-5.72-9.9-4.38-12.6,0"/>
	<path class="st11" d="M261.96,233.66c6.34,6.34,16.6,6.34,22.95,0"/>
	<g class="st1">
		<path class="st12" d="M315.51,171.43c0,0-2.26-27.24-11.1-37.95c-10.08-12.22-17.48-17.59-31.01-21.74
			c-13.53-4.15-31.73-6.09-54.98-1.84c-19.64,3.59-39.92,21.26-45.82,42.11c-6.98,24.65-5.67,27.35-7.42,38.62
			c-2.05,13.17-0.87,68.29-0.87,68.29l57.82,1.87c0,0-3.32-17.39-8.07-44.42c-4.8-27.27,3.71-51.71,3.71-51.71
			s23.13-16.15,31.85-24.44c8.73-8.29,17.45-20.03,17.45-20.03s16.15,22.43,28.58,33.77c12.44,11.35,19.85,18.55,19.85,18.55"/>
		<path class="st13" d="M229.33,118.41l18.98-1.53c0,0-5.89,16.36-17.02,25.96c-11.13,9.6-20.73,15.05-18.98,15.05
			s4.15,0.22,12.65-4.36s20.95-18.33,26.4-26.4s7.42-11.56,5.45-12.65c-1.96-1.09-11.24-1.53-17.08,0
			c-5.83,1.53-15.61,4.17-11.51,3.93"/>
		<path class="st13" d="M281.04,121.68c0,0,9.38,9.16,12.22,12.65s7.2,11.35,7.85,11.56c0.65,0.22,1.75-3.39-2.18-10.2
			S281.04,121.68,281.04,121.68z"/>
		<path class="st14" d="M193.7,249.03h11.49c0,0-9.75-17.45-9.75-39.13s1.16-48,3.35-59.93c2.18-11.93,2.04-16.5,0-16.5
			c-2.71,0-13.67,27.99-15.71,49.66C181.04,204.81,193.7,249.03,193.7,249.03z"/>
		<path class="st13" d="M198.79,134.77c0,0-8.29,46.25-8.73,62.4c-0.44,16.15,2.84,37.75,4.36,46.25s1.53,10.27,1.53,10.27l-18.98-2
			c0,0-3.05-26.38-2.4-44.93c0.65-18.55,3.27-37.09,9.16-51.49C189.62,140.88,198.13,129.54,198.79,134.77z"/>
	</g>
	<ellipse class="st15" cx="250.77" cy="186.66" rx="5.38" ry="6.18"/>
	<ellipse class="st15" cx="298.77" cy="186.66" rx="5.38" ry="6.18"/>
</g>
<g id="neck" class="st0">
	<g class="st1">
		<path class="st2" d="M262.11,279.2h-27.29c-2.2,0-4-1.8-4-4v-23.42c0-2.2,1.8-4,4-4h27.29c2.2,0,4,1.8,4,4v23.42
			C266.11,277.4,264.31,279.2,262.11,279.2z"/>
		<path class="st3" d="M233.15,268.37l31.98-4.47c0,0,1.53-15.41,0-15.63c-1.53-0.22-33.36,0.1-33.36,0.1l0.01,20"/>
	</g>
</g>
<g id="head" class="st0">
	<path class="st4" d="M250.95,114.2c-33.48,0-61.01,29.09-64.25,66.34c-6.79,1.54-11.94,8.95-11.94,17.87
		c0,10.04,6.51,18.18,14.55,18.18c0.7,0,1.39-0.08,2.06-0.2c9.76,26.58,32.76,45.25,59.58,45.25c35.66,0,64.58-33.01,64.58-73.73
		C315.52,147.21,286.61,114.2,250.95,114.2z"/>
</g>
<g id="body" class="st0">
	<g class="st1">
		<path class="st5" d="M271.24,296.19h-47c-2.2,0-4-1.8-4-4v-16.3c0-2.2,1.8-4,4-4h47c2.2,0,4,1.8,4,4v16.3
			C275.24,294.39,273.44,296.19,271.24,296.19z"/>
		<path class="st5" d="M330.22,329.97c0,28.08-35.85,18.42-80.07,18.42s-80.07,9.66-80.07-18.42s35.85-44.84,80.07-44.84
			S330.22,301.9,330.22,329.97z"/>
		<path class="st6" d="M284.67,287.29c0,0,40.32,17.7,42.06,32.54c1.57,13.31,4.96,18.23-9.02,24.15s-23.56,4.5-23.56,4.5
			l-23.56-49.88L284.67,287.29z"/>
		<path class="st7" d="M228.53,289.43c0,0-16.61,20.95-8.3,32.73s37.04,26.32,37.04,26.32h45.02c0,0,10.91-3.63,6.98-25.44
			c-3.93-21.82-15.6-30.63-29.62-35.17C265.64,283.32,228.53,289.43,228.53,289.43z"/>
		<path class="st8" d="M330.22,329.97c0,28.08-35.85,18.42-80.07,18.42s-80.07,9.66-80.07-18.42s35.85-44.84,80.07-44.84
			S330.22,301.9,330.22,329.97z"/>
	</g>
</g>
<g id="nose">
	<path class="st16" d="M287.6,212.77c-4.05-5.72-9.9-4.38-12.6,0"/>
</g>
<g id="mouth" class="st0">
	<path class="st11" d="M261.96,233.66c6.34,6.34,16.6,6.34,22.95,0"/>
</g>
<g id="eyes" class="st0">
	<ellipse class="st15" cx="250.77" cy="186.66" rx="5.38" ry="6.18"/>
	<ellipse class="st15" cx="298.77" cy="186.66" rx="5.38" ry="6.18"/>
	<ellipse class="st15" cx="250.77" cy="186.66" rx="5.38" ry="6.18"/>
	<ellipse class="st15" cx="298.77" cy="186.66" rx="5.38" ry="6.18"/>
</g>
<g id="eyebrows" class="st0">
	<path class="st9" d="M255.3,165.37c-7.25-1.95-15.2,0.34-19.78,6.41"/>
	<path class="st9" d="M287.52,165.37c7.25-1.95,15.2,0.34,19.78,6.41"/>
</g>
<g id="hair" class="st0">
	<path class="st17" d="M273.11,123.77c0,0-9.89,15.74-26.18,25.61c-6.72,4.07-12.6,7.41-17.19,9.92
		c-6.6,3.61-10.83,10.4-11.17,17.91c-0.52,11.37-0.88,27.72,0.72,36.44c2.62,14.25,8.86,43.26,8.86,43.26l-11.81-6.75
		c0,0-13.63-74.33-7.81-84.51s52.95-50.33,56.44-50.91C268.46,114.17,273.11,123.77,273.11,123.77z"/>
	<g class="st1">
		<path class="st12" d="M315.51,171.43c0,0-2.26-27.24-11.1-37.95c-10.08-12.22-17.48-17.59-31.01-21.74
			c-13.53-4.15-31.73-6.09-54.98-1.84c-19.64,3.59-39.92,21.26-45.82,42.11c-6.98,24.65-5.67,27.35-7.42,38.62
			c-2.05,13.17-0.87,68.29-0.87,68.29l57.82,1.87c0,0-3.32-17.39-8.07-44.42c-4.8-27.27,3.71-51.71,3.71-51.71
			s23.13-16.15,31.85-24.44c8.73-8.29,17.45-20.03,17.45-20.03s16.15,22.43,28.58,33.77c12.44,11.35,19.85,18.55,19.85,18.55"/>
		<path class="st13" d="M229.33,118.41l18.98-1.53c0,0-5.89,16.36-17.02,25.96c-11.13,9.6-20.73,15.05-18.98,15.05
			s4.15,0.22,12.65-4.36s20.95-18.33,26.4-26.4s7.42-11.56,5.45-12.65c-1.96-1.09-11.24-1.53-17.08,0
			c-5.83,1.53-15.61,4.17-11.51,3.93"/>
		<path class="st13" d="M281.04,121.68c0,0,9.38,9.16,12.22,12.65s7.2,11.35,7.85,11.56c0.65,0.22,1.75-3.39-2.18-10.2
			S281.04,121.68,281.04,121.68z"/>
		<path class="st14" d="M193.7,249.03h11.49c0,0-9.75-17.45-9.75-39.13s1.16-48,3.35-59.93c2.18-11.93,2.04-16.5,0-16.5
			c-2.71,0-13.67,27.99-15.71,49.66C181.04,204.81,193.7,249.03,193.7,249.03z"/>
		<path class="st13" d="M198.79,134.77c0,0-8.29,46.25-8.73,62.4c-0.44,16.15,2.84,37.75,4.36,46.25s1.53,10.27,1.53,10.27l-18.98-2
			c0,0-3.05-26.38-2.4-44.93c0.65-18.55,3.27-37.09,9.16-51.49C189.62,140.88,198.13,129.54,198.79,134.77z"/>
	</g>
</g>
</svg>
