<?xml version="1.0" encoding="utf-8"?>
<!-- Generator: Adobe Illustrator 23.0.3, SVG Export Plug-In . SVG Version: 6.00 Build 0)  -->
<svg version="1.1" xmlns="http://www.w3.org/2000/svg" xmlns:xlink="http://www.w3.org/1999/xlink" x="0px" y="0px"
	 viewBox="0 0 250 325" style="enable-background:new 0 0 250 325;" xml:space="preserve">
<style type="text/css">
	.st0{display:none;}
	.st1{display:inline;}
	.st2{fill:#9B614E;stroke:#6F4636;stroke-width:3;stroke-miterlimit:10;}
	.st3{opacity:0.5;fill:#6F4636;}
	.st4{display:inline;fill:#9B614E;stroke:#6F4636;stroke-width:3;stroke-miterlimit:10;}
	.st5{fill:#F29220;}
	.st6{fill:#FFDC74;}
	.st7{fill:#F6B41A;}
	.st8{fill:none;stroke:#F29220;stroke-width:4;stroke-miterlimit:10;}
	
		.st9{display:inline;opacity:0.5;fill:none;stroke:#3F291B;stroke-width:2;stroke-linecap:round;stroke-linejoin:round;stroke-miterlimit:10;}
	
		.st10{display:inline;opacity:0.5;fill:none;stroke:#3F291B;stroke-width:3;stroke-linecap:round;stroke-linejoin:round;stroke-miterlimit:10;}
	.st11{display:inline;fill:none;stroke:#3F291B;stroke-width:3;stroke-linecap:round;stroke-linejoin:round;stroke-miterlimit:10;}
	.st12{fill:#003F53;}
	.st13{fill:#07698D;}
	.st14{fill:#038AB8;}
	.st15{display:inline;fill:#3F291B;}
	.st16{display:inline;fill:#8D4F4A;}
	.st17{display:inline;opacity:0.5;fill:#512927;}
	.st18{display:inline;fill:none;stroke:#512927;stroke-width:3;stroke-miterlimit:10;}
	.st19{display:inline;fill:#C79B82;}
	.st20{display:inline;opacity:0.2;fill:#401A0F;}
	.st21{display:inline;fill:none;stroke:#846451;stroke-width:3;stroke-miterlimit:10;}
	.st22{display:inline;fill:#B17F4C;}
	.st23{display:inline;opacity:0.5;fill:#6F4636;}
	.st24{display:inline;fill:none;stroke:#795635;stroke-width:3;stroke-miterlimit:10;}
	.st25{display:inline;fill:#846141;}
	.st26{display:inline;fill:none;stroke:#62462F;stroke-width:3;stroke-miterlimit:10;}
	.st27{display:inline;fill:#9B614E;}
	.st28{display:inline;fill:none;stroke:#6F4636;stroke-width:3;stroke-miterlimit:10;}
	.st29{display:inline;fill:#F7D5A8;}
	.st30{display:inline;opacity:0.25;fill:#9B8063;}
	.st31{display:inline;fill:none;stroke:#9B8063;stroke-width:3;stroke-miterlimit:10;}
	.st32{display:inline;fill:#75595A;}
	.st33{display:inline;opacity:0.3;fill:#401A0F;}
	.st34{display:inline;fill:none;stroke:#402A1C;stroke-width:3;stroke-miterlimit:10;}
	.st35{display:inline;fill:#F2CCAF;}
	.st36{display:inline;opacity:0.5;fill:#E2A479;}
	.st37{display:inline;fill:none;stroke:#E2A479;stroke-width:3;stroke-miterlimit:10;}
	.st38{opacity:0.3;fill:#401A0F;}
	.st39{opacity:0.15;fill:#401A0F;}
	.st40{fill:#F2CCAF;}
	.st41{display:none;opacity:0.15;fill:#401A0F;}
	.st42{fill:none;stroke:#E2A479;stroke-width:3;stroke-miterlimit:10;}
	.st43{display:inline;fill:#174994;}
	.st44{display:inline;fill:#56CBF5;}
	.st45{display:inline;fill:#00A5DC;}
	.st46{display:inline;fill:none;stroke:#174994;stroke-width:4;stroke-miterlimit:10;}
	.st47{display:inline;fill:#006635;}
	.st48{display:inline;fill:#51BC7D;}
	.st49{display:inline;fill:#009348;}
	.st50{display:inline;fill:none;stroke:#006635;stroke-width:4;stroke-miterlimit:10;}
	.st51{display:inline;fill:#814698;}
	.st52{display:inline;fill:#CBAAD1;}
	.st53{display:inline;fill:#AC7AB5;}
	.st54{display:inline;fill:none;stroke:#814698;stroke-width:4;stroke-miterlimit:10;}
	.st55{display:inline;fill:#EF4823;}
	.st56{display:inline;fill:#F9AC99;}
	.st57{display:inline;fill:#F37555;}
	.st58{display:inline;fill:none;stroke:#EF4823;stroke-width:4;stroke-miterlimit:10;}
	.st59{display:inline;fill:none;stroke:#3F291B;stroke-width:2;stroke-linecap:round;stroke-linejoin:round;stroke-miterlimit:10;}
	.st60{fill:none;stroke:#3F291B;stroke-width:2;stroke-linecap:round;stroke-linejoin:round;stroke-miterlimit:10;}
	.st61{display:inline;fill:none;stroke:#5C3A2B;stroke-width:2;stroke-linecap:round;stroke-linejoin:round;stroke-miterlimit:10;}
	.st62{display:inline;fill:none;stroke:#222222;stroke-width:2;stroke-linecap:round;stroke-linejoin:round;stroke-miterlimit:10;}
	.st63{display:inline;fill:none;stroke:#845637;stroke-width:2;stroke-linecap:round;stroke-linejoin:round;stroke-miterlimit:10;}
	.st64{display:inline;fill:none;stroke:#014D66;stroke-width:2;stroke-linecap:round;stroke-linejoin:round;stroke-miterlimit:10;}
	.st65{fill:#F16022;}
	.st66{fill:#F89C66;}
	.st67{display:inline;fill:#B1862D;}
	.st68{display:inline;fill:#CA992C;}
	.st69{display:inline;fill:#B3726C;}
	.st70{display:inline;fill:#212222;}
	.st71{display:inline;fill:#444445;}
	.st72{display:inline;fill:#003F53;}
	.st73{display:inline;fill:#07698D;}
	.st74{display:inline;fill:#F16022;}
	.st75{display:inline;fill:#F89C66;}
	.st76{display:inline;fill:#FBB68B;}
	.st77{display:inline;fill:#E4AC23;}
	.st78{display:inline;fill:#CA9C99;}
	.st79{display:inline;fill:#787878;}
</style>
<g id="example" class="st0">
	<g class="st1">
		<path class="st2" d="M137.11,221.7h-27.29c-2.2,0-4-1.8-4-4v-23.42c0-2.2,1.8-4,4-4h27.29c2.2,0,4,1.8,4,4v23.42
			C141.11,219.9,139.31,221.7,137.11,221.7z"/>
		<path class="st3" d="M108.15,210.87l31.98-4.47c0,0,1.53-15.41,0-15.63s-33.36,0.1-33.36,0.1l0.01,20"/>
	</g>
	<path class="st4" d="M125.95,56.7c-33.48,0-61.01,29.09-64.25,66.34c-6.79,1.54-11.94,8.95-11.94,17.87
		c0,10.04,6.51,18.18,14.55,18.18c0.7,0,1.39-0.08,2.06-0.2c9.76,26.58,32.76,45.25,59.58,45.25c35.66,0,64.58-33.01,64.58-73.73
		C190.52,89.71,161.61,56.7,125.95,56.7z"/>
	<g class="st1">
		<path class="st5" d="M146.24,238.69h-47c-2.2,0-4-1.8-4-4v-16.3c0-2.2,1.8-4,4-4h47c2.2,0,4,1.8,4,4v16.3
			C150.24,236.89,148.44,238.69,146.24,238.69z"/>
		<path class="st5" d="M205.22,272.47c0,28.08-35.85,18.42-80.07,18.42s-80.07,9.66-80.07-18.42s35.85-44.84,80.07-44.84
			S205.22,244.4,205.22,272.47z"/>
		<path class="st6" d="M159.67,229.79c0,0,40.32,17.7,42.06,32.54c1.57,13.31,4.96,18.23-9.02,24.15
			c-13.98,5.91-23.56,4.5-23.56,4.5l-23.56-49.88L159.67,229.79z"/>
		<path class="st7" d="M103.53,231.93c0,0-16.61,20.95-8.3,32.73c8.32,11.78,37.04,26.32,37.04,26.32h45.02
			c0,0,10.91-3.63,6.98-25.44c-3.93-21.82-15.6-30.63-29.62-35.17C140.64,225.82,103.53,231.93,103.53,231.93z"/>
		<path class="st8" d="M205.22,272.47c0,28.08-35.85,18.42-80.07,18.42s-80.07,9.66-80.07-18.42s35.85-44.84,80.07-44.84
			S205.22,244.4,205.22,272.47z"/>
	</g>
	<path class="st9" d="M130.3,107.87c-7.25-1.95-15.2,0.34-19.78,6.41"/>
	<path class="st9" d="M162.52,107.87c7.25-1.95,15.2,0.34,19.78,6.41"/>
	<path class="st10" d="M162.6,155.27c-4.05-5.72-9.9-4.38-12.6,0"/>
	<path class="st11" d="M136.96,176.16c6.34,6.34,16.6,6.34,22.95,0"/>
	<g class="st1">
		<path class="st12" d="M190.51,113.93c0,0-2.26-27.24-11.1-37.95c-10.08-12.22-17.48-17.59-31.01-21.74
			c-13.53-4.15-31.73-6.09-54.98-1.84c-19.64,3.59-39.92,21.26-45.82,42.11c-6.98,24.65-5.67,27.35-7.42,38.62
			c-2.05,13.17-0.87,68.29-0.87,68.29l57.82,1.87c0,0-3.32-17.39-8.07-44.42c-4.8-27.27,3.71-51.71,3.71-51.71
			s23.13-16.15,31.85-24.44s17.45-20.03,17.45-20.03s16.15,22.43,28.58,33.77c12.44,11.35,19.85,18.55,19.85,18.55"/>
		<path class="st13" d="M104.33,60.91l18.98-1.53c0,0-5.89,16.36-17.02,25.96S85.57,100.4,87.31,100.4c1.75,0,4.15,0.22,12.65-4.36
			s20.95-18.33,26.4-26.4c5.45-8.07,7.42-11.56,5.45-12.65c-1.96-1.09-11.24-1.53-17.08,0c-5.83,1.53-15.61,4.17-11.51,3.93"/>
		<path class="st13" d="M156.04,64.18c0,0,9.38,9.16,12.22,12.65c2.84,3.49,7.2,11.35,7.85,11.56c0.65,0.22,1.75-3.39-2.18-10.2
			S156.04,64.18,156.04,64.18z"/>
		<path class="st14" d="M68.7,191.53h11.49c0,0-9.75-17.45-9.75-39.13s1.16-48,3.35-59.93c2.18-11.93,2.04-16.5,0-16.5
			c-2.71,0-13.67,27.99-15.71,49.66C56.04,147.31,68.7,191.53,68.7,191.53z"/>
		<path class="st13" d="M73.79,77.27c0,0-8.29,46.25-8.73,62.4s2.84,37.75,4.36,46.25s1.53,10.27,1.53,10.27l-18.98-2
			c0,0-3.05-26.38-2.4-44.93c0.65-18.55,3.27-37.09,9.16-51.49S73.13,72.04,73.79,77.27z"/>
	</g>
	<ellipse class="st15" cx="125.77" cy="129.16" rx="5.38" ry="6.18"/>
	<ellipse class="st15" cx="173.77" cy="129.16" rx="5.38" ry="6.18"/>
</g>
<g id="Neck">
	<g id="_x38__1_" class="st0">
		<path id="fill_20_" class="st16" d="M137.11,221.7h-27.29c-2.2,0-4-1.8-4-4v-23.42c0-2.2,1.8-4,4-4h27.29c2.2,0,4,1.8,4,4v23.42
			C141.11,219.9,139.31,221.7,137.11,221.7z"/>
		<path id="shadow_7_" class="st17" d="M108.15,210.87l31.98-4.47c0,0,1.53-15.41,0-15.63s-33.36,0.1-33.36,0.1l0.01,20"/>
		<path id="stroke_17_" class="st18" d="M137.11,221.7h-27.29c-2.2,0-4-1.8-4-4v-23.42c0-2.2,1.8-4,4-4h27.29c2.2,0,4,1.8,4,4v23.42
			C141.11,219.9,139.31,221.7,137.11,221.7z"/>
	</g>
	<g id="_x37__1_" class="st0">
		<path id="fill_17_" class="st19" d="M137.11,221.7h-27.29c-2.2,0-4-1.8-4-4v-23.42c0-2.2,1.8-4,4-4h27.29c2.2,0,4,1.8,4,4v23.42
			C141.11,219.9,139.31,221.7,137.11,221.7z"/>
		<path id="shadow_6_" class="st20" d="M108.15,210.87l31.98-4.47c0,0,1.53-15.41,0-15.63s-33.36,0.1-33.36,0.1l0.01,20"/>
		<path id="stroke_14_" class="st21" d="M137.11,221.7h-27.29c-2.2,0-4-1.8-4-4v-23.42c0-2.2,1.8-4,4-4h27.29c2.2,0,4,1.8,4,4v23.42
			C141.11,219.9,139.31,221.7,137.11,221.7z"/>
	</g>
	<g id="_x36__1_" class="st0">
		<path id="fill_14_" class="st22" d="M137.11,221.7h-27.29c-2.2,0-4-1.8-4-4v-23.42c0-2.2,1.8-4,4-4h27.29c2.2,0,4,1.8,4,4v23.42
			C141.11,219.9,139.31,221.7,137.11,221.7z"/>
		<path id="shadow_5_" class="st23" d="M108.15,210.87l31.98-4.47c0,0,1.53-15.41,0-15.63s-33.36,0.1-33.36,0.1l0.01,20"/>
		<path id="stroke_11_" class="st24" d="M137.11,221.7h-27.29c-2.2,0-4-1.8-4-4v-23.42c0-2.2,1.8-4,4-4h27.29c2.2,0,4,1.8,4,4v23.42
			C141.11,219.9,139.31,221.7,137.11,221.7z"/>
	</g>
	<g id="_x35__1_" class="st0">
		<path id="fill_11_" class="st25" d="M137.11,221.7h-27.29c-2.2,0-4-1.8-4-4v-23.42c0-2.2,1.8-4,4-4h27.29c2.2,0,4,1.8,4,4v23.42
			C141.11,219.9,139.31,221.7,137.11,221.7z"/>
		<path id="shadow_4_" class="st23" d="M108.15,210.87l31.98-4.47c0,0,1.53-15.41,0-15.63s-33.36,0.1-33.36,0.1l0.01,20"/>
		<path id="stroke_9_" class="st26" d="M137.11,221.7h-27.29c-2.2,0-4-1.8-4-4v-23.42c0-2.2,1.8-4,4-4h27.29c2.2,0,4,1.8,4,4v23.42
			C141.11,219.9,139.31,221.7,137.11,221.7z"/>
	</g>
	<g id="_x34__2_" class="st0">
		<path id="fill_4_" class="st27" d="M137.11,221.7h-27.29c-2.2,0-4-1.8-4-4v-23.42c0-2.2,1.8-4,4-4h27.29c2.2,0,4,1.8,4,4v23.42
			C141.11,219.9,139.31,221.7,137.11,221.7z"/>
		<path id="shadow_1_" class="st23" d="M108.15,210.87l31.98-4.47c0,0,1.53-15.41,0-15.63s-33.36,0.1-33.36,0.1l0.01,20"/>
		<path id="stroke_3_" class="st28" d="M137.11,221.7h-27.29c-2.2,0-4-1.8-4-4v-23.42c0-2.2,1.8-4,4-4h27.29c2.2,0,4,1.8,4,4v23.42
			C141.11,219.9,139.31,221.7,137.11,221.7z"/>
	</g>
	<g id="_x33__1_" class="st0">
		<path id="fill_5_" class="st29" d="M137.11,221.7h-27.29c-2.2,0-4-1.8-4-4v-23.42c0-2.2,1.8-4,4-4h27.29c2.2,0,4,1.8,4,4v23.42
			C141.11,219.9,139.31,221.7,137.11,221.7z"/>
		<path id="shadow_2_" class="st30" d="M107.65,210.87l31.98-4.47c0,0,0.14-15.63-0.36-15.63c-1.54,0-32,0.1-32,0.1l0.01,20"/>
		<path id="stroke_4_" class="st31" d="M137.11,221.7h-27.29c-2.2,0-4-1.8-4-4v-23.42c0-2.2,1.8-4,4-4h27.29c2.2,0,4,1.8,4,4v23.42
			C141.11,219.9,139.31,221.7,137.11,221.7z"/>
	</g>
	<g id="_x32__1_" class="st0">
		<path id="fill_8_" class="st32" d="M137.11,221.7h-27.29c-2.2,0-4-1.8-4-4v-23.42c0-2.2,1.8-4,4-4h27.29c2.2,0,4,1.8,4,4v23.42
			C141.11,219.9,139.31,221.7,137.11,221.7z"/>
		<path id="shadow_3_" class="st33" d="M108.15,210.87l31.98-4.47c0,0,1.53-15.41,0-15.63s-33.36,0.1-33.36,0.1l0.01,20"/>
		<path id="stroke_7_" class="st34" d="M137.11,221.7h-27.29c-2.2,0-4-1.8-4-4v-23.42c0-2.2,1.8-4,4-4h27.29c2.2,0,4,1.8,4,4v23.42
			C141.11,219.9,139.31,221.7,137.11,221.7z"/>
	</g>
	<g id="_x31__1_" class="st0">
		<path id="fill_1_" class="st35" d="M137.11,221.7h-27.29c-2.2,0-4-1.8-4-4v-23.42c0-2.2,1.8-4,4-4h27.29c2.2,0,4,1.8,4,4v23.42
			C141.11,219.9,139.31,221.7,137.11,221.7z"/>
		<path id="shadow" class="st36" d="M107.65,210.87l31.98-4.47c0,0,0.14-15.63-0.36-15.63c-1.54,0-32,0.1-32,0.1l0.01,20"/>
		<path id="stroke_1_" class="st37" d="M137.11,221.7h-27.29c-2.2,0-4-1.8-4-4v-23.42c0-2.2,1.8-4,4-4h27.29c2.2,0,4,1.8,4,4v23.42
			C141.11,219.9,139.31,221.7,137.11,221.7z"/>
	</g>
</g>
<g id="Skin" class="st0">
	<g id="_x38_">
		<path id="fill_19_" class="st16" d="M125.95,56.7c-33.48,0-61.01,29.09-64.25,66.34c-6.79,1.54-11.94,8.95-11.94,17.87
			c0,10.04,6.51,18.18,14.55,18.18c0.7,0,1.39-0.08,2.06-0.2c9.76,26.58,32.76,45.25,59.58,45.25c35.66,0,64.58-33.01,64.58-73.73
			C190.52,89.71,161.61,56.7,125.95,56.7z"/>
		<path id="shadow_hairStyle_1_7_" class="st38" d="M148.11,66.27c0,0-9.89,15.74-26.18,25.61c-6.72,4.07-12.6,7.41-17.19,9.92
			c-6.6,3.61-10.83,10.4-11.17,17.91c-0.52,11.37-0.88,27.72,0.72,36.44c2.62,14.25,8.79,43.23,8.79,43.23s-1.94-0.95-6.9-3.9
			c-4.81-2.85-6.44-6.73-6.44-6.73s-12.03-70.43-6.22-80.61c5.82-10.18,52.95-50.33,56.44-50.91
			C143.46,56.67,148.11,66.27,148.11,66.27z"/>
		<path id="stroke_16_" class="st18" d="M125.95,56.7c-33.48,0-61.01,29.09-64.25,66.34c-6.79,1.54-11.94,8.95-11.94,17.87
			c0,10.04,6.51,18.18,14.55,18.18c0.7,0,1.39-0.08,2.06-0.2c9.76,26.58,32.76,45.25,59.58,45.25c35.66,0,64.58-33.01,64.58-73.73
			C190.52,89.71,161.61,56.7,125.95,56.7z"/>
	</g>
	<g id="_x37_">
		<path id="fill_16_" class="st19" d="M125.95,56.7c-33.48,0-61.01,29.09-64.25,66.34c-6.79,1.54-11.94,8.95-11.94,17.87
			c0,10.04,6.51,18.18,14.55,18.18c0.7,0,1.39-0.08,2.06-0.2c9.76,26.58,32.76,45.25,59.58,45.25c35.66,0,64.58-33.01,64.58-73.73
			C190.52,89.71,161.61,56.7,125.95,56.7z"/>
		<path id="shadow_hairStyle_1_6_" class="st38" d="M148.11,66.27c0,0-9.89,15.74-26.18,25.61c-6.72,4.07-12.6,7.41-17.19,9.92
			c-6.6,3.61-10.83,10.4-11.17,17.91c-0.52,11.37-0.88,27.72,0.72,36.44c2.62,14.25,8.79,43.23,8.79,43.23s-1.94-0.95-6.9-3.9
			c-4.81-2.85-6.44-6.73-6.44-6.73s-12.03-70.43-6.22-80.61c5.82-10.18,52.95-50.33,56.44-50.91
			C143.46,56.67,148.11,66.27,148.11,66.27z"/>
		<path id="stroke_13_" class="st21" d="M125.95,56.7c-33.48,0-61.01,29.09-64.25,66.34c-6.79,1.54-11.94,8.95-11.94,17.87
			c0,10.04,6.51,18.18,14.55,18.18c0.7,0,1.39-0.08,2.06-0.2c9.76,26.58,32.76,45.25,59.58,45.25c35.66,0,64.58-33.01,64.58-73.73
			C190.52,89.71,161.61,56.7,125.95,56.7z"/>
	</g>
	<g id="_x36_">
		<path id="fill_13_" class="st22" d="M125.95,56.7c-33.48,0-61.01,29.09-64.25,66.34c-6.79,1.54-11.94,8.95-11.94,17.87
			c0,10.04,6.51,18.18,14.55,18.18c0.7,0,1.39-0.08,2.06-0.2c9.76,26.58,32.76,45.25,59.58,45.25c35.66,0,64.58-33.01,64.58-73.73
			C190.52,89.71,161.61,56.7,125.95,56.7z"/>
		<path id="shadow_hairStyle_1_5_" class="st38" d="M148.11,66.27c0,0-9.89,15.74-26.18,25.61c-6.72,4.07-12.6,7.41-17.19,9.92
			c-6.6,3.61-10.83,10.4-11.17,17.91c-0.52,11.37-0.88,27.72,0.72,36.44c2.62,14.25,8.79,43.23,8.79,43.23s-1.94-0.95-6.9-3.9
			c-4.81-2.85-6.44-6.73-6.44-6.73s-12.03-70.43-6.22-80.61c5.82-10.18,52.95-50.33,56.44-50.91
			C143.46,56.67,148.11,66.27,148.11,66.27z"/>
		<path id="stroke_10_" class="st24" d="M125.95,56.7c-33.48,0-61.01,29.09-64.25,66.34c-6.79,1.54-11.94,8.95-11.94,17.87
			c0,10.04,6.51,18.18,14.55,18.18c0.7,0,1.39-0.08,2.06-0.2c9.76,26.58,32.76,45.25,59.58,45.25c35.66,0,64.58-33.01,64.58-73.73
			C190.52,89.71,161.61,56.7,125.95,56.7z"/>
	</g>
	<g id="_x35_">
		<path id="fill_10_" class="st25" d="M125.95,56.7c-33.48,0-61.01,29.09-64.25,66.34c-6.79,1.54-11.94,8.95-11.94,17.87
			c0,10.04,6.51,18.18,14.55,18.18c0.7,0,1.39-0.08,2.06-0.2c9.76,26.58,32.76,45.25,59.58,45.25c35.66,0,64.58-33.01,64.58-73.73
			C190.52,89.71,161.61,56.7,125.95,56.7z"/>
		<path id="shadow_hairStyle_1_4_" class="st38" d="M148.11,66.27c0,0-9.89,15.74-26.18,25.61c-6.72,4.07-12.6,7.41-17.19,9.92
			c-6.6,3.61-10.83,10.4-11.17,17.91c-0.52,11.37-0.88,27.72,0.72,36.44c2.62,14.25,8.79,43.23,8.79,43.23s-1.94-0.95-6.9-3.9
			c-4.81-2.85-6.44-6.73-6.44-6.73s-12.03-70.43-6.22-80.61c5.82-10.18,52.95-50.33,56.44-50.91
			C143.46,56.67,148.11,66.27,148.11,66.27z"/>
		<path id="stroke_8_" class="st26" d="M125.95,56.7c-33.48,0-61.01,29.09-64.25,66.34c-6.79,1.54-11.94,8.95-11.94,17.87
			c0,10.04,6.51,18.18,14.55,18.18c0.7,0,1.39-0.08,2.06-0.2c9.76,26.58,32.76,45.25,59.58,45.25c35.66,0,64.58-33.01,64.58-73.73
			C190.52,89.71,161.61,56.7,125.95,56.7z"/>
	</g>
	<g id="_x34__1_">
		<path id="fill_3_" class="st27" d="M125.95,56.7c-33.48,0-61.01,29.09-64.25,66.34c-6.79,1.54-11.94,8.95-11.94,17.87
			c0,10.04,6.51,18.18,14.55,18.18c0.7,0,1.39-0.08,2.06-0.2c9.76,26.58,32.76,45.25,59.58,45.25c35.66,0,64.58-33.01,64.58-73.73
			C190.52,89.71,161.61,56.7,125.95,56.7z"/>
		<path id="shadow_hairStyle_1_1_" class="st38" d="M148.11,66.27c0,0-9.89,15.74-26.18,25.61c-6.72,4.07-12.6,7.41-17.19,9.92
			c-6.6,3.61-10.83,10.4-11.17,17.91c-0.52,11.37-0.88,27.72,0.72,36.44c2.62,14.25,8.79,43.23,8.79,43.23s-1.94-0.95-6.9-3.9
			c-4.81-2.85-6.44-6.73-6.44-6.73s-12.03-70.43-6.22-80.61c5.82-10.18,52.95-50.33,56.44-50.91
			C143.46,56.67,148.11,66.27,148.11,66.27z"/>
		<path id="stroke_2_" class="st28" d="M125.95,56.7c-33.48,0-61.01,29.09-64.25,66.34c-6.79,1.54-11.94,8.95-11.94,17.87
			c0,10.04,6.51,18.18,14.55,18.18c0.7,0,1.39-0.08,2.06-0.2c9.76,26.58,32.76,45.25,59.58,45.25c35.66,0,64.58-33.01,64.58-73.73
			C190.52,89.71,161.61,56.7,125.95,56.7z"/>
	</g>
	<g id="_x33_">
		<path id="fill" class="st29" d="M125.95,56.7c-33.48,0-61.01,29.09-64.25,66.34c-6.79,1.54-11.94,8.95-11.94,17.87
			c0,10.04,6.51,18.18,14.55,18.18c0.7,0,1.39-0.08,2.06-0.2c9.76,26.58,32.76,45.25,59.58,45.25c35.66,0,64.58-33.01,64.58-73.73
			C190.52,89.71,161.61,56.7,125.95,56.7z"/>
		<path id="shadow_hairStyle_1_2_" class="st39" d="M148.11,66.27c0,0-9.89,15.74-26.18,25.61c-6.72,4.07-12.6,7.41-17.19,9.92
			c-6.6,3.61-10.83,10.4-11.17,17.91c-0.52,11.37-0.88,27.72,0.72,36.44c2.62,14.25,8.79,43.23,8.79,43.23s-1.94-0.95-6.9-3.9
			c-4.81-2.85-6.44-6.73-6.44-6.73s-12.03-70.43-6.22-80.61c5.82-10.18,52.95-50.33,56.44-50.91
			C143.46,56.67,148.11,66.27,148.11,66.27z"/>
		<path id="stroke" class="st31" d="M125.95,56.7c-33.48,0-61.01,29.09-64.25,66.34c-6.79,1.54-11.94,8.95-11.94,17.87
			c0,10.04,6.51,18.18,14.55,18.18c0.7,0,1.39-0.08,2.06-0.2c9.76,26.58,32.76,45.25,59.58,45.25c35.66,0,64.58-33.01,64.58-73.73
			C190.52,89.71,161.61,56.7,125.95,56.7z"/>
	</g>
	<g id="_x32_">
		<path id="fill_7_" class="st32" d="M125.95,56.7c-33.48,0-61.01,29.09-64.25,66.34c-6.79,1.54-11.94,8.95-11.94,17.87
			c0,10.04,6.51,18.18,14.55,18.18c0.7,0,1.39-0.08,2.06-0.2c9.76,26.58,32.76,45.25,59.58,45.25c35.66,0,64.58-33.01,64.58-73.73
			C190.52,89.71,161.61,56.7,125.95,56.7z"/>
		<path id="shadow_hairStyle_1_3_" class="st39" d="M148.11,66.27c0,0-9.89,15.74-26.18,25.61c-6.72,4.07-12.6,7.41-17.19,9.92
			c-6.6,3.61-10.83,10.4-11.17,17.91c-0.52,11.37-0.88,27.72,0.72,36.44c2.62,14.25,8.79,43.23,8.79,43.23s-1.94-0.95-6.9-3.9
			c-4.81-2.85-6.44-6.73-6.44-6.73s-12.03-70.43-6.22-80.61c5.82-10.18,52.95-50.33,56.44-50.91
			C143.46,56.67,148.11,66.27,148.11,66.27z"/>
		<path id="stroke_6_" class="st34" d="M125.95,56.7c-33.48,0-61.01,29.09-64.25,66.34c-6.79,1.54-11.94,8.95-11.94,17.87
			c0,10.04,6.51,18.18,14.55,18.18c0.7,0,1.39-0.08,2.06-0.2c9.76,26.58,32.76,45.25,59.58,45.25c35.66,0,64.58-33.01,64.58-73.73
			C190.52,89.71,161.61,56.7,125.95,56.7z"/>
	</g>
	<g id="_x31_" class="st1">
		<path id="fill_6_" class="st40" d="M125.95,56.7c-33.48,0-61.01,29.09-64.25,66.34c-6.79,1.54-11.94,8.95-11.94,17.87
			c0,10.04,6.51,18.18,14.55,18.18c0.7,0,1.39-0.08,2.06-0.2c9.76,26.58,32.76,45.25,59.58,45.25c35.66,0,64.58-33.01,64.58-73.73
			C190.52,89.71,161.61,56.7,125.95,56.7z"/>
		<path id="shadowStyle_9" class="st41" d="M72.71,129.5c0,0,3.79-24.47,35.6-36.84s49.01-13.07,52.37-14.3
			c3.37-1.24,5.11-9.13,7.99-9.2c2.88-0.07-8.41-9.85-50.12,1.14s-37.82,9.16-46.69,22.02S72.71,129.5,72.71,129.5z"/>
		<path id="shadow_Style_1" class="st41" d="M148.11,66.27c0,0-9.89,15.74-26.18,25.61c-6.72,4.07-12.6,7.41-17.19,9.92
			c-6.6,3.61-10.83,10.4-11.17,17.91c-0.52,11.37-0.88,27.72,0.72,36.44c2.62,14.25,8.79,43.23,8.79,43.23s-1.94-0.95-6.9-3.9
			c-4.81-2.85-6.44-6.73-6.44-6.73s-12.03-70.43-6.22-80.61c5.82-10.18,52.95-50.33,56.44-50.91
			C143.46,56.67,148.11,66.27,148.11,66.27z"/>
		<path id="stroke_5_" class="st42" d="M125.95,56.7c-33.48,0-61.01,29.09-64.25,66.34c-6.79,1.54-11.94,8.95-11.94,17.87
			c0,10.04,6.51,18.18,14.55,18.18c0.7,0,1.39-0.08,2.06-0.2c9.76,26.58,32.76,45.25,59.58,45.25c35.66,0,64.58-33.01,64.58-73.73
			C190.52,89.71,161.61,56.7,125.95,56.7z"/>
	</g>
</g>
<g id="Body" class="st0">
	<g id="blue">
		<path class="st43" d="M146.24,238.69h-47c-2.2,0-4-1.8-4-4v-16.3c0-2.2,1.8-4,4-4h47c2.2,0,4,1.8,4,4v16.3
			C150.24,236.89,148.44,238.69,146.24,238.69z"/>
		<path class="st43" d="M205.22,272.47c0,28.08-35.85,18.42-80.07,18.42s-80.07,9.66-80.07-18.42s35.85-44.84,80.07-44.84
			S205.22,244.4,205.22,272.47z"/>
		<path class="st44" d="M159.67,229.79c0,0,40.32,17.7,42.06,32.54c1.57,13.31,4.96,18.23-9.02,24.15
			c-13.98,5.91-23.56,4.5-23.56,4.5l-23.56-49.88L159.67,229.79z"/>
		<path class="st45" d="M103.53,231.93c0,0-16.61,20.95-8.3,32.73c8.32,11.78,37.04,26.32,37.04,26.32h45.02
			c0,0,10.91-3.63,6.98-25.44c-3.93-21.82-15.6-30.63-29.62-35.17C140.64,225.82,103.53,231.93,103.53,231.93z"/>
		<path class="st46" d="M205.22,272.47c0,28.08-35.85,18.42-80.07,18.42s-80.07,9.66-80.07-18.42s35.85-44.84,80.07-44.84
			S205.22,244.4,205.22,272.47z"/>
	</g>
	<g id="green">
		<path class="st47" d="M146.24,238.69h-47c-2.2,0-4-1.8-4-4v-16.3c0-2.2,1.8-4,4-4h47c2.2,0,4,1.8,4,4v16.3
			C150.24,236.89,148.44,238.69,146.24,238.69z"/>
		<path class="st47" d="M205.22,272.47c0,28.08-35.85,18.42-80.07,18.42s-80.07,9.66-80.07-18.42s35.85-44.84,80.07-44.84
			S205.22,244.4,205.22,272.47z"/>
		<path class="st48" d="M159.67,229.79c0,0,40.32,17.7,42.06,32.54c1.57,13.31,4.96,18.23-9.02,24.15
			c-13.98,5.91-23.56,4.5-23.56,4.5l-23.56-49.88L159.67,229.79z"/>
		<path class="st49" d="M103.53,231.93c0,0-16.61,20.95-8.3,32.73c8.32,11.78,37.04,26.32,37.04,26.32h45.02
			c0,0,10.91-3.63,6.98-25.44c-3.93-21.82-15.6-30.63-29.62-35.17C140.64,225.82,103.53,231.93,103.53,231.93z"/>
		<path class="st50" d="M205.22,272.47c0,28.08-35.85,18.42-80.07,18.42s-80.07,9.66-80.07-18.42s35.85-44.84,80.07-44.84
			S205.22,244.4,205.22,272.47z"/>
	</g>
	<g id="purple">
		<path class="st51" d="M146.24,238.69h-47c-2.2,0-4-1.8-4-4v-16.3c0-2.2,1.8-4,4-4h47c2.2,0,4,1.8,4,4v16.3
			C150.24,236.89,148.44,238.69,146.24,238.69z"/>
		<path class="st51" d="M205.22,272.47c0,28.08-35.85,18.42-80.07,18.42s-80.07,9.66-80.07-18.42s35.85-44.84,80.07-44.84
			S205.22,244.4,205.22,272.47z"/>
		<path class="st52" d="M159.67,229.79c0,0,40.32,17.7,42.06,32.54c1.57,13.31,4.96,18.23-9.02,24.15
			c-13.98,5.91-23.56,4.5-23.56,4.5l-23.56-49.88L159.67,229.79z"/>
		<path class="st53" d="M103.53,231.93c0,0-16.61,20.95-8.3,32.73c8.32,11.78,37.04,26.32,37.04,26.32h45.02
			c0,0,10.91-3.63,6.98-25.44c-3.93-21.82-15.6-30.63-29.62-35.17C140.64,225.82,103.53,231.93,103.53,231.93z"/>
		<path class="st54" d="M205.22,272.47c0,28.08-35.85,18.42-80.07,18.42s-80.07,9.66-80.07-18.42s35.85-44.84,80.07-44.84
			S205.22,244.4,205.22,272.47z"/>
	</g>
	<g id="red_copy">
		<path class="st55" d="M146.24,238.69h-47c-2.2,0-4-1.8-4-4v-16.3c0-2.2,1.8-4,4-4h47c2.2,0,4,1.8,4,4v16.3
			C150.24,236.89,148.44,238.69,146.24,238.69z"/>
		<path class="st55" d="M205.22,272.47c0,28.08-35.85,18.42-80.07,18.42s-80.07,9.66-80.07-18.42s35.85-44.84,80.07-44.84
			S205.22,244.4,205.22,272.47z"/>
		<path class="st56" d="M159.67,229.79c0,0,40.32,17.7,42.06,32.54c1.57,13.31,4.96,18.23-9.02,24.15
			c-13.98,5.91-23.56,4.5-23.56,4.5l-23.56-49.88L159.67,229.79z"/>
		<path class="st57" d="M103.53,231.93c0,0-16.61,20.95-8.3,32.73c8.32,11.78,37.04,26.32,37.04,26.32h45.02
			c0,0,10.91-3.63,6.98-25.44c-3.93-21.82-15.6-30.63-29.62-35.17C140.64,225.82,103.53,231.93,103.53,231.93z"/>
		<path class="st58" d="M205.22,272.47c0,28.08-35.85,18.42-80.07,18.42s-80.07,9.66-80.07-18.42s35.85-44.84,80.07-44.84
			S205.22,244.4,205.22,272.47z"/>
	</g>
	<g id="orange_copy">
		<g class="st1">
			<path class="st5" d="M146.24,238.69h-47c-2.2,0-4-1.8-4-4v-16.3c0-2.2,1.8-4,4-4h47c2.2,0,4,1.8,4,4v16.3
				C150.24,236.89,148.44,238.69,146.24,238.69z"/>
			<path class="st5" d="M205.22,272.47c0,28.08-35.85,18.42-80.07,18.42s-80.07,9.66-80.07-18.42s35.85-44.84,80.07-44.84
				S205.22,244.4,205.22,272.47z"/>
			<path class="st6" d="M159.67,229.79c0,0,40.32,17.7,42.06,32.54c1.57,13.31,4.96,18.23-9.02,24.15
				c-13.98,5.91-23.56,4.5-23.56,4.5l-23.56-49.88L159.67,229.79z"/>
			<path class="st7" d="M103.53,231.93c0,0-16.61,20.95-8.3,32.73c8.32,11.78,37.04,26.32,37.04,26.32h45.02
				c0,0,10.91-3.63,6.98-25.44c-3.93-21.82-15.6-30.63-29.62-35.17C140.64,225.82,103.53,231.93,103.53,231.93z"/>
			<path class="st8" d="M205.22,272.47c0,28.08-35.85,18.42-80.07,18.42s-80.07,9.66-80.07-18.42s35.85-44.84,80.07-44.84
				S205.22,244.4,205.22,272.47z"/>
		</g>
	</g>
</g>
<g id="nose" class="st0">
	<path class="st10" d="M162.6,155.27c-4.05-5.72-9.9-4.38-12.6,0"/>
</g>
<g id="mouth" class="st0">
	<path class="st11" d="M136.96,176.16c6.34,6.34,16.6,6.34,22.95,0"/>
</g>
<g id="eyes" class="st0">
	<ellipse class="st15" cx="125.77" cy="129.16" rx="5.38" ry="6.18"/>
	<ellipse class="st15" cx="173.77" cy="129.16" rx="5.38" ry="6.18"/>
	<ellipse class="st15" cx="125.77" cy="129.16" rx="5.38" ry="6.18"/>
	<ellipse class="st15" cx="173.77" cy="129.16" rx="5.38" ry="6.18"/>
</g>
<g id="eyebrows">
	<g id="Skin_8" class="st0">
		<path class="st59" d="M130.3,107.87c-7.25-1.95-15.2,0.34-19.78,6.41"/>
		<path class="st59" d="M162.52,107.87c7.25-1.95,15.2,0.34,19.78,6.41"/>
	</g>
	<g id="Skin_7" class="st0">
		<path class="st59" d="M130.3,107.87c-7.25-1.95-15.2,0.34-19.78,6.41"/>
		<path class="st59" d="M162.52,107.87c7.25-1.95,15.2,0.34,19.78,6.41"/>
	</g>
	<g id="Skin_6">
		<path class="st60" d="M130.3,107.87c-7.25-1.95-15.2,0.34-19.78,6.41"/>
		<path class="st60" d="M162.52,107.87c7.25-1.95,15.2,0.34,19.78,6.41"/>
	</g>
	<g id="Skin_5" class="st0">
		<path class="st59" d="M130.3,107.87c-7.25-1.95-15.2,0.34-19.78,6.41"/>
		<path class="st59" d="M162.52,107.87c7.25-1.95,15.2,0.34,19.78,6.41"/>
	</g>
	<g id="Skin_4" class="st0">
		<path class="st61" d="M130.3,107.87c-7.25-1.95-15.2,0.34-19.78,6.41"/>
		<path class="st61" d="M162.52,107.87c7.25-1.95,15.2,0.34,19.78,6.41"/>
	</g>
	<g id="Skin_3" class="st0">
		<path class="st61" d="M130.3,107.87c-7.25-1.95-15.2,0.34-19.78,6.41"/>
		<path class="st61" d="M162.52,107.87c7.25-1.95,15.2,0.34,19.78,6.41"/>
	</g>
	<g id="Skin_2" class="st0">
		<path class="st62" d="M130.3,107.87c-7.25-1.95-15.2,0.34-19.78,6.41"/>
		<path class="st62" d="M162.52,107.87c7.25-1.95,15.2,0.34,19.78,6.41"/>
	</g>
	<g id="Skin_1" class="st0">
		<path class="st63" d="M130.3,107.87c-7.25-1.95-15.2,0.34-19.78,6.41"/>
		<path class="st63" d="M162.52,107.87c7.25-1.95,15.2,0.34,19.78,6.41"/>
	</g>
</g>
<g id="glasses" class="st0">
	<circle class="st64" cx="126.4" cy="130.16" r="18.05"/>
	<circle class="st64" cx="178.4" cy="130.16" r="18.05"/>
	<path class="st64" d="M160.57,126.64c-4.57-4.57-11.97-4.57-16.54,0"/>
	<line class="st64" x1="108.12" y1="124.92" x2="60.87" y2="118.77"/>
</g>
<g id="hairFront" class="st0">
	<g id="Style_9" class="st1">
		<g id="Redhair">
			<path class="st65" d="M188.13,106.66c0,0,2.74-11.81,3.25-17.11s-1.63-22.76-1.63-22.76s-3.82,2.6-6.76,4.62
				c-3.88,2.67-16.27,5.45-16.27,5.45s8.94,3.32,12.78,9.87C182.3,91.5,188.13,106.66,188.13,106.66z"/>
			<path class="st65" d="M111.13,28.8c0,0-26.58-1.37-42.21,16.08c-15.48,17.29-17.3,24.19-17.3,24.19l3.27,0.22
				c0.44-1.28-3.28,8.84-5.82,19.62c-2.36,10.04,1.83,21.37,1.83,21.37l3.53-10.65c0,0-1.71,18.25,4.56,29.2
				c4.46,7.78,12.19,20.56,13.35,16.77c1.25-4.11,0.46-11.75-0.83-23.82c-0.82-7.76,0.51-13.58,0.51-13.58s20.46-20.15,42.75-26.82
				c23.61-7.07,40.15-5.08,46.66-4.53c6.5,0.54,14.72-0.83,20.88-6.3c6.16-5.48,10.95-11.29,11.98-18.94
				c0.59-4.41-3.76-14.72-11.18-20.08c-5.92-4.28-23.39-11.29-23.39-11.29l3.08,9.58c0,0-10.27-4.77-22.93-7.87
				s-35.93,0.34-35.93,0.34L111.13,28.8z"/>
			<path class="st66" d="M171.71,30.17c0,0,10.95,4.28,13.35,8.73s2.91,8.9,1.37,13.35s-8.21,6.16-8.21,6.16s4.96-4.96,3.76-12.32
				C180.77,38.72,171.71,30.17,171.71,30.17z"/>
			<path class="st66" d="M63.39,72.95c-1.43,4,18.14-23.96,28.75-28.66s19.16-5.39,26.69-6.25c7.53-0.86,25.15,0,25.15,0
				s-9.75-6.67-15.74-8.9c-5.99-2.22-13.52-3.76-13.52-3.76s7.14,6.84,5.71,7.19c-1.43,0.34-14.95-1.37-23.68,1.88
				S71.78,49.5,63.39,72.95z"/>
		</g>
		<g id="Blonde_1_" class="st0">
			<path class="st67" d="M188.13,106.66c0,0,2.74-11.81,3.25-17.11s-1.63-22.76-1.63-22.76s-3.82,2.6-6.76,4.62
				c-3.88,2.67-16.27,5.45-16.27,5.45s8.94,3.32,12.78,9.87C182.3,91.5,188.13,106.66,188.13,106.66z"/>
			<path class="st67" d="M111.13,28.8c0,0-26.58-1.37-42.21,16.08c-15.48,17.29-17.3,24.19-17.3,24.19l3.27,0.22
				c0.44-1.28-3.28,8.84-5.82,19.62c-2.36,10.04,1.83,21.37,1.83,21.37l3.53-10.65c0,0-1.71,18.25,4.56,29.2
				c4.46,7.78,12.19,20.56,13.35,16.77c1.25-4.11,0.46-11.75-0.83-23.82c-0.82-7.76,0.51-13.58,0.51-13.58s20.46-20.15,42.75-26.82
				c23.61-7.07,40.15-5.08,46.66-4.53c6.5,0.54,14.72-0.83,20.88-6.3c6.16-5.48,10.95-11.29,11.98-18.94
				c0.59-4.41-3.76-14.72-11.18-20.08c-5.92-4.28-23.39-11.29-23.39-11.29l3.08,9.58c0,0-10.27-4.77-22.93-7.87
				s-35.93,0.34-35.93,0.34L111.13,28.8z"/>
			<path class="st68" d="M171.71,30.17c0,0,10.95,4.28,13.35,8.73s2.91,8.9,1.37,13.35s-8.21,6.16-8.21,6.16s4.96-4.96,3.76-12.32
				C180.77,38.72,171.71,30.17,171.71,30.17z"/>
			<path class="st68" d="M63.39,72.95c-1.43,4,18.14-23.96,28.75-28.66s19.16-5.39,26.69-6.25c7.53-0.86,25.15,0,25.15,0
				s-9.75-6.67-15.74-8.9c-5.99-2.22-13.52-3.76-13.52-3.76s7.14,6.84,5.71,7.19c-1.43,0.34-14.95-1.37-23.68,1.88
				S71.78,49.5,63.39,72.95z"/>
		</g>
		<g id="Brown_1_" class="st0">
			<path class="st16" d="M188.13,106.66c0,0,2.74-11.81,3.25-17.11s-1.63-22.76-1.63-22.76s-3.82,2.6-6.76,4.62
				c-3.88,2.67-16.27,5.45-16.27,5.45s8.94,3.32,12.78,9.87C182.3,91.5,188.13,106.66,188.13,106.66z"/>
			<path class="st16" d="M111.13,28.8c0,0-26.58-1.37-42.21,16.08c-15.48,17.29-17.3,24.19-17.3,24.19l3.27,0.22
				c0.44-1.28-3.28,8.84-5.82,19.62c-2.36,10.04,1.83,21.37,1.83,21.37l3.53-10.65c0,0-1.71,18.25,4.56,29.2
				c4.46,7.78,12.19,20.56,13.35,16.77c1.25-4.11,0.46-11.75-0.83-23.82c-0.82-7.76,0.51-13.58,0.51-13.58s20.46-20.15,42.75-26.82
				c23.61-7.07,40.15-5.08,46.66-4.53c6.5,0.54,14.72-0.83,20.88-6.3c6.16-5.48,10.95-11.29,11.98-18.94
				c0.59-4.41-3.76-14.72-11.18-20.08c-5.92-4.28-23.39-11.29-23.39-11.29l3.08,9.58c0,0-10.27-4.77-22.93-7.87
				s-35.93,0.34-35.93,0.34L111.13,28.8z"/>
			<path class="st69" d="M171.71,30.17c0,0,10.95,4.28,13.35,8.73s2.91,8.9,1.37,13.35s-8.21,6.16-8.21,6.16s4.96-4.96,3.76-12.32
				C180.77,38.72,171.71,30.17,171.71,30.17z"/>
			<path class="st69" d="M63.39,72.95c-1.43,4,18.14-23.96,28.75-28.66s19.16-5.39,26.69-6.25c7.53-0.86,25.15,0,25.15,0
				s-9.75-6.67-15.74-8.9c-5.99-2.22-13.52-3.76-13.52-3.76s7.14,6.84,5.71,7.19c-1.43,0.34-14.95-1.37-23.68,1.88
				S71.78,49.5,63.39,72.95z"/>
		</g>
		<g id="Black_1_" class="st0">
			<path class="st70" d="M188.13,106.66c0,0,2.74-11.81,3.25-17.11s-1.63-22.76-1.63-22.76s-3.82,2.6-6.76,4.62
				c-3.88,2.67-16.27,5.45-16.27,5.45s8.94,3.32,12.78,9.87C182.3,91.5,188.13,106.66,188.13,106.66z"/>
			<path class="st70" d="M111.13,28.8c0,0-26.58-1.37-42.21,16.08c-15.48,17.29-17.3,24.19-17.3,24.19l3.27,0.22
				c0.44-1.28-3.28,8.84-5.82,19.62c-2.36,10.04,1.83,21.37,1.83,21.37l3.53-10.65c0,0-1.71,18.25,4.56,29.2
				c4.46,7.78,12.19,20.56,13.35,16.77c1.25-4.11,0.46-11.75-0.83-23.82c-0.82-7.76,0.51-13.58,0.51-13.58s20.46-20.15,42.75-26.82
				c23.61-7.07,40.15-5.08,46.66-4.53c6.5,0.54,14.72-0.83,20.88-6.3c6.16-5.48,10.95-11.29,11.98-18.94
				c0.59-4.41-3.76-14.72-11.18-20.08c-5.92-4.28-23.39-11.29-23.39-11.29l3.08,9.58c0,0-10.27-4.77-22.93-7.87
				s-35.93,0.34-35.93,0.34L111.13,28.8z"/>
			<path class="st71" d="M171.71,30.17c0,0,10.95,4.28,13.35,8.73s2.91,8.9,1.37,13.35s-8.21,6.16-8.21,6.16s4.96-4.96,3.76-12.32
				C180.77,38.72,171.71,30.17,171.71,30.17z"/>
			<path class="st71" d="M63.39,72.95c-1.43,4,18.14-23.96,28.75-28.66s19.16-5.39,26.69-6.25c7.53-0.86,25.15,0,25.15,0
				s-9.75-6.67-15.74-8.9c-5.99-2.22-13.52-3.76-13.52-3.76s7.14,6.84,5.71,7.19c-1.43,0.34-14.95-1.37-23.68,1.88
				S71.78,49.5,63.39,72.95z"/>
		</g>
		<g id="Blue_1_" class="st0">
			<path class="st72" d="M188.13,106.66c0,0,2.74-11.81,3.25-17.11s-1.63-22.76-1.63-22.76s-3.82,2.6-6.76,4.62
				c-3.88,2.67-16.27,5.45-16.27,5.45s8.94,3.32,12.78,9.87C182.3,91.5,188.13,106.66,188.13,106.66z"/>
			<path class="st72" d="M111.13,28.8c0,0-26.58-1.37-42.21,16.08c-15.48,17.29-17.3,24.19-17.3,24.19l3.27,0.22
				c0.44-1.28-3.28,8.84-5.82,19.62c-2.36,10.04,1.83,21.37,1.83,21.37l3.53-10.65c0,0-1.71,18.25,4.56,29.2
				c4.46,7.78,12.19,20.56,13.35,16.77c1.25-4.11,0.46-11.75-0.83-23.82c-0.82-7.76,0.51-13.58,0.51-13.58s20.46-20.15,42.75-26.82
				c23.61-7.07,40.15-5.08,46.66-4.53c6.5,0.54,14.72-0.83,20.88-6.3c6.16-5.48,10.95-11.29,11.98-18.94
				c0.59-4.41-3.76-14.72-11.18-20.08c-5.92-4.28-23.39-11.29-23.39-11.29l3.08,9.58c0,0-10.27-4.77-22.93-7.87
				s-35.93,0.34-35.93,0.34L111.13,28.8z"/>
			<path class="st73" d="M171.71,30.17c0,0,10.95,4.28,13.35,8.73s2.91,8.9,1.37,13.35s-8.21,6.16-8.21,6.16s4.96-4.96,3.76-12.32
				C180.77,38.72,171.71,30.17,171.71,30.17z"/>
			<path class="st73" d="M63.39,72.95c-1.43,4,18.14-23.96,28.75-28.66s19.16-5.39,26.69-6.25c7.53-0.86,25.15,0,25.15,0
				s-9.75-6.67-15.74-8.9c-5.99-2.22-13.52-3.76-13.52-3.76s7.14,6.84,5.71,7.19c-1.43,0.34-14.95-1.37-23.68,1.88
				S71.78,49.5,63.39,72.95z"/>
		</g>
	</g>
	<g id="Style_1">
		<g id="Redhair_1_">
			<path class="st74" d="M190.51,113.93c0,0-2.26-27.24-11.1-37.95c-10.08-12.22-17.48-17.59-31.01-21.74
				c-13.53-4.15-31.73-6.09-54.98-1.84c-19.64,3.59-39.92,21.26-45.82,42.11c-6.98,24.65-5.67,27.35-7.42,38.62
				c-2.05,13.17-0.87,68.29-0.87,68.29l57.82,1.87c0,0-3.32-17.39-8.07-44.42c-4.8-27.27,3.71-51.71,3.71-51.71
				s23.13-16.15,31.85-24.44s17.45-20.03,17.45-20.03s16.15,22.43,28.58,33.77c12.44,11.35,19.85,18.55,19.85,18.55"/>
			<path class="st75" d="M104.33,60.91l18.98-1.53c0,0-5.89,16.36-17.02,25.96S85.57,100.4,87.31,100.4c1.75,0,4.15,0.22,12.65-4.36
				s20.95-18.33,26.4-26.4c5.45-8.07,7.42-11.56,5.45-12.65c-1.96-1.09-11.24-1.53-17.08,0c-5.83,1.53-15.61,4.17-11.51,3.93"/>
			<path class="st75" d="M156.04,64.18c0,0,9.38,9.16,12.22,12.65c2.84,3.49,7.2,11.35,7.85,11.56c0.65,0.22,1.75-3.39-2.18-10.2
				S156.04,64.18,156.04,64.18z"/>
			<path class="st76" d="M68.7,191.53h11.49c0,0-9.75-17.45-9.75-39.13s1.16-48,3.35-59.93c2.18-11.93,2.04-16.5,0-16.5
				c-2.71,0-13.67,27.99-15.71,49.66C56.04,147.31,68.7,191.53,68.7,191.53z"/>
			<path class="st75" d="M73.79,77.27c0,0-8.29,46.25-8.73,62.4s2.84,37.75,4.36,46.25s1.53,10.27,1.53,10.27l-18.98-2
				c0,0-3.05-26.38-2.4-44.93c0.65-18.55,3.27-37.09,9.16-51.49S73.13,72.04,73.79,77.27z"/>
		</g>
		<g id="Blonde">
			<path class="st67" d="M190.51,113.93c0,0-2.26-27.24-11.1-37.95c-10.08-12.22-17.48-17.59-31.01-21.74
				c-13.53-4.15-31.73-6.09-54.98-1.84c-19.64,3.59-39.92,21.26-45.82,42.11c-6.98,24.65-5.67,27.35-7.42,38.62
				c-2.05,13.17-0.87,68.29-0.87,68.29l57.82,1.87c0,0-3.32-17.39-8.07-44.42c-4.8-27.27,3.71-51.71,3.71-51.71
				s23.13-16.15,31.85-24.44s17.45-20.03,17.45-20.03s16.15,22.43,28.58,33.77c12.44,11.35,19.85,18.55,19.85,18.55"/>
			<path class="st68" d="M104.33,60.91l18.98-1.53c0,0-5.89,16.36-17.02,25.96S85.57,100.4,87.31,100.4c1.75,0,4.15,0.22,12.65-4.36
				s20.95-18.33,26.4-26.4c5.45-8.07,7.42-11.56,5.45-12.65c-1.96-1.09-11.24-1.53-17.08,0c-5.83,1.53-15.61,4.17-11.51,3.93"/>
			<path class="st68" d="M156.04,64.18c0,0,9.38,9.16,12.22,12.65c2.84,3.49,7.2,11.35,7.85,11.56c0.65,0.22,1.75-3.39-2.18-10.2
				S156.04,64.18,156.04,64.18z"/>
			<path class="st77" d="M68.7,191.53h11.49c0,0-9.75-17.45-9.75-39.13s1.16-48,3.35-59.93c2.18-11.93,2.04-16.5,0-16.5
				c-2.71,0-13.67,27.99-15.71,49.66C56.04,147.31,68.7,191.53,68.7,191.53z"/>
			<path class="st68" d="M73.79,77.27c0,0-8.29,46.25-8.73,62.4s2.84,37.75,4.36,46.25s1.53,10.27,1.53,10.27l-18.98-2
				c0,0-3.05-26.38-2.4-44.93c0.65-18.55,3.27-37.09,9.16-51.49S73.13,72.04,73.79,77.27z"/>
		</g>
		<g id="Brown">
			<path class="st16" d="M190.51,113.93c0,0-2.26-27.24-11.1-37.95c-10.08-12.22-17.48-17.59-31.01-21.74
				c-13.53-4.15-31.73-6.09-54.98-1.84c-19.64,3.59-39.92,21.26-45.82,42.11c-6.98,24.65-5.67,27.35-7.42,38.62
				c-2.05,13.17-0.87,68.29-0.87,68.29l57.82,1.87c0,0-3.32-17.39-8.07-44.42c-4.8-27.27,3.71-51.71,3.71-51.71
				s23.13-16.15,31.85-24.44s17.45-20.03,17.45-20.03s16.15,22.43,28.58,33.77c12.44,11.35,19.85,18.55,19.85,18.55"/>
			<path class="st69" d="M104.33,60.91l18.98-1.53c0,0-5.89,16.36-17.02,25.96S85.57,100.4,87.31,100.4c1.75,0,4.15,0.22,12.65-4.36
				s20.95-18.33,26.4-26.4c5.45-8.07,7.42-11.56,5.45-12.65c-1.96-1.09-11.24-1.53-17.08,0c-5.83,1.53-15.61,4.17-11.51,3.93"/>
			<path class="st69" d="M156.04,64.18c0,0,9.38,9.16,12.22,12.65c2.84,3.49,7.2,11.35,7.85,11.56c0.65,0.22,1.75-3.39-2.18-10.2
				S156.04,64.18,156.04,64.18z"/>
			<path class="st78" d="M68.7,191.53h11.49c0,0-9.75-17.45-9.75-39.13s1.16-48,3.35-59.93c2.18-11.93,2.04-16.5,0-16.5
				c-2.71,0-13.67,27.99-15.71,49.66C56.04,147.31,68.7,191.53,68.7,191.53z"/>
			<path class="st69" d="M73.79,77.27c0,0-8.29,46.25-8.73,62.4s2.84,37.75,4.36,46.25s1.53,10.27,1.53,10.27l-18.98-2
				c0,0-3.05-26.38-2.4-44.93c0.65-18.55,3.27-37.09,9.16-51.49S73.13,72.04,73.79,77.27z"/>
		</g>
		<g id="Black">
			<path class="st70" d="M190.51,113.93c0,0-2.26-27.24-11.1-37.95c-10.08-12.22-17.48-17.59-31.01-21.74
				c-13.53-4.15-31.73-6.09-54.98-1.84c-19.64,3.59-39.92,21.26-45.82,42.11c-6.98,24.65-5.67,27.35-7.42,38.62
				c-2.05,13.17-0.87,68.29-0.87,68.29l57.82,1.87c0,0-3.32-17.39-8.07-44.42c-4.8-27.27,3.71-51.71,3.71-51.71
				s23.13-16.15,31.85-24.44s17.45-20.03,17.45-20.03s16.15,22.43,28.58,33.77c12.44,11.35,19.85,18.55,19.85,18.55"/>
			<path class="st71" d="M104.33,60.91l18.98-1.53c0,0-5.89,16.36-17.02,25.96S85.57,100.4,87.31,100.4c1.75,0,4.15,0.22,12.65-4.36
				s20.95-18.33,26.4-26.4c5.45-8.07,7.42-11.56,5.45-12.65c-1.96-1.09-11.24-1.53-17.08,0c-5.83,1.53-15.61,4.17-11.51,3.93"/>
			<path class="st71" d="M156.04,64.18c0,0,9.38,9.16,12.22,12.65c2.84,3.49,7.2,11.35,7.85,11.56c0.65,0.22,1.75-3.39-2.18-10.2
				S156.04,64.18,156.04,64.18z"/>
			<path class="st79" d="M68.7,191.53h11.49c0,0-9.75-17.45-9.75-39.13s1.16-48,3.35-59.93c2.18-11.93,2.04-16.5,0-16.5
				c-2.71,0-13.67,27.99-15.71,49.66C56.04,147.31,68.7,191.53,68.7,191.53z"/>
			<path class="st71" d="M73.79,77.27c0,0-8.29,46.25-8.73,62.4s2.84,37.75,4.36,46.25s1.53,10.27,1.53,10.27l-18.98-2
				c0,0-3.05-26.38-2.4-44.93c0.65-18.55,3.27-37.09,9.16-51.49S73.13,72.04,73.79,77.27z"/>
		</g>
		<g id="Blue" class="st1">
			<path class="st12" d="M190.51,113.93c0,0-2.26-27.24-11.1-37.95c-10.08-12.22-17.48-17.59-31.01-21.74
				c-13.53-4.15-31.73-6.09-54.98-1.84c-19.64,3.59-39.92,21.26-45.82,42.11c-6.98,24.65-5.67,27.35-7.42,38.62
				c-2.05,13.17-0.87,68.29-0.87,68.29l57.82,1.87c0,0-3.32-17.39-8.07-44.42c-4.8-27.27,3.71-51.71,3.71-51.71
				s23.13-16.15,31.85-24.44s17.45-20.03,17.45-20.03s16.15,22.43,28.58,33.77c12.44,11.35,19.85,18.55,19.85,18.55"/>
			<path class="st13" d="M104.33,60.91l18.98-1.53c0,0-5.89,16.36-17.02,25.96S85.57,100.4,87.31,100.4c1.75,0,4.15,0.22,12.65-4.36
				s20.95-18.33,26.4-26.4c5.45-8.07,7.42-11.56,5.45-12.65c-1.96-1.09-11.24-1.53-17.08,0c-5.83,1.53-15.61,4.17-11.51,3.93"/>
			<path class="st13" d="M156.04,64.18c0,0,9.38,9.16,12.22,12.65c2.84,3.49,7.2,11.35,7.85,11.56c0.65,0.22,1.75-3.39-2.18-10.2
				S156.04,64.18,156.04,64.18z"/>
			<path class="st14" d="M68.7,191.53h11.49c0,0-9.75-17.45-9.75-39.13s1.16-48,3.35-59.93c2.18-11.93,2.04-16.5,0-16.5
				c-2.71,0-13.67,27.99-15.71,49.66C56.04,147.31,68.7,191.53,68.7,191.53z"/>
			<path class="st13" d="M73.79,77.27c0,0-8.29,46.25-8.73,62.4s2.84,37.75,4.36,46.25s1.53,10.27,1.53,10.27l-18.98-2
				c0,0-3.05-26.38-2.4-44.93c0.65-18.55,3.27-37.09,9.16-51.49S73.13,72.04,73.79,77.27z"/>
		</g>
	</g>
</g>
</svg>
