<?xml version="1.0" encoding="utf-8"?>
<!-- Generator: Adobe Illustrator 23.0.3, SVG Export Plug-In . SVG Version: 6.00 Build 0)  -->
<svg version="1.1" xmlns="http://www.w3.org/2000/svg" xmlns:xlink="http://www.w3.org/1999/xlink" x="0px" y="0px"
	 viewBox="0 0 250 325" style="enable-background:new 0 0 250 325;" xml:space="preserve">
<style type="text/css">
	.st0{display:none;}
	.st1{display:inline;}
	.st2{fill:#9B614E;stroke:#6F4636;stroke-width:3;stroke-miterlimit:10;}
	.st3{opacity:0.5;fill:#6F4636;}
	.st4{display:inline;fill:#9B614E;stroke:#6F4636;stroke-width:3;stroke-miterlimit:10;}
	.st5{fill:#F29220;}
	.st6{fill:#FFDC74;}
	.st7{fill:#F6B41A;}
	.st8{fill:none;stroke:#F29220;stroke-width:4;stroke-miterlimit:10;}
	
		.st9{display:inline;opacity:0.5;fill:none;stroke:#3F291B;stroke-width:2;stroke-linecap:round;stroke-linejoin:round;stroke-miterlimit:10;}
	
		.st10{display:inline;opacity:0.5;fill:none;stroke:#3F291B;stroke-width:3;stroke-linecap:round;stroke-linejoin:round;stroke-miterlimit:10;}
	.st11{display:inline;fill:none;stroke:#3F291B;stroke-width:3;stroke-linecap:round;stroke-linejoin:round;stroke-miterlimit:10;}
	.st12{fill:#003F53;}
	.st13{fill:#07698D;}
	.st14{fill:#038AB8;}
	.st15{display:inline;fill:#3F291B;}
	.st16{display:inline;fill:#BD4127;}
	.st17{display:inline;fill:#F16022;}
	.st18{display:inline;fill:#876427;}
	.st19{display:inline;fill:#B1862D;}
	.st20{display:inline;fill:#5B2C2A;}
	.st21{display:inline;fill:#8D4F4A;}
	.st22{display:inline;fill:#212222;}
	.st23{fill:#003241;}
	.st24{fill:#876427;}
	.st25{fill:#5B2C2A;}
	.st26{fill:#231F20;}
	.st27{fill:#BD4127;}
	.st28{display:inline;fill:#003241;}
	.st29{fill:#BC4026;}
	.st30{fill:#876326;}
	.st31{display:none;fill:#876326;}
	.st32{display:none;fill:#5B2C2A;}
	.st33{display:none;fill:#003241;}
	.st34{display:inline;opacity:0.5;fill:#512927;}
	.st35{display:inline;fill:none;stroke:#512927;stroke-width:3;stroke-miterlimit:10;}
	.st36{display:inline;fill:#C79B82;}
	.st37{display:inline;opacity:0.2;fill:#401A0F;}
	.st38{display:inline;fill:none;stroke:#846451;stroke-width:3;stroke-miterlimit:10;}
	.st39{display:inline;fill:#B17F4C;}
	.st40{display:inline;opacity:0.5;fill:#6F4636;}
	.st41{display:inline;fill:none;stroke:#795635;stroke-width:3;stroke-miterlimit:10;}
	.st42{display:inline;fill:#846141;}
	.st43{display:inline;fill:none;stroke:#62462F;stroke-width:3;stroke-miterlimit:10;}
	.st44{display:inline;fill:#9B614E;}
	.st45{display:inline;fill:none;stroke:#6F4636;stroke-width:3;stroke-miterlimit:10;}
	.st46{display:inline;fill:#F7D5A8;}
	.st47{display:inline;opacity:0.25;fill:#9B8063;}
	.st48{display:inline;fill:none;stroke:#9B8063;stroke-width:3;stroke-miterlimit:10;}
	.st49{display:inline;fill:#75595A;}
	.st50{display:inline;opacity:0.3;fill:#401A0F;}
	.st51{display:inline;fill:none;stroke:#402A1C;stroke-width:3;stroke-miterlimit:10;}
	.st52{fill:#F2CCAF;}
	.st53{opacity:0.5;fill:#E2A479;}
	.st54{fill:none;stroke:#E2A479;stroke-width:3;stroke-miterlimit:10;}
	.st55{opacity:0.3;fill:#401A0F;}
	.st56{opacity:0.15;fill:#401A0F;}
	.st57{display:none;opacity:0.15;fill:#401A0F;}
	.st58{display:inline;fill:#174994;}
	.st59{display:inline;fill:#56CBF5;}
	.st60{display:inline;fill:#00A5DC;}
	.st61{display:inline;fill:none;stroke:#174994;stroke-width:4;stroke-miterlimit:10;}
	.st62{display:inline;fill:#006635;}
	.st63{display:inline;fill:#51BC7D;}
	.st64{display:inline;fill:#009348;}
	.st65{display:inline;fill:none;stroke:#006635;stroke-width:4;stroke-miterlimit:10;}
	.st66{display:inline;fill:#814698;}
	.st67{display:inline;fill:#CBAAD1;}
	.st68{display:inline;fill:#AC7AB5;}
	.st69{display:inline;fill:none;stroke:#814698;stroke-width:4;stroke-miterlimit:10;}
	.st70{display:inline;fill:#EF4823;}
	.st71{display:inline;fill:#F9AC99;}
	.st72{display:inline;fill:#F37555;}
	.st73{display:inline;fill:none;stroke:#EF4823;stroke-width:4;stroke-miterlimit:10;}
	.st74{fill:none;stroke:#683C34;stroke-width:3;stroke-linecap:round;stroke-linejoin:round;stroke-miterlimit:10;}
	.st75{fill:none;stroke:#846350;stroke-width:3;stroke-linecap:round;stroke-linejoin:round;stroke-miterlimit:10;}
	.st76{fill:none;stroke:#785434;stroke-width:3;stroke-linecap:round;stroke-linejoin:round;stroke-miterlimit:10;}
	.st77{fill:none;stroke:#62452F;stroke-width:3;stroke-linecap:round;stroke-linejoin:round;stroke-miterlimit:10;}
	.st78{fill:none;stroke:#6D4635;stroke-width:3;stroke-linecap:round;stroke-linejoin:round;stroke-miterlimit:10;}
	.st79{fill:none;stroke:#D5AB7A;stroke-width:3;stroke-linecap:round;stroke-linejoin:round;stroke-miterlimit:10;}
	.st80{fill:none;stroke:#5A413B;stroke-width:3;stroke-linecap:round;stroke-linejoin:round;stroke-miterlimit:10;}
	.st81{display:inline;fill:none;stroke:#CC9D7C;stroke-width:3;stroke-linecap:round;stroke-linejoin:round;stroke-miterlimit:10;}
	.st82{fill:none;stroke:#3F291B;stroke-width:3;stroke-linecap:round;stroke-linejoin:round;stroke-miterlimit:10;}
	.st83{fill:none;stroke:#9B8063;stroke-width:3;stroke-linecap:round;stroke-linejoin:round;stroke-miterlimit:10;}
	.st84{display:inline;fill:none;stroke:#A36A45;stroke-width:3;stroke-linecap:round;stroke-linejoin:round;stroke-miterlimit:10;}
	.st85{display:inline;fill:none;stroke:#3F291B;stroke-width:2;stroke-linecap:round;stroke-linejoin:round;stroke-miterlimit:10;}
	.st86{display:inline;fill:none;stroke:#5C3A2B;stroke-width:2;stroke-linecap:round;stroke-linejoin:round;stroke-miterlimit:10;}
	.st87{display:inline;fill:none;stroke:#222222;stroke-width:2;stroke-linecap:round;stroke-linejoin:round;stroke-miterlimit:10;}
	.st88{fill:none;stroke:#845637;stroke-width:2;stroke-linecap:round;stroke-linejoin:round;stroke-miterlimit:10;}
	.st89{fill:none;stroke:#014D66;stroke-width:2;stroke-linecap:round;stroke-linejoin:round;stroke-miterlimit:10;}
	.st90{fill:#F16022;}
	.st91{fill:#F89C66;}
	.st92{display:inline;fill:#CA992C;}
	.st93{display:inline;fill:#B3726C;}
	.st94{display:inline;fill:#444445;}
	.st95{display:inline;fill:#FBB68B;}
	.st96{display:inline;fill:#F89C66;}
	.st97{display:inline;fill:#E4AC23;}
	.st98{display:inline;fill:#CA9C99;}
	.st99{display:inline;fill:#787878;}
	.st100{fill:#038AB8;stroke:#003F53;stroke-linecap:round;stroke-linejoin:round;stroke-miterlimit:10;}
	.st101{fill:#07698D;stroke:#003F53;stroke-linecap:round;stroke-linejoin:round;stroke-miterlimit:10;}
	.st102{display:inline;fill:#FFDC74;}
	.st103{display:inline;fill:#003F53;}
	.st104{display:inline;fill:#07698D;}
	.st105{display:inline;fill:#038AB8;}
</style>
<g id="example" class="st0">
	<g class="st1">
		<path class="st2" d="M137.11,221.7h-27.29c-2.2,0-4-1.8-4-4v-23.42c0-2.2,1.8-4,4-4h27.29c2.2,0,4,1.8,4,4v23.42
			C141.11,219.9,139.31,221.7,137.11,221.7z"/>
		<path class="st3" d="M108.15,210.87l31.98-4.47c0,0,1.53-15.41,0-15.63s-33.36,0.1-33.36,0.1l0.01,20"/>
	</g>
	<path class="st4" d="M125.95,56.7c-33.48,0-61.01,29.09-64.25,66.34c-6.79,1.54-11.94,8.95-11.94,17.87
		c0,10.04,6.51,18.18,14.55,18.18c0.7,0,1.39-0.08,2.06-0.2c9.76,26.58,32.76,45.25,59.58,45.25c35.66,0,64.58-33.01,64.58-73.73
		C190.52,89.71,161.61,56.7,125.95,56.7z"/>
	<g class="st1">
		<path class="st5" d="M146.24,238.69h-47c-2.2,0-4-1.8-4-4v-16.3c0-2.2,1.8-4,4-4h47c2.2,0,4,1.8,4,4v16.3
			C150.24,236.89,148.44,238.69,146.24,238.69z"/>
		<path class="st5" d="M205.22,272.47c0,28.08-35.85,18.42-80.07,18.42s-80.07,9.66-80.07-18.42s35.85-44.84,80.07-44.84
			S205.22,244.4,205.22,272.47z"/>
		<path class="st6" d="M159.67,229.79c0,0,40.32,17.7,42.06,32.54c1.57,13.31,4.96,18.23-9.02,24.15
			c-13.98,5.91-23.56,4.5-23.56,4.5l-23.56-49.88L159.67,229.79z"/>
		<path class="st7" d="M103.53,231.93c0,0-16.61,20.95-8.3,32.73c8.32,11.78,37.04,26.32,37.04,26.32h45.02
			c0,0,10.91-3.63,6.98-25.44c-3.93-21.82-15.6-30.63-29.62-35.17C140.64,225.82,103.53,231.93,103.53,231.93z"/>
		<path class="st8" d="M205.22,272.47c0,28.08-35.85,18.42-80.07,18.42s-80.07,9.66-80.07-18.42s35.85-44.84,80.07-44.84
			S205.22,244.4,205.22,272.47z"/>
	</g>
	<path class="st9" d="M130.3,107.87c-7.25-1.95-15.2,0.34-19.78,6.41"/>
	<path class="st9" d="M162.52,107.87c7.25-1.95,15.2,0.34,19.78,6.41"/>
	<path class="st10" d="M162.6,155.27c-4.05-5.72-9.9-4.38-12.6,0"/>
	<path class="st11" d="M136.96,176.16c6.34,6.34,16.6,6.34,22.95,0"/>
	<g class="st1">
		<path class="st12" d="M190.51,113.93c0,0-2.26-27.24-11.1-37.95c-10.08-12.22-17.48-17.59-31.01-21.74
			c-13.53-4.15-31.73-6.09-54.98-1.84c-19.64,3.59-39.92,21.26-45.82,42.11c-6.98,24.65-5.67,27.35-7.42,38.62
			c-2.05,13.17-0.87,68.29-0.87,68.29l57.82,1.87c0,0-3.32-17.39-8.07-44.42c-4.8-27.27,3.71-51.71,3.71-51.71
			s23.13-16.15,31.85-24.44s17.45-20.03,17.45-20.03s16.15,22.43,28.58,33.77c12.44,11.35,19.85,18.55,19.85,18.55"/>
		<path class="st13" d="M104.33,60.91l18.98-1.53c0,0-5.89,16.36-17.02,25.96S85.57,100.4,87.31,100.4c1.75,0,4.15,0.22,12.65-4.36
			s20.95-18.33,26.4-26.4c5.45-8.07,7.42-11.56,5.45-12.65c-1.96-1.09-11.24-1.53-17.08,0c-5.83,1.53-15.61,4.17-11.51,3.93"/>
		<path class="st13" d="M156.04,64.18c0,0,9.38,9.16,12.22,12.65c2.84,3.49,7.2,11.35,7.85,11.56c0.65,0.22,1.75-3.39-2.18-10.2
			S156.04,64.18,156.04,64.18z"/>
		<path class="st14" d="M68.7,191.53h11.49c0,0-9.75-17.45-9.75-39.13s1.16-48,3.35-59.93c2.18-11.93,2.04-16.5,0-16.5
			c-2.71,0-13.67,27.99-15.71,49.66C56.04,147.31,68.7,191.53,68.7,191.53z"/>
		<path class="st13" d="M73.79,77.27c0,0-8.29,46.25-8.73,62.4s2.84,37.75,4.36,46.25s1.53,10.27,1.53,10.27l-18.98-2
			c0,0-3.05-26.38-2.4-44.93c0.65-18.55,3.27-37.09,9.16-51.49S73.13,72.04,73.79,77.27z"/>
	</g>
	<ellipse class="st15" cx="125.77" cy="129.16" rx="5.38" ry="6.18"/>
	<ellipse class="st15" cx="173.77" cy="129.16" rx="5.38" ry="6.18"/>
</g>
<g id="hairBehind">
	<g id="Style_6" class="st0">
		<g id="Redhair_13_">
			<polygon class="st16" points="69.4,184.45 87.6,216.74 169.93,218.4 168.39,179.79 			"/>
			<polygon class="st17" points="182.3,156.52 188.44,223.54 153.22,223.54 152.17,161.19 			"/>
		</g>
		<g id="Blonde_13_">
			<polygon class="st18" points="69.4,184.45 87.6,216.74 169.93,218.4 168.39,179.79 			"/>
			<polygon class="st19" points="182.3,156.52 188.44,223.54 153.22,223.54 152.17,161.19 			"/>
		</g>
		<g id="Brown_13_">
			<polygon class="st20" points="69.4,184.45 87.6,216.74 169.93,218.4 168.39,179.79 			"/>
			<polygon class="st21" points="182.3,156.52 188.44,223.54 153.22,223.54 152.17,161.19 			"/>
		</g>
		<g id="Black_11_">
			<polygon class="st1" points="69.4,184.45 87.6,216.74 169.93,218.4 168.39,179.79 			"/>
			<polygon class="st22" points="182.3,156.52 188.44,223.54 153.22,223.54 152.17,161.19 			"/>
		</g>
		<g id="Blue_11_" class="st1">
			<polygon class="st23" points="69.4,184.45 87.6,216.74 169.93,218.4 168.39,179.79 			"/>
			<polygon class="st12" points="182.3,156.52 188.44,223.54 153.22,223.54 152.17,161.19 			"/>
		</g>
	</g>
	<g id="Style_5" class="st0">
		<path id="Redhair_9_" class="st16" d="M49.76,59.65c-1.72,0-16.56,14.55-19.47,21.53s-4.07,18.69-3.2,29.56
			c0.87,10.87,4.95,24.25,4.07,36.18s-3.55,23.96-4.36,31.62s2.32,17.69,5.52,25.62c3.2,7.93,19.49,28.72,19.49,28.72
			s-2.62-17.3,0-26.03c2.62-8.73,6.11-15.42,9.31-21.82c3.2-6.4,7.04-6.47,7.88-19.82c0.85-13.35-4.1-43.89-4.39-62.22
			s0.25-25.56-2.95-34.29c-3.2-8.73-4.33-13.13-10.72-9.06"/>
		<path id="Blonde_12_" class="st24" d="M49.76,59.65c-1.72,0-16.56,14.55-19.47,21.53s-4.07,18.69-3.2,29.56
			c0.87,10.87,4.95,24.25,4.07,36.18s-3.55,23.96-4.36,31.62s2.32,17.69,5.52,25.62c3.2,7.93,19.49,28.72,19.49,28.72
			s-2.62-17.3,0-26.03c2.62-8.73,6.11-15.42,9.31-21.82c3.2-6.4,7.04-6.47,7.88-19.82c0.85-13.35-4.1-43.89-4.39-62.22
			s0.25-25.56-2.95-34.29c-3.2-8.73-4.33-13.13-10.72-9.06"/>
		<path id="Brown_11_" class="st25" d="M49.76,59.65c-1.72,0-16.56,14.55-19.47,21.53s-4.07,18.69-3.2,29.56
			c0.87,10.87,4.95,24.25,4.07,36.18s-3.55,23.96-4.36,31.62s2.32,17.69,5.52,25.62c3.2,7.93,19.49,28.72,19.49,28.72
			s-2.62-17.3,0-26.03c2.62-8.73,6.11-15.42,9.31-21.82c3.2-6.4,7.04-6.47,7.88-19.82c0.85-13.35-4.1-43.89-4.39-62.22
			s0.25-25.56-2.95-34.29c-3.2-8.73-4.33-13.13-10.72-9.06"/>
		<path id="Black_9_" class="st26" d="M49.76,59.65c-1.72,0-16.56,14.55-19.47,21.53s-4.07,18.69-3.2,29.56
			c0.87,10.87,4.95,24.25,4.07,36.18s-3.55,23.96-4.36,31.62s2.32,17.69,5.52,25.62c3.2,7.93,19.49,28.72,19.49,28.72
			s-2.62-17.3,0-26.03c2.62-8.73,6.11-15.42,9.31-21.82c3.2-6.4,7.04-6.47,7.88-19.82c0.85-13.35-4.1-43.89-4.39-62.22
			s0.25-25.56-2.95-34.29c-3.2-8.73-4.33-13.13-10.72-9.06"/>
		<path id="Blue_8_" class="st23" d="M49.76,59.65c-1.72,0-16.56,14.55-19.47,21.53s-4.07,18.69-3.2,29.56
			c0.87,10.87,4.95,24.25,4.07,36.18s-3.55,23.96-4.36,31.62s2.32,17.69,5.52,25.62c3.2,7.93,19.49,28.72,19.49,28.72
			s-2.62-17.3,0-26.03c2.62-8.73,6.11-15.42,9.31-21.82c3.2-6.4,7.04-6.47,7.88-19.82c0.85-13.35-4.1-43.89-4.39-62.22
			s0.25-25.56-2.95-34.29c-3.2-8.73-4.33-13.13-10.72-9.06"/>
	</g>
	<g id="Style_4" class="st0">
		<path id="Redhair_10_" class="st27" d="M184.07,74.19c0,0,8.84,8.44,11.75,15.42c2.91,6.98,4.95,10.07,1.45,24.67
			c-3.49,14.6-2.91,26.01-0.58,37.18c2.33,11.17,10.18,11.85,9.02,27.07c-1.16,15.22-2.04,19.14-6.11,25.62
			c-4.07,6.47-4.65,11.71-4.65,19.27c0,7.56,2.03,14.88-4.43,16.29s-8.23-4.95-8.23-4.95s2.76,1.75-5.97,3.2
			c-8.73,1.45-33.45-4.95-38.11-10.76c-4.65-5.82-2.52-53.93-1.26-70.6s10.66-67.87,19.34-76.31S184.07,74.19,184.07,74.19"/>
		<path id="Blonde_8_" class="st24" d="M184.07,74.19c0,0,8.84,8.44,11.75,15.42c2.91,6.98,4.95,10.07,1.45,24.67
			c-3.49,14.6-2.91,26.01-0.58,37.18c2.33,11.17,10.18,11.85,9.02,27.07c-1.16,15.22-2.04,19.14-6.11,25.62
			c-4.07,6.47-4.65,11.71-4.65,19.27c0,7.56,2.03,14.88-4.43,16.29s-8.23-4.95-8.23-4.95s2.76,1.75-5.97,3.2
			c-8.73,1.45-33.45-4.95-38.11-10.76c-4.65-5.82-2.52-53.93-1.26-70.6s10.66-67.87,19.34-76.31S184.07,74.19,184.07,74.19"/>
		<path id="Brown_8_" class="st25" d="M184.07,74.19c0,0,8.84,8.44,11.75,15.42c2.91,6.98,4.95,10.07,1.45,24.67
			c-3.49,14.6-2.91,26.01-0.58,37.18c2.33,11.17,10.18,11.85,9.02,27.07c-1.16,15.22-2.04,19.14-6.11,25.62
			c-4.07,6.47-4.65,11.71-4.65,19.27c0,7.56,2.03,14.88-4.43,16.29s-8.23-4.95-8.23-4.95s2.76,1.75-5.97,3.2
			c-8.73,1.45-33.45-4.95-38.11-10.76c-4.65-5.82-2.52-53.93-1.26-70.6s10.66-67.87,19.34-76.31S184.07,74.19,184.07,74.19"/>
		<path id="Black_7_" class="st26" d="M184.07,74.19c0,0,8.84,8.44,11.75,15.42c2.91,6.98,4.95,10.07,1.45,24.67
			c-3.49,14.6-2.91,26.01-0.58,37.18c2.33,11.17,10.18,11.85,9.02,27.07c-1.16,15.22-2.04,19.14-6.11,25.62
			c-4.07,6.47-4.65,11.71-4.65,19.27c0,7.56,2.03,14.88-4.43,16.29s-8.23-4.95-8.23-4.95s2.76,1.75-5.97,3.2
			c-8.73,1.45-33.45-4.95-38.11-10.76c-4.65-5.82-2.52-53.93-1.26-70.6s10.66-67.87,19.34-76.31S184.07,74.19,184.07,74.19"/>
		<path id="Blue_7_" class="st28" d="M184.07,74.19c0,0,8.84,8.44,11.75,15.42c2.91,6.98,4.95,10.07,1.45,24.67
			c-3.49,14.6-2.91,26.01-0.58,37.18c2.33,11.17,10.18,11.85,9.02,27.07c-1.16,15.22-2.04,19.14-6.11,25.62
			c-4.07,6.47-4.65,11.71-4.65,19.27c0,7.56,2.03,14.88-4.43,16.29s-8.23-4.95-8.23-4.95s2.76,1.75-5.97,3.2
			c-8.73,1.45-33.45-4.95-38.11-10.76c-4.65-5.82-2.52-53.93-1.26-70.6s10.66-67.87,19.34-76.31S184.07,74.19,184.07,74.19"/>
	</g>
	<g id="Style_3_2_" class="st0">
		<path id="Redhair_4_" class="st29" d="M172.57,71.28c0,0,8.22,4.95,9.7,14.84s3.5,39.27-2.18,53.82
			c-5.68,14.55-9.53,25.89-8.53,34.62c1,8.73,2.31,12.51,6.07,16.58c3.76,4.07,8.17,5.53,6.11,10.47
			c-2.06,4.95-9.74,8.47-23.36,8.31c-13.61-0.16-15.65,0.27-28.16-5.76s-7.45-47.34-3.29-62.18s5.57-62.55,10.83-69.24
			c5.26-6.69,12.56-8.44,17.93-7.56S172.57,71.28,172.57,71.28"/>
		<path id="Blonde_5_" class="st30" d="M172.57,71.28c0,0,8.22,4.95,9.7,14.84s3.5,39.27-2.18,53.82
			c-5.68,14.55-9.53,25.89-8.53,34.62c1,8.73,2.31,12.51,6.07,16.58c3.76,4.07,8.17,5.53,6.11,10.47
			c-2.06,4.95-9.74,8.47-23.36,8.31c-13.61-0.16-15.65,0.27-28.16-5.76s-7.45-47.34-3.29-62.18s5.57-62.55,10.83-69.24
			c5.26-6.69,12.56-8.44,17.93-7.56S172.57,71.28,172.57,71.28"/>
		<path id="Brown_5_" class="st25" d="M172.57,71.28c0,0,8.22,4.95,9.7,14.84s3.5,39.27-2.18,53.82
			c-5.68,14.55-9.53,25.89-8.53,34.62c1,8.73,2.31,12.51,6.07,16.58c3.76,4.07,8.17,5.53,6.11,10.47
			c-2.06,4.95-9.74,8.47-23.36,8.31c-13.61-0.16-15.65,0.27-28.16-5.76s-7.45-47.34-3.29-62.18s5.57-62.55,10.83-69.24
			c5.26-6.69,12.56-8.44,17.93-7.56S172.57,71.28,172.57,71.28"/>
		<path id="Black_5_" d="M172.57,71.28c0,0,8.22,4.95,9.7,14.84s3.5,39.27-2.18,53.82c-5.68,14.55-9.53,25.89-8.53,34.62
			c1,8.73,2.31,12.51,6.07,16.58c3.76,4.07,8.17,5.53,6.11,10.47c-2.06,4.95-9.74,8.47-23.36,8.31
			c-13.61-0.16-15.65,0.27-28.16-5.76s-7.45-47.34-3.29-62.18s5.57-62.55,10.83-69.24c5.26-6.69,12.56-8.44,17.93-7.56
			S172.57,71.28,172.57,71.28"/>
		<path id="Blue_3_" class="st28" d="M172.57,71.28c0,0,8.22,4.95,9.7,14.84s3.5,39.27-2.18,53.82
			c-5.68,14.55-9.53,25.89-8.53,34.62c1,8.73,2.31,12.51,6.07,16.58c3.76,4.07,8.17,5.53,6.11,10.47
			c-2.06,4.95-9.74,8.47-23.36,8.31c-13.61-0.16-15.65,0.27-28.16-5.76s-7.45-47.34-3.29-62.18s5.57-62.55,10.83-69.24
			c5.26-6.69,12.56-8.44,17.93-7.56S172.57,71.28,172.57,71.28"/>
	</g>
	<g id="Style_2_3_">
		<path id="Redhair_3_" class="st29" d="M172.41,102.26c1.14,2.99,23.41,143.56,18.1,148.8s-4.87,3.93-13.16,3.05
			s-31.85-6.11-33.6-11.35c-1.75-5.24-2.62-56.52-1.75-61.86s10.04-16.25,11.78-23.23C155.53,150.7,166.59,86.99,172.41,102.26z"/>
		<path id="Blonde_4_" class="st31" d="M172.41,102.26c1.14,2.99,23.41,143.56,18.1,148.8s-4.87,3.93-13.16,3.05
			s-31.85-6.11-33.6-11.35c-1.75-5.24-2.62-56.52-1.75-61.86s10.04-16.25,11.78-23.23C155.53,150.7,166.59,86.99,172.41,102.26z"/>
		<path id="Brown_4_" class="st32" d="M172.41,102.26c1.14,2.99,23.41,143.56,18.1,148.8s-4.87,3.93-13.16,3.05
			s-31.85-6.11-33.6-11.35c-1.75-5.24-2.62-56.52-1.75-61.86s10.04-16.25,11.78-23.23C155.53,150.7,166.59,86.99,172.41,102.26z"/>
		<path id="Black_4_" class="st0" d="M172.41,102.26c1.14,2.99,23.41,143.56,18.1,148.8s-4.87,3.93-13.16,3.05
			s-31.85-6.11-33.6-11.35c-1.75-5.24-2.62-56.52-1.75-61.86s10.04-16.25,11.78-23.23C155.53,150.7,166.59,86.99,172.41,102.26z"/>
		<path id="Blue_4_" class="st33" d="M172.41,102.26c1.14,2.99,23.41,143.56,18.1,148.8s-4.87,3.93-13.16,3.05
			s-31.85-6.11-33.6-11.35c-1.75-5.24-2.62-56.52-1.75-61.86s10.04-16.25,11.78-23.23C155.53,150.7,166.59,86.99,172.41,102.26z"/>
	</g>
</g>
<g id="Neck" class="st0">
	<g id="_x38__1_">
		<path id="fill_20_" class="st21" d="M137.11,221.7h-27.29c-2.2,0-4-1.8-4-4v-23.42c0-2.2,1.8-4,4-4h27.29c2.2,0,4,1.8,4,4v23.42
			C141.11,219.9,139.31,221.7,137.11,221.7z"/>
		<path id="shadow_7_" class="st34" d="M108.15,210.87l31.98-4.47c0,0,1.53-15.41,0-15.63s-33.36,0.1-33.36,0.1l0.01,20"/>
		<path id="stroke_17_" class="st35" d="M137.11,221.7h-27.29c-2.2,0-4-1.8-4-4v-23.42c0-2.2,1.8-4,4-4h27.29c2.2,0,4,1.8,4,4v23.42
			C141.11,219.9,139.31,221.7,137.11,221.7z"/>
	</g>
	<g id="_x37__1_">
		<path id="fill_17_" class="st36" d="M137.11,221.7h-27.29c-2.2,0-4-1.8-4-4v-23.42c0-2.2,1.8-4,4-4h27.29c2.2,0,4,1.8,4,4v23.42
			C141.11,219.9,139.31,221.7,137.11,221.7z"/>
		<path id="shadow_6_" class="st37" d="M108.15,210.87l31.98-4.47c0,0,1.53-15.41,0-15.63s-33.36,0.1-33.36,0.1l0.01,20"/>
		<path id="stroke_14_" class="st38" d="M137.11,221.7h-27.29c-2.2,0-4-1.8-4-4v-23.42c0-2.2,1.8-4,4-4h27.29c2.2,0,4,1.8,4,4v23.42
			C141.11,219.9,139.31,221.7,137.11,221.7z"/>
	</g>
	<g id="_x36__1_">
		<path id="fill_14_" class="st39" d="M137.11,221.7h-27.29c-2.2,0-4-1.8-4-4v-23.42c0-2.2,1.8-4,4-4h27.29c2.2,0,4,1.8,4,4v23.42
			C141.11,219.9,139.31,221.7,137.11,221.7z"/>
		<path id="shadow_5_" class="st40" d="M108.15,210.87l31.98-4.47c0,0,1.53-15.41,0-15.63s-33.36,0.1-33.36,0.1l0.01,20"/>
		<path id="stroke_11_" class="st41" d="M137.11,221.7h-27.29c-2.2,0-4-1.8-4-4v-23.42c0-2.2,1.8-4,4-4h27.29c2.2,0,4,1.8,4,4v23.42
			C141.11,219.9,139.31,221.7,137.11,221.7z"/>
	</g>
	<g id="_x35__1_">
		<path id="fill_11_" class="st42" d="M137.11,221.7h-27.29c-2.2,0-4-1.8-4-4v-23.42c0-2.2,1.8-4,4-4h27.29c2.2,0,4,1.8,4,4v23.42
			C141.11,219.9,139.31,221.7,137.11,221.7z"/>
		<path id="shadow_4_" class="st40" d="M108.15,210.87l31.98-4.47c0,0,1.53-15.41,0-15.63s-33.36,0.1-33.36,0.1l0.01,20"/>
		<path id="stroke_9_" class="st43" d="M137.11,221.7h-27.29c-2.2,0-4-1.8-4-4v-23.42c0-2.2,1.8-4,4-4h27.29c2.2,0,4,1.8,4,4v23.42
			C141.11,219.9,139.31,221.7,137.11,221.7z"/>
	</g>
	<g id="_x34__2_">
		<path id="fill_4_" class="st44" d="M137.11,221.7h-27.29c-2.2,0-4-1.8-4-4v-23.42c0-2.2,1.8-4,4-4h27.29c2.2,0,4,1.8,4,4v23.42
			C141.11,219.9,139.31,221.7,137.11,221.7z"/>
		<path id="shadow_1_" class="st40" d="M108.15,210.87l31.98-4.47c0,0,1.53-15.41,0-15.63s-33.36,0.1-33.36,0.1l0.01,20"/>
		<path id="stroke_3_" class="st45" d="M137.11,221.7h-27.29c-2.2,0-4-1.8-4-4v-23.42c0-2.2,1.8-4,4-4h27.29c2.2,0,4,1.8,4,4v23.42
			C141.11,219.9,139.31,221.7,137.11,221.7z"/>
	</g>
	<g id="_x33__1_">
		<path id="fill_5_" class="st46" d="M137.11,221.7h-27.29c-2.2,0-4-1.8-4-4v-23.42c0-2.2,1.8-4,4-4h27.29c2.2,0,4,1.8,4,4v23.42
			C141.11,219.9,139.31,221.7,137.11,221.7z"/>
		<path id="shadow_2_" class="st47" d="M107.65,210.87l31.98-4.47c0,0,0.14-15.63-0.36-15.63c-1.54,0-32,0.1-32,0.1l0.01,20"/>
		<path id="stroke_4_" class="st48" d="M137.11,221.7h-27.29c-2.2,0-4-1.8-4-4v-23.42c0-2.2,1.8-4,4-4h27.29c2.2,0,4,1.8,4,4v23.42
			C141.11,219.9,139.31,221.7,137.11,221.7z"/>
	</g>
	<g id="_x32__1_">
		<path id="fill_8_" class="st49" d="M137.11,221.7h-27.29c-2.2,0-4-1.8-4-4v-23.42c0-2.2,1.8-4,4-4h27.29c2.2,0,4,1.8,4,4v23.42
			C141.11,219.9,139.31,221.7,137.11,221.7z"/>
		<path id="shadow_3_" class="st50" d="M108.15,210.87l31.98-4.47c0,0,1.53-15.41,0-15.63s-33.36,0.1-33.36,0.1l0.01,20"/>
		<path id="stroke_7_" class="st51" d="M137.11,221.7h-27.29c-2.2,0-4-1.8-4-4v-23.42c0-2.2,1.8-4,4-4h27.29c2.2,0,4,1.8,4,4v23.42
			C141.11,219.9,139.31,221.7,137.11,221.7z"/>
	</g>
	<g id="_x31__1_" class="st1">
		<path id="fill_1_" class="st52" d="M137.11,221.7h-27.29c-2.2,0-4-1.8-4-4v-23.42c0-2.2,1.8-4,4-4h27.29c2.2,0,4,1.8,4,4v23.42
			C141.11,219.9,139.31,221.7,137.11,221.7z"/>
		<path id="shadow" class="st53" d="M107.65,210.87l31.98-4.47c0,0,0.14-15.63-0.36-15.63c-1.54,0-32,0.1-32,0.1l0.01,20"/>
		<path id="stroke_1_" class="st54" d="M137.11,221.7h-27.29c-2.2,0-4-1.8-4-4v-23.42c0-2.2,1.8-4,4-4h27.29c2.2,0,4,1.8,4,4v23.42
			C141.11,219.9,139.31,221.7,137.11,221.7z"/>
	</g>
</g>
<g id="Skin" class="st0">
	<g id="_x38_">
		<path id="fill_19_" class="st21" d="M125.95,56.7c-33.48,0-61.01,29.09-64.25,66.34c-6.79,1.54-11.94,8.95-11.94,17.87
			c0,10.04,6.51,18.18,14.55,18.18c0.7,0,1.39-0.08,2.06-0.2c9.76,26.58,32.76,45.25,59.58,45.25c35.66,0,64.58-33.01,64.58-73.73
			C190.52,89.71,161.61,56.7,125.95,56.7z"/>
		<path id="shadow_hairStyle_1_7_" class="st55" d="M148.11,66.27c0,0-9.89,15.74-26.18,25.61c-6.72,4.07-12.6,7.41-17.19,9.92
			c-6.6,3.61-10.83,10.4-11.17,17.91c-0.52,11.37-0.88,27.72,0.72,36.44c2.62,14.25,8.79,43.23,8.79,43.23s-1.94-0.95-6.9-3.9
			c-4.81-2.85-6.44-6.73-6.44-6.73s-12.03-70.43-6.22-80.61c5.82-10.18,52.95-50.33,56.44-50.91
			C143.46,56.67,148.11,66.27,148.11,66.27z"/>
		<path id="stroke_16_" class="st35" d="M125.95,56.7c-33.48,0-61.01,29.09-64.25,66.34c-6.79,1.54-11.94,8.95-11.94,17.87
			c0,10.04,6.51,18.18,14.55,18.18c0.7,0,1.39-0.08,2.06-0.2c9.76,26.58,32.76,45.25,59.58,45.25c35.66,0,64.58-33.01,64.58-73.73
			C190.52,89.71,161.61,56.7,125.95,56.7z"/>
	</g>
	<g id="_x37_">
		<path id="fill_16_" class="st36" d="M125.95,56.7c-33.48,0-61.01,29.09-64.25,66.34c-6.79,1.54-11.94,8.95-11.94,17.87
			c0,10.04,6.51,18.18,14.55,18.18c0.7,0,1.39-0.08,2.06-0.2c9.76,26.58,32.76,45.25,59.58,45.25c35.66,0,64.58-33.01,64.58-73.73
			C190.52,89.71,161.61,56.7,125.95,56.7z"/>
		<path id="shadow_hairStyle_1_6_" class="st55" d="M148.11,66.27c0,0-9.89,15.74-26.18,25.61c-6.72,4.07-12.6,7.41-17.19,9.92
			c-6.6,3.61-10.83,10.4-11.17,17.91c-0.52,11.37-0.88,27.72,0.72,36.44c2.62,14.25,8.79,43.23,8.79,43.23s-1.94-0.95-6.9-3.9
			c-4.81-2.85-6.44-6.73-6.44-6.73s-12.03-70.43-6.22-80.61c5.82-10.18,52.95-50.33,56.44-50.91
			C143.46,56.67,148.11,66.27,148.11,66.27z"/>
		<path id="stroke_13_" class="st38" d="M125.95,56.7c-33.48,0-61.01,29.09-64.25,66.34c-6.79,1.54-11.94,8.95-11.94,17.87
			c0,10.04,6.51,18.18,14.55,18.18c0.7,0,1.39-0.08,2.06-0.2c9.76,26.58,32.76,45.25,59.58,45.25c35.66,0,64.58-33.01,64.58-73.73
			C190.52,89.71,161.61,56.7,125.95,56.7z"/>
	</g>
	<g id="_x36_">
		<path id="fill_13_" class="st39" d="M125.95,56.7c-33.48,0-61.01,29.09-64.25,66.34c-6.79,1.54-11.94,8.95-11.94,17.87
			c0,10.04,6.51,18.18,14.55,18.18c0.7,0,1.39-0.08,2.06-0.2c9.76,26.58,32.76,45.25,59.58,45.25c35.66,0,64.58-33.01,64.58-73.73
			C190.52,89.71,161.61,56.7,125.95,56.7z"/>
		<path id="shadow_hairStyle_1_5_" class="st55" d="M148.11,66.27c0,0-9.89,15.74-26.18,25.61c-6.72,4.07-12.6,7.41-17.19,9.92
			c-6.6,3.61-10.83,10.4-11.17,17.91c-0.52,11.37-0.88,27.72,0.72,36.44c2.62,14.25,8.79,43.23,8.79,43.23s-1.94-0.95-6.9-3.9
			c-4.81-2.85-6.44-6.73-6.44-6.73s-12.03-70.43-6.22-80.61c5.82-10.18,52.95-50.33,56.44-50.91
			C143.46,56.67,148.11,66.27,148.11,66.27z"/>
		<path id="stroke_10_" class="st41" d="M125.95,56.7c-33.48,0-61.01,29.09-64.25,66.34c-6.79,1.54-11.94,8.95-11.94,17.87
			c0,10.04,6.51,18.18,14.55,18.18c0.7,0,1.39-0.08,2.06-0.2c9.76,26.58,32.76,45.25,59.58,45.25c35.66,0,64.58-33.01,64.58-73.73
			C190.52,89.71,161.61,56.7,125.95,56.7z"/>
	</g>
	<g id="_x35_">
		<path id="fill_10_" class="st42" d="M125.95,56.7c-33.48,0-61.01,29.09-64.25,66.34c-6.79,1.54-11.94,8.95-11.94,17.87
			c0,10.04,6.51,18.18,14.55,18.18c0.7,0,1.39-0.08,2.06-0.2c9.76,26.58,32.76,45.25,59.58,45.25c35.66,0,64.58-33.01,64.58-73.73
			C190.52,89.71,161.61,56.7,125.95,56.7z"/>
		<path id="shadow_hairStyle_1_4_" class="st55" d="M148.11,66.27c0,0-9.89,15.74-26.18,25.61c-6.72,4.07-12.6,7.41-17.19,9.92
			c-6.6,3.61-10.83,10.4-11.17,17.91c-0.52,11.37-0.88,27.72,0.72,36.44c2.62,14.25,8.79,43.23,8.79,43.23s-1.94-0.95-6.9-3.9
			c-4.81-2.85-6.44-6.73-6.44-6.73s-12.03-70.43-6.22-80.61c5.82-10.18,52.95-50.33,56.44-50.91
			C143.46,56.67,148.11,66.27,148.11,66.27z"/>
		<path id="stroke_8_" class="st43" d="M125.95,56.7c-33.48,0-61.01,29.09-64.25,66.34c-6.79,1.54-11.94,8.95-11.94,17.87
			c0,10.04,6.51,18.18,14.55,18.18c0.7,0,1.39-0.08,2.06-0.2c9.76,26.58,32.76,45.25,59.58,45.25c35.66,0,64.58-33.01,64.58-73.73
			C190.52,89.71,161.61,56.7,125.95,56.7z"/>
	</g>
	<g id="_x34__1_">
		<path id="fill_3_" class="st44" d="M125.95,56.7c-33.48,0-61.01,29.09-64.25,66.34c-6.79,1.54-11.94,8.95-11.94,17.87
			c0,10.04,6.51,18.18,14.55,18.18c0.7,0,1.39-0.08,2.06-0.2c9.76,26.58,32.76,45.25,59.58,45.25c35.66,0,64.58-33.01,64.58-73.73
			C190.52,89.71,161.61,56.7,125.95,56.7z"/>
		<path id="shadow_hairStyle_1_1_" class="st55" d="M148.11,66.27c0,0-9.89,15.74-26.18,25.61c-6.72,4.07-12.6,7.41-17.19,9.92
			c-6.6,3.61-10.83,10.4-11.17,17.91c-0.52,11.37-0.88,27.72,0.72,36.44c2.62,14.25,8.79,43.23,8.79,43.23s-1.94-0.95-6.9-3.9
			c-4.81-2.85-6.44-6.73-6.44-6.73s-12.03-70.43-6.22-80.61c5.82-10.18,52.95-50.33,56.44-50.91
			C143.46,56.67,148.11,66.27,148.11,66.27z"/>
		<path id="stroke_2_" class="st45" d="M125.95,56.7c-33.48,0-61.01,29.09-64.25,66.34c-6.79,1.54-11.94,8.95-11.94,17.87
			c0,10.04,6.51,18.18,14.55,18.18c0.7,0,1.39-0.08,2.06-0.2c9.76,26.58,32.76,45.25,59.58,45.25c35.66,0,64.58-33.01,64.58-73.73
			C190.52,89.71,161.61,56.7,125.95,56.7z"/>
	</g>
	<g id="_x33_">
		<path id="fill" class="st46" d="M125.95,56.7c-33.48,0-61.01,29.09-64.25,66.34c-6.79,1.54-11.94,8.95-11.94,17.87
			c0,10.04,6.51,18.18,14.55,18.18c0.7,0,1.39-0.08,2.06-0.2c9.76,26.58,32.76,45.25,59.58,45.25c35.66,0,64.58-33.01,64.58-73.73
			C190.52,89.71,161.61,56.7,125.95,56.7z"/>
		<path id="shadow_hairStyle_1_2_" class="st56" d="M148.11,66.27c0,0-9.89,15.74-26.18,25.61c-6.72,4.07-12.6,7.41-17.19,9.92
			c-6.6,3.61-10.83,10.4-11.17,17.91c-0.52,11.37-0.88,27.72,0.72,36.44c2.62,14.25,8.79,43.23,8.79,43.23s-1.94-0.95-6.9-3.9
			c-4.81-2.85-6.44-6.73-6.44-6.73s-12.03-70.43-6.22-80.61c5.82-10.18,52.95-50.33,56.44-50.91
			C143.46,56.67,148.11,66.27,148.11,66.27z"/>
		<path id="stroke" class="st48" d="M125.95,56.7c-33.48,0-61.01,29.09-64.25,66.34c-6.79,1.54-11.94,8.95-11.94,17.87
			c0,10.04,6.51,18.18,14.55,18.18c0.7,0,1.39-0.08,2.06-0.2c9.76,26.58,32.76,45.25,59.58,45.25c35.66,0,64.58-33.01,64.58-73.73
			C190.52,89.71,161.61,56.7,125.95,56.7z"/>
	</g>
	<g id="_x32_">
		<path id="fill_7_" class="st49" d="M125.95,56.7c-33.48,0-61.01,29.09-64.25,66.34c-6.79,1.54-11.94,8.95-11.94,17.87
			c0,10.04,6.51,18.18,14.55,18.18c0.7,0,1.39-0.08,2.06-0.2c9.76,26.58,32.76,45.25,59.58,45.25c35.66,0,64.58-33.01,64.58-73.73
			C190.52,89.71,161.61,56.7,125.95,56.7z"/>
		<path id="shadow_hairStyle_1_3_" class="st56" d="M148.11,66.27c0,0-9.89,15.74-26.18,25.61c-6.72,4.07-12.6,7.41-17.19,9.92
			c-6.6,3.61-10.83,10.4-11.17,17.91c-0.52,11.37-0.88,27.72,0.72,36.44c2.62,14.25,8.79,43.23,8.79,43.23s-1.94-0.95-6.9-3.9
			c-4.81-2.85-6.44-6.73-6.44-6.73s-12.03-70.43-6.22-80.61c5.82-10.18,52.95-50.33,56.44-50.91
			C143.46,56.67,148.11,66.27,148.11,66.27z"/>
		<path id="stroke_6_" class="st51" d="M125.95,56.7c-33.48,0-61.01,29.09-64.25,66.34c-6.79,1.54-11.94,8.95-11.94,17.87
			c0,10.04,6.51,18.18,14.55,18.18c0.7,0,1.39-0.08,2.06-0.2c9.76,26.58,32.76,45.25,59.58,45.25c35.66,0,64.58-33.01,64.58-73.73
			C190.52,89.71,161.61,56.7,125.95,56.7z"/>
	</g>
	<g id="_x31_" class="st1">
		<path id="fill_6_" class="st52" d="M125.95,56.7c-33.48,0-61.01,29.09-64.25,66.34c-6.79,1.54-11.94,8.95-11.94,17.87
			c0,10.04,6.51,18.18,14.55,18.18c0.7,0,1.39-0.08,2.06-0.2c9.76,26.58,32.76,45.25,59.58,45.25c35.66,0,64.58-33.01,64.58-73.73
			C190.52,89.71,161.61,56.7,125.95,56.7z"/>
		<path id="shadowStyle_9" class="st57" d="M72.71,129.5c0,0,3.79-24.47,35.6-36.84s49.01-13.07,52.37-14.3
			c3.37-1.24,5.11-9.13,7.99-9.2c2.88-0.07-8.41-9.85-50.12,1.14s-37.82,9.16-46.69,22.02S72.71,129.5,72.71,129.5z"/>
		<path id="shadow_Style_1" class="st57" d="M148.11,66.27c0,0-9.89,15.74-26.18,25.61c-6.72,4.07-12.6,7.41-17.19,9.92
			c-6.6,3.61-10.83,10.4-11.17,17.91c-0.52,11.37-0.88,27.72,0.72,36.44c2.62,14.25,8.79,43.23,8.79,43.23s-1.94-0.95-6.9-3.9
			c-4.81-2.85-6.44-6.73-6.44-6.73s-12.03-70.43-6.22-80.61c5.82-10.18,52.95-50.33,56.44-50.91
			C143.46,56.67,148.11,66.27,148.11,66.27z"/>
		<path id="stroke_5_" class="st54" d="M125.95,56.7c-33.48,0-61.01,29.09-64.25,66.34c-6.79,1.54-11.94,8.95-11.94,17.87
			c0,10.04,6.51,18.18,14.55,18.18c0.7,0,1.39-0.08,2.06-0.2c9.76,26.58,32.76,45.25,59.58,45.25c35.66,0,64.58-33.01,64.58-73.73
			C190.52,89.71,161.61,56.7,125.95,56.7z"/>
	</g>
</g>
<g id="Body" class="st0">
	<g id="blue">
		<path class="st58" d="M146.24,238.69h-47c-2.2,0-4-1.8-4-4v-16.3c0-2.2,1.8-4,4-4h47c2.2,0,4,1.8,4,4v16.3
			C150.24,236.89,148.44,238.69,146.24,238.69z"/>
		<path class="st58" d="M205.22,272.47c0,28.08-35.85,18.42-80.07,18.42s-80.07,9.66-80.07-18.42s35.85-44.84,80.07-44.84
			S205.22,244.4,205.22,272.47z"/>
		<path class="st59" d="M159.67,229.79c0,0,40.32,17.7,42.06,32.54c1.57,13.31,4.96,18.23-9.02,24.15
			c-13.98,5.91-23.56,4.5-23.56,4.5l-23.56-49.88L159.67,229.79z"/>
		<path class="st60" d="M103.53,231.93c0,0-16.61,20.95-8.3,32.73c8.32,11.78,37.04,26.32,37.04,26.32h45.02
			c0,0,10.91-3.63,6.98-25.44c-3.93-21.82-15.6-30.63-29.62-35.17C140.64,225.82,103.53,231.93,103.53,231.93z"/>
		<path class="st61" d="M205.22,272.47c0,28.08-35.85,18.42-80.07,18.42s-80.07,9.66-80.07-18.42s35.85-44.84,80.07-44.84
			S205.22,244.4,205.22,272.47z"/>
	</g>
	<g id="green">
		<path class="st62" d="M146.24,238.69h-47c-2.2,0-4-1.8-4-4v-16.3c0-2.2,1.8-4,4-4h47c2.2,0,4,1.8,4,4v16.3
			C150.24,236.89,148.44,238.69,146.24,238.69z"/>
		<path class="st62" d="M205.22,272.47c0,28.08-35.85,18.42-80.07,18.42s-80.07,9.66-80.07-18.42s35.85-44.84,80.07-44.84
			S205.22,244.4,205.22,272.47z"/>
		<path class="st63" d="M159.67,229.79c0,0,40.32,17.7,42.06,32.54c1.57,13.31,4.96,18.23-9.02,24.15
			c-13.98,5.91-23.56,4.5-23.56,4.5l-23.56-49.88L159.67,229.79z"/>
		<path class="st64" d="M103.53,231.93c0,0-16.61,20.95-8.3,32.73c8.32,11.78,37.04,26.32,37.04,26.32h45.02
			c0,0,10.91-3.63,6.98-25.44c-3.93-21.82-15.6-30.63-29.62-35.17C140.64,225.82,103.53,231.93,103.53,231.93z"/>
		<path class="st65" d="M205.22,272.47c0,28.08-35.85,18.42-80.07,18.42s-80.07,9.66-80.07-18.42s35.85-44.84,80.07-44.84
			S205.22,244.4,205.22,272.47z"/>
	</g>
	<g id="purple">
		<path class="st66" d="M146.24,238.69h-47c-2.2,0-4-1.8-4-4v-16.3c0-2.2,1.8-4,4-4h47c2.2,0,4,1.8,4,4v16.3
			C150.24,236.89,148.44,238.69,146.24,238.69z"/>
		<path class="st66" d="M205.22,272.47c0,28.08-35.85,18.42-80.07,18.42s-80.07,9.66-80.07-18.42s35.85-44.84,80.07-44.84
			S205.22,244.4,205.22,272.47z"/>
		<path class="st67" d="M159.67,229.79c0,0,40.32,17.7,42.06,32.54c1.57,13.31,4.96,18.23-9.02,24.15
			c-13.98,5.91-23.56,4.5-23.56,4.5l-23.56-49.88L159.67,229.79z"/>
		<path class="st68" d="M103.53,231.93c0,0-16.61,20.95-8.3,32.73c8.32,11.78,37.04,26.32,37.04,26.32h45.02
			c0,0,10.91-3.63,6.98-25.44c-3.93-21.82-15.6-30.63-29.62-35.17C140.64,225.82,103.53,231.93,103.53,231.93z"/>
		<path class="st69" d="M205.22,272.47c0,28.08-35.85,18.42-80.07,18.42s-80.07,9.66-80.07-18.42s35.85-44.84,80.07-44.84
			S205.22,244.4,205.22,272.47z"/>
	</g>
	<g id="red_copy">
		<path class="st70" d="M146.24,238.69h-47c-2.2,0-4-1.8-4-4v-16.3c0-2.2,1.8-4,4-4h47c2.2,0,4,1.8,4,4v16.3
			C150.24,236.89,148.44,238.69,146.24,238.69z"/>
		<path class="st70" d="M205.22,272.47c0,28.08-35.85,18.42-80.07,18.42s-80.07,9.66-80.07-18.42s35.85-44.84,80.07-44.84
			S205.22,244.4,205.22,272.47z"/>
		<path class="st71" d="M159.67,229.79c0,0,40.32,17.7,42.06,32.54c1.57,13.31,4.96,18.23-9.02,24.15
			c-13.98,5.91-23.56,4.5-23.56,4.5l-23.56-49.88L159.67,229.79z"/>
		<path class="st72" d="M103.53,231.93c0,0-16.61,20.95-8.3,32.73c8.32,11.78,37.04,26.32,37.04,26.32h45.02
			c0,0,10.91-3.63,6.98-25.44c-3.93-21.82-15.6-30.63-29.62-35.17C140.64,225.82,103.53,231.93,103.53,231.93z"/>
		<path class="st73" d="M205.22,272.47c0,28.08-35.85,18.42-80.07,18.42s-80.07,9.66-80.07-18.42s35.85-44.84,80.07-44.84
			S205.22,244.4,205.22,272.47z"/>
	</g>
	<g id="orange_copy" class="st1">
		<g>
			<path class="st5" d="M146.24,238.69h-47c-2.2,0-4-1.8-4-4v-16.3c0-2.2,1.8-4,4-4h47c2.2,0,4,1.8,4,4v16.3
				C150.24,236.89,148.44,238.69,146.24,238.69z"/>
			<path class="st5" d="M205.22,272.47c0,28.08-35.85,18.42-80.07,18.42s-80.07,9.66-80.07-18.42s35.85-44.84,80.07-44.84
				S205.22,244.4,205.22,272.47z"/>
			<path class="st6" d="M159.67,229.79c0,0,40.32,17.7,42.06,32.54c1.57,13.31,4.96,18.23-9.02,24.15
				c-13.98,5.91-23.56,4.5-23.56,4.5l-23.56-49.88L159.67,229.79z"/>
			<path class="st7" d="M103.53,231.93c0,0-16.61,20.95-8.3,32.73c8.32,11.78,37.04,26.32,37.04,26.32h45.02
				c0,0,10.91-3.63,6.98-25.44c-3.93-21.82-15.6-30.63-29.62-35.17C140.64,225.82,103.53,231.93,103.53,231.93z"/>
			<path class="st8" d="M205.22,272.47c0,28.08-35.85,18.42-80.07,18.42s-80.07,9.66-80.07-18.42s35.85-44.84,80.07-44.84
				S205.22,244.4,205.22,272.47z"/>
		</g>
	</g>
</g>
<g id="nose" class="st0">
	<path id="Skin_8_2_" class="st74" d="M162.6,155.27c-4.05-5.72-9.9-4.38-12.6,0"/>
	<path id="Skin_7_3_" class="st75" d="M162.6,155.27c-4.05-5.72-9.9-4.38-12.6,0"/>
	<path id="Skin_6_3_" class="st76" d="M162.6,155.27c-4.05-5.72-9.9-4.38-12.6,0"/>
	<path id="Skin_5_3_" class="st77" d="M162.6,155.27c-4.05-5.72-9.9-4.38-12.6,0"/>
	<path id="Skin_4_3_" class="st78" d="M162.6,155.27c-4.05-5.72-9.9-4.38-12.6,0"/>
	<path id="Skin_3_3_" class="st79" d="M162.6,155.27c-4.05-5.72-9.9-4.38-12.6,0"/>
	<path id="Skin_2_3_" class="st80" d="M162.6,155.27c-4.05-5.72-9.9-4.38-12.6,0"/>
	<path id="Skin_1_3_" class="st81" d="M162.6,155.27c-4.05-5.72-9.9-4.38-12.6,0"/>
</g>
<g id="mouth" class="st0">
	<path id="Skin_8_1_" class="st11" d="M136.96,176.16c6.34,6.34,16.6,6.34,22.95,0"/>
	<path id="Skin_7_2_" class="st82" d="M136.96,176.16c6.34,6.34,16.6,6.34,22.95,0"/>
	<path id="Skin_6_2_" class="st82" d="M136.96,176.16c6.34,6.34,16.6,6.34,22.95,0"/>
	<path id="Skin_5_2_" class="st82" d="M136.96,176.16c6.34,6.34,16.6,6.34,22.95,0"/>
	<path id="Skin_4_1_" class="st82" d="M136.96,176.16c6.34,6.34,16.6,6.34,22.95,0"/>
	<path id="Skin_3_1_" class="st83" d="M136.96,176.16c6.34,6.34,16.6,6.34,22.95,0"/>
	<path id="Skin_2_2_" class="st82" d="M136.96,176.16c6.34,6.34,16.6,6.34,22.95,0"/>
	<path id="Skin_1_2_" class="st84" d="M136.96,176.16c6.34,6.34,16.6,6.34,22.95,0"/>
</g>
<g id="eyes" class="st0">
	<ellipse class="st15" cx="125.77" cy="129.16" rx="5.38" ry="6.18"/>
	<ellipse class="st15" cx="173.77" cy="129.16" rx="5.38" ry="6.18"/>
</g>
<g id="eyebrows" class="st0">
	<g id="Skin_8">
		<path class="st85" d="M130.3,107.87c-7.25-1.95-15.2,0.34-19.78,6.41"/>
		<path class="st85" d="M162.52,107.87c7.25-1.95,15.2,0.34,19.78,6.41"/>
	</g>
	<g id="Skin_7">
		<path class="st85" d="M130.3,107.87c-7.25-1.95-15.2,0.34-19.78,6.41"/>
		<path class="st85" d="M162.52,107.87c7.25-1.95,15.2,0.34,19.78,6.41"/>
	</g>
	<g id="Skin_6">
		<path class="st85" d="M130.3,107.87c-7.25-1.95-15.2,0.34-19.78,6.41"/>
		<path class="st85" d="M162.52,107.87c7.25-1.95,15.2,0.34,19.78,6.41"/>
	</g>
	<g id="Skin_5">
		<path class="st85" d="M130.3,107.87c-7.25-1.95-15.2,0.34-19.78,6.41"/>
		<path class="st85" d="M162.52,107.87c7.25-1.95,15.2,0.34,19.78,6.41"/>
	</g>
	<g id="Skin_4">
		<path class="st86" d="M130.3,107.87c-7.25-1.95-15.2,0.34-19.78,6.41"/>
		<path class="st86" d="M162.52,107.87c7.25-1.95,15.2,0.34,19.78,6.41"/>
	</g>
	<g id="Skin_3">
		<path class="st86" d="M130.3,107.87c-7.25-1.95-15.2,0.34-19.78,6.41"/>
		<path class="st86" d="M162.52,107.87c7.25-1.95,15.2,0.34,19.78,6.41"/>
	</g>
	<g id="Skin_2">
		<path class="st87" d="M130.3,107.87c-7.25-1.95-15.2,0.34-19.78,6.41"/>
		<path class="st87" d="M162.52,107.87c7.25-1.95,15.2,0.34,19.78,6.41"/>
	</g>
	<g id="Skin_1" class="st1">
		<path class="st88" d="M130.3,107.87c-7.25-1.95-15.2,0.34-19.78,6.41"/>
		<path class="st88" d="M162.52,107.87c7.25-1.95,15.2,0.34,19.78,6.41"/>
	</g>
</g>
<g id="Other" class="st0">
	<path id="beard_1_" class="st22" d="M62.77,133.11c0,0,4.09-2.05,9.08-0.91c4.99,1.14,5.6,6.5,6.73,8.32
		c1.14,1.83,3.98,13.93,19.49,25.89c15.31,11.81,30.74,18.54,46.38,20.22c9.47,1.02,14.9-3.65,21.02-8.9
		c6.75-5.79,14.16-14.01,17.47-19.94c2.8-5.02,2.1-4.6,4.36-10.22c0.26-0.64,2.47,2.66,2.36,3.35c-1.22,7.97-5.69,19.44-15.9,32.07
		c-13.87,17.16-28.05,22.23-39.62,22.69c-11.58,0.46-24.22,1.96-45.38-13.09c-20.77-14.77-24.62-35.17-25.53-42
		C62.33,143.76,62.77,133.11,62.77,133.11z"/>
	<path id="moustache_1_" class="st22" d="M166.4,179.85c-1.15,0.27-7.5-6.46-13.91-6.74c-7.62-0.33-12.35,1.19-16.22,4.27
		c-4.3,3.41-6.41,8.6-8.1,8.05c-1.55-0.5-9.03-5.56-9.03-5.56s10.12-10.8,16.78-13.31c9.69-3.66,19.37-2.24,25.45-0.56
		c6.08,1.68,10.6,6.13,9.56,8.69C170.93,174.69,169.28,179.18,166.4,179.85z"/>
	<g id="glasses" class="st1">
		<circle class="st89" cx="126.4" cy="130.16" r="18.05"/>
		<circle class="st89" cx="178.4" cy="130.16" r="18.05"/>
		<path class="st89" d="M160.57,126.64c-4.57-4.57-11.97-4.57-16.54,0"/>
		<line class="st89" x1="108.12" y1="124.92" x2="60.87" y2="118.77"/>
	</g>
</g>
<g id="hairFront">
	<g id="Style_9" class="st0">
		<g id="Redhair" class="st1">
			<path class="st90" d="M188.13,106.66c0,0,2.74-11.81,3.25-17.11s-1.63-22.76-1.63-22.76s-3.82,2.6-6.76,4.62
				c-3.88,2.67-16.27,5.45-16.27,5.45s8.94,3.32,12.78,9.87C182.3,91.5,188.13,106.66,188.13,106.66z"/>
			<path class="st90" d="M111.13,28.8c0,0-26.58-1.37-42.21,16.08c-15.48,17.29-17.3,24.19-17.3,24.19l3.27,0.22
				c0.44-1.28-3.28,8.84-5.82,19.62c-2.36,10.04,1.83,21.37,1.83,21.37l3.53-10.65c0,0-1.71,18.25,4.56,29.2
				c4.46,7.78,12.19,20.56,13.35,16.77c1.25-4.11,0.46-11.75-0.83-23.82c-0.82-7.76,0.51-13.58,0.51-13.58s20.46-20.15,42.75-26.82
				c23.61-7.07,40.15-5.08,46.66-4.53c6.5,0.54,14.72-0.83,20.88-6.3c6.16-5.48,10.95-11.29,11.98-18.94
				c0.59-4.41-3.76-14.72-11.18-20.08c-5.92-4.28-23.39-11.29-23.39-11.29l3.08,9.58c0,0-10.27-4.77-22.93-7.87
				s-35.93,0.34-35.93,0.34L111.13,28.8z"/>
			<path class="st91" d="M171.71,30.17c0,0,10.95,4.28,13.35,8.73s2.91,8.9,1.37,13.35s-8.21,6.16-8.21,6.16s4.96-4.96,3.76-12.32
				C180.77,38.72,171.71,30.17,171.71,30.17z"/>
			<path class="st91" d="M63.39,72.95c-1.43,4,18.14-23.96,28.75-28.66s19.16-5.39,26.69-6.25c7.53-0.86,25.15,0,25.15,0
				s-9.75-6.67-15.74-8.9c-5.99-2.22-13.52-3.76-13.52-3.76s7.14,6.84,5.71,7.19c-1.43,0.34-14.95-1.37-23.68,1.88
				S71.78,49.5,63.39,72.95z"/>
		</g>
		<g id="Blonde_1_">
			<path class="st19" d="M188.13,106.66c0,0,2.74-11.81,3.25-17.11s-1.63-22.76-1.63-22.76s-3.82,2.6-6.76,4.62
				c-3.88,2.67-16.27,5.45-16.27,5.45s8.94,3.32,12.78,9.87C182.3,91.5,188.13,106.66,188.13,106.66z"/>
			<path class="st19" d="M111.13,28.8c0,0-26.58-1.37-42.21,16.08c-15.48,17.29-17.3,24.19-17.3,24.19l3.27,0.22
				c0.44-1.28-3.28,8.84-5.82,19.62c-2.36,10.04,1.83,21.37,1.83,21.37l3.53-10.65c0,0-1.71,18.25,4.56,29.2
				c4.46,7.78,12.19,20.56,13.35,16.77c1.25-4.11,0.46-11.75-0.83-23.82c-0.82-7.76,0.51-13.58,0.51-13.58s20.46-20.15,42.75-26.82
				c23.61-7.07,40.15-5.08,46.66-4.53c6.5,0.54,14.72-0.83,20.88-6.3c6.16-5.48,10.95-11.29,11.98-18.94
				c0.59-4.41-3.76-14.72-11.18-20.08c-5.92-4.28-23.39-11.29-23.39-11.29l3.08,9.58c0,0-10.27-4.77-22.93-7.87
				s-35.93,0.34-35.93,0.34L111.13,28.8z"/>
			<path class="st92" d="M171.71,30.17c0,0,10.95,4.28,13.35,8.73s2.91,8.9,1.37,13.35s-8.21,6.16-8.21,6.16s4.96-4.96,3.76-12.32
				C180.77,38.72,171.71,30.17,171.71,30.17z"/>
			<path class="st92" d="M63.39,72.95c-1.43,4,18.14-23.96,28.75-28.66s19.16-5.39,26.69-6.25c7.53-0.86,25.15,0,25.15,0
				s-9.75-6.67-15.74-8.9c-5.99-2.22-13.52-3.76-13.52-3.76s7.14,6.84,5.71,7.19c-1.43,0.34-14.95-1.37-23.68,1.88
				S71.78,49.5,63.39,72.95z"/>
		</g>
		<g id="Brown_1_">
			<path class="st21" d="M188.13,106.66c0,0,2.74-11.81,3.25-17.11s-1.63-22.76-1.63-22.76s-3.82,2.6-6.76,4.62
				c-3.88,2.67-16.27,5.45-16.27,5.45s8.94,3.32,12.78,9.87C182.3,91.5,188.13,106.66,188.13,106.66z"/>
			<path class="st21" d="M111.13,28.8c0,0-26.58-1.37-42.21,16.08c-15.48,17.29-17.3,24.19-17.3,24.19l3.27,0.22
				c0.44-1.28-3.28,8.84-5.82,19.62c-2.36,10.04,1.83,21.37,1.83,21.37l3.53-10.65c0,0-1.71,18.25,4.56,29.2
				c4.46,7.78,12.19,20.56,13.35,16.77c1.25-4.11,0.46-11.75-0.83-23.82c-0.82-7.76,0.51-13.58,0.51-13.58s20.46-20.15,42.75-26.82
				c23.61-7.07,40.15-5.08,46.66-4.53c6.5,0.54,14.72-0.83,20.88-6.3c6.16-5.48,10.95-11.29,11.98-18.94
				c0.59-4.41-3.76-14.72-11.18-20.08c-5.92-4.28-23.39-11.29-23.39-11.29l3.08,9.58c0,0-10.27-4.77-22.93-7.87
				s-35.93,0.34-35.93,0.34L111.13,28.8z"/>
			<path class="st93" d="M171.71,30.17c0,0,10.95,4.28,13.35,8.73s2.91,8.9,1.37,13.35s-8.21,6.16-8.21,6.16s4.96-4.96,3.76-12.32
				C180.77,38.72,171.71,30.17,171.71,30.17z"/>
			<path class="st93" d="M63.39,72.95c-1.43,4,18.14-23.96,28.75-28.66s19.16-5.39,26.69-6.25c7.53-0.86,25.15,0,25.15,0
				s-9.75-6.67-15.74-8.9c-5.99-2.22-13.52-3.76-13.52-3.76s7.14,6.84,5.71,7.19c-1.43,0.34-14.95-1.37-23.68,1.88
				S71.78,49.5,63.39,72.95z"/>
		</g>
		<g id="Black_1_">
			<path class="st22" d="M188.13,106.66c0,0,2.74-11.81,3.25-17.11s-1.63-22.76-1.63-22.76s-3.82,2.6-6.76,4.62
				c-3.88,2.67-16.27,5.45-16.27,5.45s8.94,3.32,12.78,9.87C182.3,91.5,188.13,106.66,188.13,106.66z"/>
			<path class="st22" d="M111.13,28.8c0,0-26.58-1.37-42.21,16.08c-15.48,17.29-17.3,24.19-17.3,24.19l3.27,0.22
				c0.44-1.28-3.28,8.84-5.82,19.62c-2.36,10.04,1.83,21.37,1.83,21.37l3.53-10.65c0,0-1.71,18.25,4.56,29.2
				c4.46,7.78,12.19,20.56,13.35,16.77c1.25-4.11,0.46-11.75-0.83-23.82c-0.82-7.76,0.51-13.58,0.51-13.58s20.46-20.15,42.75-26.82
				c23.61-7.07,40.15-5.08,46.66-4.53c6.5,0.54,14.72-0.83,20.88-6.3c6.16-5.48,10.95-11.29,11.98-18.94
				c0.59-4.41-3.76-14.72-11.18-20.08c-5.92-4.28-23.39-11.29-23.39-11.29l3.08,9.58c0,0-10.27-4.77-22.93-7.87
				s-35.93,0.34-35.93,0.34L111.13,28.8z"/>
			<path class="st94" d="M171.71,30.17c0,0,10.95,4.28,13.35,8.73s2.91,8.9,1.37,13.35s-8.21,6.16-8.21,6.16s4.96-4.96,3.76-12.32
				C180.77,38.72,171.71,30.17,171.71,30.17z"/>
			<path class="st94" d="M63.39,72.95c-1.43,4,18.14-23.96,28.75-28.66s19.16-5.39,26.69-6.25c7.53-0.86,25.15,0,25.15,0
				s-9.75-6.67-15.74-8.9c-5.99-2.22-13.52-3.76-13.52-3.76s7.14,6.84,5.71,7.19c-1.43,0.34-14.95-1.37-23.68,1.88
				S71.78,49.5,63.39,72.95z"/>
		</g>
		<g id="Blue_1_" class="st1">
			<path class="st12" d="M188.13,106.66c0,0,2.74-11.81,3.25-17.11s-1.63-22.76-1.63-22.76s-3.82,2.6-6.76,4.62
				c-3.88,2.67-16.27,5.45-16.27,5.45s8.94,3.32,12.78,9.87C182.3,91.5,188.13,106.66,188.13,106.66z"/>
			<path class="st12" d="M111.13,28.8c0,0-26.58-1.37-42.21,16.08c-15.48,17.29-17.3,24.19-17.3,24.19l3.27,0.22
				c0.44-1.28-3.28,8.84-5.82,19.62c-2.36,10.04,1.83,21.37,1.83,21.37l3.53-10.65c0,0-1.71,18.25,4.56,29.2
				c4.46,7.78,12.19,20.56,13.35,16.77c1.25-4.11,0.46-11.75-0.83-23.82c-0.82-7.76,0.51-13.58,0.51-13.58s20.46-20.15,42.75-26.82
				c23.61-7.07,40.15-5.08,46.66-4.53c6.5,0.54,14.72-0.83,20.88-6.3c6.16-5.48,10.95-11.29,11.98-18.94
				c0.59-4.41-3.76-14.72-11.18-20.08c-5.92-4.28-23.39-11.29-23.39-11.29l3.08,9.58c0,0-10.27-4.77-22.93-7.87
				s-35.93,0.34-35.93,0.34L111.13,28.8z"/>
			<path class="st13" d="M171.71,30.17c0,0,10.95,4.28,13.35,8.73s2.91,8.9,1.37,13.35s-8.21,6.16-8.21,6.16s4.96-4.96,3.76-12.32
				C180.77,38.72,171.71,30.17,171.71,30.17z"/>
			<path class="st13" d="M63.39,72.95c-1.43,4,18.14-23.96,28.75-28.66s19.16-5.39,26.69-6.25c7.53-0.86,25.15,0,25.15,0
				s-9.75-6.67-15.74-8.9c-5.99-2.22-13.52-3.76-13.52-3.76s7.14,6.84,5.71,7.19c-1.43,0.34-14.95-1.37-23.68,1.88
				S71.78,49.5,63.39,72.95z"/>
		</g>
	</g>
	<g id="Style_6_1_" class="st0">
		<g id="Redhair_12_">
			<path class="st17" d="M186.17,92.73c0,0-1.56-16.79-17.77-30.17s-28.14-15.71-51.41-15.71S69.94,58.61,61.4,66.84
				c-13.07,12.59-14.33,21.97-16.32,43.9c-1.99,21.93-2.57,133.94-2.57,133.94l56.44-10.78L88.76,105.03l17.06-2.33l1.45-6.98
				l3.24,6.11l24.79-2.62V84.37l8.73,12.22L186.17,92.73z"/>
			<path class="st95" d="M65.53,99.21c0,0,10.15,125.24,9.27,125.45c-0.87,0.22-5.4,1.09-6.55,1.09c0,0-4.35-119.77-4.36-121.53
				C63.87,100.85,64.44,95.28,65.53,99.21z"/>
			<polygon class="st96" points="58.65,114.32 66.07,228.68 53.64,228.68 56.47,119.72 			"/>
			<path class="st96" d="M125,52.37c-0.63,0.02,15.11-1.31,22.53,1.31c7.42,2.62,16.89,8.87,14.99,9.89
				c-1.9,1.02-1.88-0.92-10.62-4.51C144.02,55.83,133.02,52.08,125,52.37z"/>
		</g>
		<g id="Blonde_11_">
			<path class="st19" d="M186.17,92.73c0,0-1.56-16.79-17.77-30.17s-28.14-15.71-51.41-15.71S69.94,58.61,61.4,66.84
				c-13.07,12.59-14.33,21.97-16.32,43.9c-1.99,21.93-2.57,133.94-2.57,133.94l56.44-10.78L88.76,105.03l17.06-2.33l1.45-6.98
				l3.24,6.11l24.79-2.62V84.37l8.73,12.22L186.17,92.73z"/>
			<path class="st97" d="M65.53,99.21c0,0,10.15,125.24,9.27,125.45c-0.87,0.22-5.4,1.09-6.55,1.09c0,0-4.35-119.77-4.36-121.53
				C63.87,100.85,64.44,95.28,65.53,99.21z"/>
			<polygon class="st92" points="58.65,114.32 66.07,228.68 53.64,228.68 56.47,119.72 			"/>
			<path class="st92" d="M125,52.37c-0.63,0.02,15.11-1.31,22.53,1.31c7.42,2.62,16.89,8.87,14.99,9.89
				c-1.9,1.02-1.88-0.92-10.62-4.51C144.02,55.83,133.02,52.08,125,52.37z"/>
		</g>
		<g id="Brown_12_">
			<path class="st21" d="M186.17,92.73c0,0-1.56-16.79-17.77-30.17s-28.14-15.71-51.41-15.71S69.94,58.61,61.4,66.84
				c-13.07,12.59-14.33,21.97-16.32,43.9c-1.99,21.93-2.57,133.94-2.57,133.94l56.44-10.78L88.76,105.03l17.06-2.33l1.45-6.98
				l3.24,6.11l24.79-2.62V84.37l8.73,12.22L186.17,92.73z"/>
			<path class="st98" d="M65.53,99.21c0,0,10.15,125.24,9.27,125.45c-0.87,0.22-5.4,1.09-6.55,1.09c0,0-4.35-119.77-4.36-121.53
				C63.87,100.85,64.44,95.28,65.53,99.21z"/>
			<polygon class="st93" points="58.65,114.32 66.07,228.68 53.64,228.68 56.47,119.72 			"/>
			<path class="st93" d="M125,52.37c-0.63,0.02,15.11-1.31,22.53,1.31c7.42,2.62,16.89,8.87,14.99,9.89
				c-1.9,1.02-1.88-0.92-10.62-4.51C144.02,55.83,133.02,52.08,125,52.37z"/>
		</g>
		<g id="Black_10_">
			<path class="st22" d="M186.17,92.73c0,0-1.56-16.79-17.77-30.17s-28.14-15.71-51.41-15.71S69.94,58.61,61.4,66.84
				c-13.07,12.59-14.33,21.97-16.32,43.9c-1.99,21.93-2.57,133.94-2.57,133.94l56.44-10.78L88.76,105.03l17.06-2.33l1.45-6.98
				l3.24,6.11l24.79-2.62V84.37l8.73,12.22L186.17,92.73z"/>
			<path class="st99" d="M65.53,99.21c0,0,10.15,125.24,9.27,125.45c-0.87,0.22-5.4,1.09-6.55,1.09c0,0-4.35-119.77-4.36-121.53
				C63.87,100.85,64.44,95.28,65.53,99.21z"/>
			<polygon class="st94" points="58.65,114.32 66.07,228.68 53.64,228.68 56.47,119.72 			"/>
			<path class="st94" d="M125,52.37c-0.63,0.02,15.11-1.31,22.53,1.31c7.42,2.62,16.89,8.87,14.99,9.89
				c-1.9,1.02-1.88-0.92-10.62-4.51C144.02,55.83,133.02,52.08,125,52.37z"/>
		</g>
		<g id="Blue_10_" class="st1">
			<path class="st12" d="M186.17,92.73c0,0-1.56-16.79-17.77-30.17s-28.14-15.71-51.41-15.71S69.94,58.61,61.4,66.84
				c-13.07,12.59-14.33,21.97-16.32,43.9c-1.99,21.93-2.57,133.94-2.57,133.94l56.44-10.78L88.76,105.03l17.06-2.33l1.45-6.98
				l3.24,6.11l24.79-2.62V84.37l8.73,12.22L186.17,92.73z"/>
			<path class="st100" d="M65.53,99.21c0,0,10.15,125.24,9.27,125.45c-0.87,0.22-5.4,1.09-6.55,1.09c0,0-4.35-119.77-4.36-121.53
				C63.87,100.85,64.44,95.28,65.53,99.21z"/>
			<polygon class="st101" points="58.65,114.32 66.07,228.68 53.64,228.68 56.47,119.72 			"/>
			<path class="st13" d="M125,52.37c-0.63,0.02,15.11-1.31,22.53,1.31c7.42,2.62,16.89,8.87,14.99,9.89
				c-1.9,1.02-1.88-0.92-10.62-4.51C144.02,55.83,133.02,52.08,125,52.37z"/>
		</g>
	</g>
	<g id="Style_5_1_" class="st0">
		<g id="Redhair_11_">
			<path class="st17" d="M88.84,46.7c0,0,2.11-9.86-7.93-15.78c-5.32-3.14-12.65-2.84-24,5.02S40.5,51.86,40.5,59.72
				s2.89,12.44,7.47,14.84c4.58,2.4,10.91,0.22,11.35,0C59.75,74.34,88.84,46.7,88.84,46.7z"/>
			<path class="st17" d="M63.02,61.03c-1.09,0.44-10.59,12.24-13.26,26.19c-2.67,13.95-2.89,25.51-2.01,30.97
				c0.87,5.45,2.4,10.8,4.36,9.27c1.96-1.53,6.47-3.89,11.49-3.24c5.02,0.65,7.49-0.46,10.55,4.93s6.76,16.57,8.07,16.57
				c1.31,0,3.05-12.37,5.24-16.57c2.18-4.21,12.44-14.88,23.06-21.01c7.12-4.11,15.39-4.12,21.67-7.85
				c6.27-3.74,13.31-18.11,20.07-18.11s16.5,6.33,22.69,12.87s8.07,9.38,10.69,14.18c2.62,4.8,5.02,13.53,5.89,12.22
				s1.75-6.18,2.62-10.73c0.87-4.55,0-11.09,0-11.09s3.49,4.51,4.36,11.09c0.87,6.58,1.31,10.73,1.31,10.73s10.25-17.89,4.8-36
				s-19.26-30.11-32.21-36.65c-12.95-6.55-34.85-13.09-52.27-11.35c-17.41,1.75-29.41,6.33-35.3,8.95
				C78.95,49.03,63.02,61.03,63.02,61.03z"/>
			<path class="st96" d="M61.16,38.99c0,0,12.11,0,10.15,1.31c-1.96,1.31-13.31,8.29-10.47,8.07c2.84-0.22,17.13-7.96,18-9.49
				c0.87-1.53-14.22-2.28-17.35-1.7C51.45,39.03,61.16,38.99,61.16,38.99z"/>
			<path class="st102" d="M54.28,73.03c-0.33-0.11-0.57-4.58,2.67-9.93c3.24-5.35,7.82-10.04,14.15-13.53
				c6.33-3.49,18.6-5.69,17.92-5.68c-0.68,0.01-12.08,7.52-16.57,10.3c-4.53,2.81-8.04,5.68-11.79,9.42
				C56.91,67.35,54.28,73.03,54.28,73.03z"/>
			<path class="st95" d="M140.47,79.94c-1.16-0.15-8.73,3.35-18.18,4.07s-10.47,1.45-15.42,0c-4.95-1.45-11.93-6.55-12.36-5.96
				c-0.44,0.58-0.44,3.43,4.65,6.8c5.09,3.38,8.16,4.83,15.35,4.25s9.21-0.15,15.25-2.91C135.82,83.43,140.47,79.94,140.47,79.94z"
				/>
			<path class="st96" d="M144.73,77c-0.44,0.48-14.25,12.11-21.38,16.77c-7.13,4.65-10.22,5.77-19.35,7.27
				c-8.73,1.44-13.53-3.06-16.44-5.24c-2.91-2.18-6.4-7.07-5.38-6.74c1.02,0.34,6.84,4.84,10.76,5.72c3.93,0.87,8.15,3.2,17.02-0.44
				C118.84,90.72,144.73,77,144.73,77z"/>
		</g>
		<g id="Blonde_6_">
			<path class="st19" d="M88.84,46.7c0,0,2.11-9.86-7.93-15.78c-5.32-3.14-12.65-2.84-24,5.02S40.5,51.86,40.5,59.72
				s2.89,12.44,7.47,14.84c4.58,2.4,10.91,0.22,11.35,0C59.75,74.34,88.84,46.7,88.84,46.7z"/>
			<path class="st19" d="M63.02,61.03c-1.09,0.44-10.59,12.24-13.26,26.19c-2.67,13.95-2.89,25.51-2.01,30.97
				c0.87,5.45,2.4,10.8,4.36,9.27c1.96-1.53,6.47-3.89,11.49-3.24c5.02,0.65,7.49-0.46,10.55,4.93s6.76,16.57,8.07,16.57
				c1.31,0,3.05-12.37,5.24-16.57c2.18-4.21,12.44-14.88,23.06-21.01c7.12-4.11,15.39-4.12,21.67-7.85
				c6.27-3.74,13.31-18.11,20.07-18.11s16.5,6.33,22.69,12.87s8.07,9.38,10.69,14.18c2.62,4.8,5.02,13.53,5.89,12.22
				s1.75-6.18,2.62-10.73c0.87-4.55,0-11.09,0-11.09s3.49,4.51,4.36,11.09c0.87,6.58,1.31,10.73,1.31,10.73s10.25-17.89,4.8-36
				s-19.26-30.11-32.21-36.65c-12.95-6.55-34.85-13.09-52.27-11.35c-17.41,1.75-29.41,6.33-35.3,8.95
				C78.95,49.03,63.02,61.03,63.02,61.03z"/>
			<path class="st92" d="M61.16,38.99c0,0,12.11,0,10.15,1.31c-1.96,1.31-13.31,8.29-10.47,8.07c2.84-0.22,17.13-7.96,18-9.49
				c0.87-1.53-14.22-2.28-17.35-1.7C51.45,39.03,61.16,38.99,61.16,38.99z"/>
			<path class="st102" d="M54.28,73.03c-0.33-0.11-0.57-4.58,2.67-9.93c3.24-5.35,7.82-10.04,14.15-13.53
				c6.33-3.49,18.6-5.69,17.92-5.68c-0.68,0.01-12.08,7.52-16.57,10.3c-4.53,2.81-8.04,5.68-11.79,9.42
				C56.91,67.35,54.28,73.03,54.28,73.03z"/>
			<path class="st97" d="M140.47,79.94c-1.16-0.15-8.73,3.35-18.18,4.07s-10.47,1.45-15.42,0c-4.95-1.45-11.93-6.55-12.36-5.96
				c-0.44,0.58-0.44,3.43,4.65,6.8c5.09,3.38,8.16,4.83,15.35,4.25s9.21-0.15,15.25-2.91C135.82,83.43,140.47,79.94,140.47,79.94z"
				/>
			<path class="st92" d="M144.73,77c-0.44,0.48-14.25,12.11-21.38,16.77c-7.13,4.65-10.22,5.77-19.35,7.27
				c-8.73,1.44-13.53-3.06-16.44-5.24c-2.91-2.18-6.4-7.07-5.38-6.74c1.02,0.34,6.84,4.84,10.76,5.72c3.93,0.87,8.15,3.2,17.02-0.44
				C118.84,90.72,144.73,77,144.73,77z"/>
		</g>
		<g id="Brown_10_">
			<path class="st21" d="M88.84,46.7c0,0,2.11-9.86-7.93-15.78c-5.32-3.14-12.65-2.84-24,5.02S40.5,51.86,40.5,59.72
				s2.89,12.44,7.47,14.84c4.58,2.4,10.91,0.22,11.35,0C59.75,74.34,88.84,46.7,88.84,46.7z"/>
			<path class="st21" d="M63.02,61.03c-1.09,0.44-10.59,12.24-13.26,26.19c-2.67,13.95-2.89,25.51-2.01,30.97
				c0.87,5.45,2.4,10.8,4.36,9.27c1.96-1.53,6.47-3.89,11.49-3.24c5.02,0.65,7.49-0.46,10.55,4.93s6.76,16.57,8.07,16.57
				c1.31,0,3.05-12.37,5.24-16.57c2.18-4.21,12.44-14.88,23.06-21.01c7.12-4.11,15.39-4.12,21.67-7.85
				c6.27-3.74,13.31-18.11,20.07-18.11s16.5,6.33,22.69,12.87s8.07,9.38,10.69,14.18c2.62,4.8,5.02,13.53,5.89,12.22
				s1.75-6.18,2.62-10.73c0.87-4.55,0-11.09,0-11.09s3.49,4.51,4.36,11.09c0.87,6.58,1.31,10.73,1.31,10.73s10.25-17.89,4.8-36
				s-19.26-30.11-32.21-36.65c-12.95-6.55-34.85-13.09-52.27-11.35c-17.41,1.75-29.41,6.33-35.3,8.95
				C78.95,49.03,63.02,61.03,63.02,61.03z"/>
			<path class="st93" d="M61.16,38.99c0,0,12.11,0,10.15,1.31c-1.96,1.31-13.31,8.29-10.47,8.07c2.84-0.22,17.13-7.96,18-9.49
				c0.87-1.53-14.22-2.28-17.35-1.7C51.45,39.03,61.16,38.99,61.16,38.99z"/>
			<path class="st102" d="M54.28,73.03c-0.33-0.11-0.57-4.58,2.67-9.93c3.24-5.35,7.82-10.04,14.15-13.53
				c6.33-3.49,18.6-5.69,17.92-5.68c-0.68,0.01-12.08,7.52-16.57,10.3c-4.53,2.81-8.04,5.68-11.79,9.42
				C56.91,67.35,54.28,73.03,54.28,73.03z"/>
			<path class="st98" d="M140.47,79.94c-1.16-0.15-8.73,3.35-18.18,4.07s-10.47,1.45-15.42,0c-4.95-1.45-11.93-6.55-12.36-5.96
				c-0.44,0.58-0.44,3.43,4.65,6.8c5.09,3.38,8.16,4.83,15.35,4.25s9.21-0.15,15.25-2.91C135.82,83.43,140.47,79.94,140.47,79.94z"
				/>
			<path class="st93" d="M144.73,77c-0.44,0.48-14.25,12.11-21.38,16.77c-7.13,4.65-10.22,5.77-19.35,7.27
				c-8.73,1.44-13.53-3.06-16.44-5.24c-2.91-2.18-6.4-7.07-5.38-6.74c1.02,0.34,6.84,4.84,10.76,5.72c3.93,0.87,8.15,3.2,17.02-0.44
				C118.84,90.72,144.73,77,144.73,77z"/>
		</g>
		<g id="Black_8_">
			<path class="st22" d="M88.84,46.7c0,0,2.11-9.86-7.93-15.78c-5.32-3.14-12.65-2.84-24,5.02S40.5,51.86,40.5,59.72
				s2.89,12.44,7.47,14.84c4.58,2.4,10.91,0.22,11.35,0C59.75,74.34,88.84,46.7,88.84,46.7z"/>
			<path class="st22" d="M63.02,61.03c-1.09,0.44-10.59,12.24-13.26,26.19c-2.67,13.95-2.89,25.51-2.01,30.97
				c0.87,5.45,2.4,10.8,4.36,9.27c1.96-1.53,6.47-3.89,11.49-3.24c5.02,0.65,7.49-0.46,10.55,4.93s6.76,16.57,8.07,16.57
				c1.31,0,3.05-12.37,5.24-16.57c2.18-4.21,12.44-14.88,23.06-21.01c7.12-4.11,15.39-4.12,21.67-7.85
				c6.27-3.74,13.31-18.11,20.07-18.11s16.5,6.33,22.69,12.87s8.07,9.38,10.69,14.18c2.62,4.8,5.02,13.53,5.89,12.22
				s1.75-6.18,2.62-10.73c0.87-4.55,0-11.09,0-11.09s3.49,4.51,4.36,11.09c0.87,6.58,1.31,10.73,1.31,10.73s10.25-17.89,4.8-36
				s-19.26-30.11-32.21-36.65c-12.95-6.55-34.85-13.09-52.27-11.35c-17.41,1.75-29.41,6.33-35.3,8.95
				C78.95,49.03,63.02,61.03,63.02,61.03z"/>
			<path class="st94" d="M61.16,38.99c0,0,12.11,0,10.15,1.31c-1.96,1.31-13.31,8.29-10.47,8.07c2.84-0.22,17.13-7.96,18-9.49
				c0.87-1.53-14.22-2.28-17.35-1.7C51.45,39.03,61.16,38.99,61.16,38.99z"/>
			<path class="st102" d="M54.28,73.03c-0.33-0.11-0.57-4.58,2.67-9.93c3.24-5.35,7.82-10.04,14.15-13.53
				c6.33-3.49,18.6-5.69,17.92-5.68c-0.68,0.01-12.08,7.52-16.57,10.3c-4.53,2.81-8.04,5.68-11.79,9.42
				C56.91,67.35,54.28,73.03,54.28,73.03z"/>
			<path class="st99" d="M140.47,79.94c-1.16-0.15-8.73,3.35-18.18,4.07s-10.47,1.45-15.42,0c-4.95-1.45-11.93-6.55-12.36-5.96
				c-0.44,0.58-0.44,3.43,4.65,6.8c5.09,3.38,8.16,4.83,15.35,4.25s9.21-0.15,15.25-2.91C135.82,83.43,140.47,79.94,140.47,79.94z"
				/>
			<path class="st94" d="M144.73,77c-0.44,0.48-14.25,12.11-21.38,16.77c-7.13,4.65-10.22,5.77-19.35,7.27
				c-8.73,1.44-13.53-3.06-16.44-5.24c-2.91-2.18-6.4-7.07-5.38-6.74c1.02,0.34,6.84,4.84,10.76,5.72c3.93,0.87,8.15,3.2,17.02-0.44
				C118.84,90.72,144.73,77,144.73,77z"/>
		</g>
		<g id="Blue_9_" class="st1">
			<path class="st12" d="M88.84,46.7c0,0,2.11-9.86-7.93-15.78c-5.32-3.14-12.65-2.84-24,5.02S40.5,51.86,40.5,59.72
				s2.89,12.44,7.47,14.84c4.58,2.4,10.91,0.22,11.35,0C59.75,74.34,88.84,46.7,88.84,46.7z"/>
			<path class="st12" d="M63.02,61.03c-1.09,0.44-10.59,12.24-13.26,26.19c-2.67,13.95-2.89,25.51-2.01,30.97
				c0.87,5.45,2.4,10.8,4.36,9.27c1.96-1.53,6.47-3.89,11.49-3.24c5.02,0.65,7.49-0.46,10.55,4.93s6.76,16.57,8.07,16.57
				c1.31,0,3.05-12.37,5.24-16.57c2.18-4.21,12.44-14.88,23.06-21.01c7.12-4.11,15.39-4.12,21.67-7.85
				c6.27-3.74,13.31-18.11,20.07-18.11s16.5,6.33,22.69,12.87s8.07,9.38,10.69,14.18c2.62,4.8,5.02,13.53,5.89,12.22
				s1.75-6.18,2.62-10.73c0.87-4.55,0-11.09,0-11.09s3.49,4.51,4.36,11.09c0.87,6.58,1.31,10.73,1.31,10.73s10.25-17.89,4.8-36
				s-19.26-30.11-32.21-36.65c-12.95-6.55-34.85-13.09-52.27-11.35c-17.41,1.75-29.41,6.33-35.3,8.95
				C78.95,49.03,63.02,61.03,63.02,61.03z"/>
			<path class="st13" d="M61.16,38.99c0,0,12.11,0,10.15,1.31c-1.96,1.31-13.31,8.29-10.47,8.07c2.84-0.22,17.13-7.96,18-9.49
				c0.87-1.53-14.22-2.28-17.35-1.7C51.45,39.03,61.16,38.99,61.16,38.99z"/>
			<path class="st6" d="M54.28,73.03c-0.33-0.11-0.57-4.58,2.67-9.93c3.24-5.35,7.82-10.04,14.15-13.53
				c6.33-3.49,18.6-5.69,17.92-5.68c-0.68,0.01-12.08,7.52-16.57,10.3c-4.53,2.81-8.04,5.68-11.79,9.42
				C56.91,67.35,54.28,73.03,54.28,73.03z"/>
			<path class="st14" d="M140.47,79.94c-1.16-0.15-8.73,3.35-18.18,4.07s-10.47,1.45-15.42,0c-4.95-1.45-11.93-6.55-12.36-5.96
				c-0.44,0.58-0.44,3.43,4.65,6.8c5.09,3.38,8.16,4.83,15.35,4.25s9.21-0.15,15.25-2.91C135.82,83.43,140.47,79.94,140.47,79.94z"
				/>
			<path class="st13" d="M144.73,77c-0.44,0.48-14.25,12.11-21.38,16.77c-7.13,4.65-10.22,5.77-19.35,7.27
				c-8.73,1.44-13.53-3.06-16.44-5.24c-2.91-2.18-6.4-7.07-5.38-6.74c1.02,0.34,6.84,4.84,10.76,5.72c3.93,0.87,8.15,3.2,17.02-0.44
				C118.84,90.72,144.73,77,144.73,77z"/>
		</g>
	</g>
	<g id="Style_4_1_" class="st0">
		<g id="Redhair_8_">
			<path class="st17" d="M184.07,74.19c0,0,0-8.73-17.01-16.74c-17.31-8.16-36.77-11.9-62.59-10.31
				c-18.91,1.16-25.6,5.38-35.78,12.58S50.07,75.94,47.75,84.08c-2.33,8.15-1.45,15.71-4.07,21.24c-2.62,5.53-6.64,13.38-6.64,19.2
				s4.6,11.93,4.6,20.36c0,8.44-1.22,19.49-2.91,29.09c-1.69,9.6,0.29,13.67,2.62,19.2c2.33,5.53,5.71,10.17,6.11,21.82
				c0.58,16.87-5.82,27.93-6.11,34.62s4.07,11.04,9.89,11.04s13.96-1.15,18.62-4.64s8.44-5.24,10.47-10.47
				c2.04-5.24,2.33-9.31,6.4-11.35c4.07-2.04,16.58,2.91,22.4,0c5.82-2.91,5.24-5.24,4.65-11.64c-0.58-6.4-6.98-21.53-9.89-28.22
				c-2.91-6.69-5.53-15.42-4.07-21.24c1.45-5.82,5.82-11.05,5.82-22.98s-0.58-22.98,0.29-29.67c0.87-6.69,4.95-16.29,9.89-20.36
				c4.95-4.07,19.2-7.56,22.69-10.47c3.49-2.91,10.76-7.27,16-7.85c5.24-0.58,19.2,3.2,22.98,4.07S186,82.92,184.07,74.19z"/>
			<path class="st96" d="M64.55,95.06c-0.87,0.65-6.76,14.87-7.42,19.22c-0.65,4.34,0.87,11.37,2.18,21.06
				c1.31,9.69,3.71,17.54,3.27,23.87s-1.47,12.69-1.82,19.33c-0.36,6.64,4.44,10.56,5.31,18.42c0.87,7.85,0.44,16.8-1.53,24.65
				c-1.96,7.85-3.49,17.89-5.45,16.8c-1.96-1.09-1.53-6.76-0.87-10.91s2.62-12.44,1.75-19.64c-0.87-7.2-5.45-22.66-5.89-29.33
				s1.21-12.58,1.96-17.58c1.09-7.24-2.84-18.11-3.71-22.91c-0.87-4.8-0.44-15.93,0-22.04c0.44-6.11,2.4-10.91,5.02-15.49
				c2.47-4.33,6.55-10.25,7.2-9.16C65.2,92.45,64.55,95.06,64.55,95.06z"/>
			<path class="st95" d="M90.8,69.39c-0.66,0.42-9.16,4.07-12.65,9.6c-3.49,5.53-4.65,11.05-3.93,17.16
				c0.73,6.11,3.64,7.85,1.75,12.36c-1.89,4.51-4.65,4.36-6.11,10.04c-1.45,5.67-1.45,12.95-0.87,22.98s2.33,19.93,0.73,19.93
				s-2.49-12.8-3.21-19.93s-1.61-22.8,0-27.25c1.61-4.46,4.37-3.91,4.52-7.09s-2.18-13.22-2.04-18.31
				c0.15-5.09,2.62-9.02,4.95-11.93c2.33-2.91,10.04-7.27,12.22-8.15S94,67.35,90.8,69.39z"/>
		</g>
		<g id="Blonde_10_">
			<path class="st19" d="M184.07,74.19c0,0,0-8.73-17.01-16.74c-17.31-8.16-36.77-11.9-62.59-10.31
				c-18.91,1.16-25.6,5.38-35.78,12.58S50.07,75.94,47.75,84.08c-2.33,8.15-1.45,15.71-4.07,21.24c-2.62,5.53-6.64,13.38-6.64,19.2
				s4.6,11.93,4.6,20.36c0,8.44-1.22,19.49-2.91,29.09c-1.69,9.6,0.29,13.67,2.62,19.2c2.33,5.53,5.71,10.17,6.11,21.82
				c0.58,16.87-5.82,27.93-6.11,34.62s4.07,11.04,9.89,11.04s13.96-1.15,18.62-4.64s8.44-5.24,10.47-10.47
				c2.04-5.24,2.33-9.31,6.4-11.35c4.07-2.04,16.58,2.91,22.4,0c5.82-2.91,5.24-5.24,4.65-11.64c-0.58-6.4-6.98-21.53-9.89-28.22
				c-2.91-6.69-5.53-15.42-4.07-21.24c1.45-5.82,5.82-11.05,5.82-22.98s-0.58-22.98,0.29-29.67c0.87-6.69,4.95-16.29,9.89-20.36
				c4.95-4.07,19.2-7.56,22.69-10.47c3.49-2.91,10.76-7.27,16-7.85c5.24-0.58,19.2,3.2,22.98,4.07S186,82.92,184.07,74.19z"/>
			<path class="st92" d="M64.55,95.06c-0.87,0.65-6.76,14.87-7.42,19.22c-0.65,4.34,0.87,11.37,2.18,21.06
				c1.31,9.69,3.71,17.54,3.27,23.87s-1.47,12.69-1.82,19.33c-0.36,6.64,4.44,10.56,5.31,18.42c0.87,7.85,0.44,16.8-1.53,24.65
				c-1.96,7.85-3.49,17.89-5.45,16.8c-1.96-1.09-1.53-6.76-0.87-10.91s2.62-12.44,1.75-19.64c-0.87-7.2-5.45-22.66-5.89-29.33
				s1.21-12.58,1.96-17.58c1.09-7.24-2.84-18.11-3.71-22.91c-0.87-4.8-0.44-15.93,0-22.04c0.44-6.11,2.4-10.91,5.02-15.49
				c2.47-4.33,6.55-10.25,7.2-9.16C65.2,92.45,64.55,95.06,64.55,95.06z"/>
			<path class="st97" d="M90.8,69.39c-0.66,0.42-9.16,4.07-12.65,9.6c-3.49,5.53-4.65,11.05-3.93,17.16
				c0.73,6.11,3.64,7.85,1.75,12.36c-1.89,4.51-4.65,4.36-6.11,10.04c-1.45,5.67-1.45,12.95-0.87,22.98s2.33,19.93,0.73,19.93
				s-2.49-12.8-3.21-19.93s-1.61-22.8,0-27.25c1.61-4.46,4.37-3.91,4.52-7.09s-2.18-13.22-2.04-18.31
				c0.15-5.09,2.62-9.02,4.95-11.93c2.33-2.91,10.04-7.27,12.22-8.15S94,67.35,90.8,69.39z"/>
		</g>
		<g id="Brown_6_">
			<path class="st21" d="M184.07,74.19c0,0,0-8.73-17.01-16.74c-17.31-8.16-36.77-11.9-62.59-10.31
				c-18.91,1.16-25.6,5.38-35.78,12.58S50.07,75.94,47.75,84.08c-2.33,8.15-1.45,15.71-4.07,21.24c-2.62,5.53-6.64,13.38-6.64,19.2
				s4.6,11.93,4.6,20.36c0,8.44-1.22,19.49-2.91,29.09c-1.69,9.6,0.29,13.67,2.62,19.2c2.33,5.53,5.71,10.17,6.11,21.82
				c0.58,16.87-5.82,27.93-6.11,34.62s4.07,11.04,9.89,11.04s13.96-1.15,18.62-4.64s8.44-5.24,10.47-10.47
				c2.04-5.24,2.33-9.31,6.4-11.35c4.07-2.04,16.58,2.91,22.4,0c5.82-2.91,5.24-5.24,4.65-11.64c-0.58-6.4-6.98-21.53-9.89-28.22
				c-2.91-6.69-5.53-15.42-4.07-21.24c1.45-5.82,5.82-11.05,5.82-22.98s-0.58-22.98,0.29-29.67c0.87-6.69,4.95-16.29,9.89-20.36
				c4.95-4.07,19.2-7.56,22.69-10.47c3.49-2.91,10.76-7.27,16-7.85c5.24-0.58,19.2,3.2,22.98,4.07S186,82.92,184.07,74.19z"/>
			<path class="st93" d="M64.55,95.06c-0.87,0.65-6.76,14.87-7.42,19.22c-0.65,4.34,0.87,11.37,2.18,21.06
				c1.31,9.69,3.71,17.54,3.27,23.87s-1.47,12.69-1.82,19.33c-0.36,6.64,4.44,10.56,5.31,18.42c0.87,7.85,0.44,16.8-1.53,24.65
				c-1.96,7.85-3.49,17.89-5.45,16.8c-1.96-1.09-1.53-6.76-0.87-10.91s2.62-12.44,1.75-19.64c-0.87-7.2-5.45-22.66-5.89-29.33
				s1.21-12.58,1.96-17.58c1.09-7.24-2.84-18.11-3.71-22.91c-0.87-4.8-0.44-15.93,0-22.04c0.44-6.11,2.4-10.91,5.02-15.49
				c2.47-4.33,6.55-10.25,7.2-9.16C65.2,92.45,64.55,95.06,64.55,95.06z"/>
			<path class="st98" d="M90.8,69.39c-0.66,0.42-9.16,4.07-12.65,9.6c-3.49,5.53-4.65,11.05-3.93,17.16
				c0.73,6.11,3.64,7.85,1.75,12.36c-1.89,4.51-4.65,4.36-6.11,10.04c-1.45,5.67-1.45,12.95-0.87,22.98s2.33,19.93,0.73,19.93
				s-2.49-12.8-3.21-19.93s-1.61-22.8,0-27.25c1.61-4.46,4.37-3.91,4.52-7.09s-2.18-13.22-2.04-18.31
				c0.15-5.09,2.62-9.02,4.95-11.93c2.33-2.91,10.04-7.27,12.22-8.15S94,67.35,90.8,69.39z"/>
		</g>
		<g id="Black_6_">
			<path class="st22" d="M184.07,74.19c0,0,0-8.73-17.01-16.74c-17.31-8.16-36.77-11.9-62.59-10.31
				c-18.91,1.16-25.6,5.38-35.78,12.58S50.07,75.94,47.75,84.08c-2.33,8.15-1.45,15.71-4.07,21.24c-2.62,5.53-6.64,13.38-6.64,19.2
				s4.6,11.93,4.6,20.36c0,8.44-1.22,19.49-2.91,29.09c-1.69,9.6,0.29,13.67,2.62,19.2c2.33,5.53,5.71,10.17,6.11,21.82
				c0.58,16.87-5.82,27.93-6.11,34.62s4.07,11.04,9.89,11.04s13.96-1.15,18.62-4.64s8.44-5.24,10.47-10.47
				c2.04-5.24,2.33-9.31,6.4-11.35c4.07-2.04,16.58,2.91,22.4,0c5.82-2.91,5.24-5.24,4.65-11.64c-0.58-6.4-6.98-21.53-9.89-28.22
				c-2.91-6.69-5.53-15.42-4.07-21.24c1.45-5.82,5.82-11.05,5.82-22.98s-0.58-22.98,0.29-29.67c0.87-6.69,4.95-16.29,9.89-20.36
				c4.95-4.07,19.2-7.56,22.69-10.47c3.49-2.91,10.76-7.27,16-7.85c5.24-0.58,19.2,3.2,22.98,4.07S186,82.92,184.07,74.19z"/>
			<path class="st94" d="M64.55,95.06c-0.87,0.65-6.76,14.87-7.42,19.22c-0.65,4.34,0.87,11.37,2.18,21.06
				c1.31,9.69,3.71,17.54,3.27,23.87s-1.47,12.69-1.82,19.33c-0.36,6.64,4.44,10.56,5.31,18.42c0.87,7.85,0.44,16.8-1.53,24.65
				c-1.96,7.85-3.49,17.89-5.45,16.8c-1.96-1.09-1.53-6.76-0.87-10.91s2.62-12.44,1.75-19.64c-0.87-7.2-5.45-22.66-5.89-29.33
				s1.21-12.58,1.96-17.58c1.09-7.24-2.84-18.11-3.71-22.91c-0.87-4.8-0.44-15.93,0-22.04c0.44-6.11,2.4-10.91,5.02-15.49
				c2.47-4.33,6.55-10.25,7.2-9.16C65.2,92.45,64.55,95.06,64.55,95.06z"/>
			<path class="st99" d="M90.8,69.39c-0.66,0.42-9.16,4.07-12.65,9.6c-3.49,5.53-4.65,11.05-3.93,17.16
				c0.73,6.11,3.64,7.85,1.75,12.36c-1.89,4.51-4.65,4.36-6.11,10.04c-1.45,5.67-1.45,12.95-0.87,22.98s2.33,19.93,0.73,19.93
				s-2.49-12.8-3.21-19.93s-1.61-22.8,0-27.25c1.61-4.46,4.37-3.91,4.52-7.09s-2.18-13.22-2.04-18.31
				c0.15-5.09,2.62-9.02,4.95-11.93c2.33-2.91,10.04-7.27,12.22-8.15S94,67.35,90.8,69.39z"/>
		</g>
		<g id="Blue_6_" class="st1">
			<path class="st12" d="M184.07,74.19c0,0,0-8.73-17.01-16.74c-17.31-8.16-36.77-11.9-62.59-10.31
				c-18.91,1.16-25.6,5.38-35.78,12.58S50.07,75.94,47.75,84.08c-2.33,8.15-1.45,15.71-4.07,21.24c-2.62,5.53-6.64,13.38-6.64,19.2
				s4.6,11.93,4.6,20.36c0,8.44-1.22,19.49-2.91,29.09c-1.69,9.6,0.29,13.67,2.62,19.2c2.33,5.53,5.71,10.17,6.11,21.82
				c0.58,16.87-5.82,27.93-6.11,34.62s4.07,11.04,9.89,11.04s13.96-1.15,18.62-4.64s8.44-5.24,10.47-10.47
				c2.04-5.24,2.33-9.31,6.4-11.35c4.07-2.04,16.58,2.91,22.4,0c5.82-2.91,5.24-5.24,4.65-11.64c-0.58-6.4-6.98-21.53-9.89-28.22
				c-2.91-6.69-5.53-15.42-4.07-21.24c1.45-5.82,5.82-11.05,5.82-22.98s-0.58-22.98,0.29-29.67c0.87-6.69,4.95-16.29,9.89-20.36
				c4.95-4.07,19.2-7.56,22.69-10.47c3.49-2.91,10.76-7.27,16-7.85c5.24-0.58,19.2,3.2,22.98,4.07S186,82.92,184.07,74.19z"/>
			<path class="st13" d="M64.55,95.06c-0.87,0.65-6.76,14.87-7.42,19.22c-0.65,4.34,0.87,11.37,2.18,21.06
				c1.31,9.69,3.71,17.54,3.27,23.87s-1.47,12.69-1.82,19.33c-0.36,6.64,4.44,10.56,5.31,18.42c0.87,7.85,0.44,16.8-1.53,24.65
				c-1.96,7.85-3.49,17.89-5.45,16.8c-1.96-1.09-1.53-6.76-0.87-10.91s2.62-12.44,1.75-19.64c-0.87-7.2-5.45-22.66-5.89-29.33
				s1.21-12.58,1.96-17.58c1.09-7.24-2.84-18.11-3.71-22.91c-0.87-4.8-0.44-15.93,0-22.04c0.44-6.11,2.4-10.91,5.02-15.49
				c2.47-4.33,6.55-10.25,7.2-9.16C65.2,92.45,64.55,95.06,64.55,95.06z"/>
			<path class="st14" d="M90.8,69.39c-0.66,0.42-9.16,4.07-12.65,9.6c-3.49,5.53-4.65,11.05-3.93,17.16
				c0.73,6.11,3.64,7.85,1.75,12.36c-1.89,4.51-4.65,4.36-6.11,10.04c-1.45,5.67-1.45,12.95-0.87,22.98s2.33,19.93,0.73,19.93
				s-2.49-12.8-3.21-19.93s-1.61-22.8,0-27.25c1.61-4.46,4.37-3.91,4.52-7.09s-2.18-13.22-2.04-18.31
				c0.15-5.09,2.62-9.02,4.95-11.93c2.33-2.91,10.04-7.27,12.22-8.15S94,67.35,90.8,69.39z"/>
		</g>
	</g>
	<g id="Style_3" class="st0">
		<g id="Redhair_6_">
			<path class="st17" d="M109.04,135.34c-0.73,1.22-13.09,21.18-10.76,38.34c2.33,17.16,6.11,20.95,15.71,23.85s11.53,1.6,8.97,6.62
				c-2.57,5.02-15.08,7.06-27,8.22s-26.84,5.76-36.65,1.25c-12.6-5.79-23.21-40.52-26.47-55.35c-3.27-14.84-5.82-39.56,8.44-63.13
				s40.56-39.46,59.41-43.64s34.27-3.49,47.94,3.2c13.67,6.69,23.17,16.58,23.17,16.58s-16.19-0.58-27.53,6.69
				s-12.51,11.93-13.96,16.58c-1.45,4.65-0.12,10.07-6.75,19.73C116.89,123.94,112.56,129.45,109.04,135.34z"/>
			<path class="st96" d="M124.14,92.75c-0.43,0.26-9.47,17.93-14.6,23.69c-5.56,6.25-11.78,14.13-10.91,14.98s5.33-2.33,10.93-8.44
				C113.22,119,127.92,90.46,124.14,92.75z"/>
			<path class="st95" d="M80.46,82.63c-0.67,1.36-16.32,20.95-19.47,33.38c-3.15,12.44-4.9,23.05,1.65,43.27
				c4.68,14.44,2.02,6.61,6.69,16.88c2.76,6.07,8.36,13.6,5.31,13.82c-3.05,0.22-5.99-7.13-10.69-13.82
				c-8.07-11.49-12.44-30.65-12.22-40.82c0.22-10.17,0.44-25.22,6.33-33.51S86.41,70.63,80.46,82.63z"/>
			<path class="st96" d="M80.31,79.79c-0.75,0.63-17.71,16.81-24.87,35.78c-6.62,17.53,3.23,49.09,10.04,60.58
				c5.02,8.47,11.13,13.16,9.16,13.82c-1.96,0.65-7.85-8.07-8.95-6.55c-1.09,1.53,0.22,10.91-2.62,9.16s-15.05-21.82-19.2-33.6
				s-4.8-37.09,0-47.56S60.24,89.39,65.69,85.9C71.15,82.41,85.62,75.31,80.31,79.79z"/>
		</g>
		<g id="Blonde_3_">
			<path class="st19" d="M109.04,135.34c-0.73,1.22-13.09,21.18-10.76,38.34c2.33,17.16,6.11,20.95,15.71,23.85s11.53,1.6,8.97,6.62
				c-2.57,5.02-15.08,7.06-27,8.22s-26.84,5.76-36.65,1.25c-12.6-5.79-23.21-40.52-26.47-55.35c-3.27-14.84-5.82-39.56,8.44-63.13
				s40.56-39.46,59.41-43.64s34.27-3.49,47.94,3.2c13.67,6.69,23.17,16.58,23.17,16.58s-16.19-0.58-27.53,6.69
				s-12.51,11.93-13.96,16.58c-1.45,4.65-0.12,10.07-6.75,19.73C116.89,123.94,112.56,129.45,109.04,135.34z"/>
			<path class="st92" d="M124.14,92.75c-0.43,0.26-9.47,17.93-14.6,23.69c-5.56,6.25-11.78,14.13-10.91,14.98s5.33-2.33,10.93-8.44
				C113.22,119,127.92,90.46,124.14,92.75z"/>
			<path class="st97" d="M80.46,82.63c-0.67,1.36-16.32,20.95-19.47,33.38c-3.15,12.44-4.9,23.05,1.65,43.27
				c4.68,14.44,2.02,6.61,6.69,16.88c2.76,6.07,8.36,13.6,5.31,13.82c-3.05,0.22-5.99-7.13-10.69-13.82
				c-8.07-11.49-12.44-30.65-12.22-40.82c0.22-10.17,0.44-25.22,6.33-33.51S86.41,70.63,80.46,82.63z"/>
			<path class="st92" d="M80.31,79.79c-0.75,0.63-17.71,16.81-24.87,35.78c-6.62,17.53,3.23,49.09,10.04,60.58
				c5.02,8.47,11.13,13.16,9.16,13.82c-1.96,0.65-7.85-8.07-8.95-6.55c-1.09,1.53,0.22,10.91-2.62,9.16s-15.05-21.82-19.2-33.6
				s-4.8-37.09,0-47.56S60.24,89.39,65.69,85.9C71.15,82.41,85.62,75.31,80.31,79.79z"/>
		</g>
		<g id="Brown_3_">
			<path class="st21" d="M109.04,135.34c-0.73,1.22-13.09,21.18-10.76,38.34c2.33,17.16,6.11,20.95,15.71,23.85s11.53,1.6,8.97,6.62
				c-2.57,5.02-15.08,7.06-27,8.22s-26.84,5.76-36.65,1.25c-12.6-5.79-23.21-40.52-26.47-55.35c-3.27-14.84-5.82-39.56,8.44-63.13
				s40.56-39.46,59.41-43.64s34.27-3.49,47.94,3.2c13.67,6.69,23.17,16.58,23.17,16.58s-16.19-0.58-27.53,6.69
				s-12.51,11.93-13.96,16.58c-1.45,4.65-0.12,10.07-6.75,19.73C116.89,123.94,112.56,129.45,109.04,135.34z"/>
			<path class="st93" d="M124.14,92.75c-0.43,0.26-9.47,17.93-14.6,23.69c-5.56,6.25-11.78,14.13-10.91,14.98s5.33-2.33,10.93-8.44
				C113.22,119,127.92,90.46,124.14,92.75z"/>
			<path class="st98" d="M80.46,82.63c-0.67,1.36-16.32,20.95-19.47,33.38c-3.15,12.44-4.9,23.05,1.65,43.27
				c4.68,14.44,2.02,6.61,6.69,16.88c2.76,6.07,8.36,13.6,5.31,13.82c-3.05,0.22-5.99-7.13-10.69-13.82
				c-8.07-11.49-12.44-30.65-12.22-40.82c0.22-10.17,0.44-25.22,6.33-33.51S86.41,70.63,80.46,82.63z"/>
			<path class="st93" d="M80.31,79.79c-0.75,0.63-17.71,16.81-24.87,35.78c-6.62,17.53,3.23,49.09,10.04,60.58
				c5.02,8.47,11.13,13.16,9.16,13.82c-1.96,0.65-7.85-8.07-8.95-6.55c-1.09,1.53,0.22,10.91-2.62,9.16s-15.05-21.82-19.2-33.6
				s-4.8-37.09,0-47.56S60.24,89.39,65.69,85.9C71.15,82.41,85.62,75.31,80.31,79.79z"/>
		</g>
		<g id="Black_3_">
			<path class="st22" d="M109.04,135.34c-0.73,1.22-13.09,21.18-10.76,38.34c2.33,17.16,6.11,20.95,15.71,23.85s11.53,1.6,8.97,6.62
				c-2.57,5.02-15.08,7.06-27,8.22s-26.84,5.76-36.65,1.25c-12.6-5.79-23.21-40.52-26.47-55.35c-3.27-14.84-5.82-39.56,8.44-63.13
				s40.56-39.46,59.41-43.64s34.27-3.49,47.94,3.2c13.67,6.69,23.17,16.58,23.17,16.58s-16.19-0.58-27.53,6.69
				s-12.51,11.93-13.96,16.58c-1.45,4.65-0.12,10.07-6.75,19.73C116.89,123.94,112.56,129.45,109.04,135.34z"/>
			<path class="st94" d="M124.14,92.75c-0.43,0.26-9.47,17.93-14.6,23.69c-5.56,6.25-11.78,14.13-10.91,14.98s5.33-2.33,10.93-8.44
				C113.22,119,127.92,90.46,124.14,92.75z"/>
			<path class="st99" d="M80.46,82.63c-0.67,1.36-16.32,20.95-19.47,33.38c-3.15,12.44-4.9,23.05,1.65,43.27
				c4.68,14.44,2.02,6.61,6.69,16.88c2.76,6.07,8.36,13.6,5.31,13.82c-3.05,0.22-5.99-7.13-10.69-13.82
				c-8.07-11.49-12.44-30.65-12.22-40.82c0.22-10.17,0.44-25.22,6.33-33.51S86.41,70.63,80.46,82.63z"/>
			<path class="st94" d="M80.31,79.79c-0.75,0.63-17.71,16.81-24.87,35.78c-6.62,17.53,3.23,49.09,10.04,60.58
				c5.02,8.47,11.13,13.16,9.16,13.82c-1.96,0.65-7.85-8.07-8.95-6.55c-1.09,1.53,0.22,10.91-2.62,9.16s-15.05-21.82-19.2-33.6
				s-4.8-37.09,0-47.56S60.24,89.39,65.69,85.9C71.15,82.41,85.62,75.31,80.31,79.79z"/>
		</g>
		<g id="Blue_5_" class="st1">
			<path class="st12" d="M109.04,135.34c-0.73,1.22-13.09,21.18-10.76,38.34c2.33,17.16,6.11,20.95,15.71,23.85s11.53,1.6,8.97,6.62
				c-2.57,5.02-15.08,7.06-27,8.22s-26.84,5.76-36.65,1.25c-12.6-5.79-23.21-40.52-26.47-55.35c-3.27-14.84-5.82-39.56,8.44-63.13
				s40.56-39.46,59.41-43.64s34.27-3.49,47.94,3.2c13.67,6.69,23.17,16.58,23.17,16.58s-16.19-0.58-27.53,6.69
				s-12.51,11.93-13.96,16.58c-1.45,4.65-0.12,10.07-6.75,19.73C116.89,123.94,112.56,129.45,109.04,135.34z"/>
			<path class="st13" d="M124.14,92.75c-0.43,0.26-9.47,17.93-14.6,23.69c-5.56,6.25-11.78,14.13-10.91,14.98s5.33-2.33,10.93-8.44
				C113.22,119,127.92,90.46,124.14,92.75z"/>
			<path class="st14" d="M80.46,82.63c-0.67,1.36-16.32,20.95-19.47,33.38c-3.15,12.44-4.9,23.05,1.65,43.27
				c4.68,14.44,2.02,6.61,6.69,16.88c2.76,6.07,8.36,13.6,5.31,13.82c-3.05,0.22-5.99-7.13-10.69-13.82
				c-8.07-11.49-12.44-30.65-12.22-40.82c0.22-10.17,0.44-25.22,6.33-33.51S86.41,70.63,80.46,82.63z"/>
			<path class="st13" d="M80.31,79.79c-0.75,0.63-17.71,16.81-24.87,35.78c-6.62,17.53,3.23,49.09,10.04,60.58
				c5.02,8.47,11.13,13.16,9.16,13.82c-1.96,0.65-7.85-8.07-8.95-6.55c-1.09,1.53,0.22,10.91-2.62,9.16s-15.05-21.82-19.2-33.6
				s-4.8-37.09,0-47.56S60.24,89.39,65.69,85.9C71.15,82.41,85.62,75.31,80.31,79.79z"/>
		</g>
	</g>
	<g id="Style_2" class="st0">
		<g id="Redhair_2_">
			<path class="st17" d="M176.33,82.34c0.52,0.76-13.03,14.2-27.9,17.57s-30.87,0.94-41.05,14.38s-10.76,34.06-6.98,49.79
				c3.78,15.72,19.78,81.76,17.16,86.99s-6.4,8.15-15.71,12.51S71.6,274.88,65.2,273.3c-6.4-1.58-5.82-5.19-9.6-18.37
				s-8.29-84.96-8.29-103.47s4.21-44.3,16.15-63.6c11.87-19.2,29.67-30.3,50.91-32.16S157.13,54.41,176.33,82.34z"/>
			<path class="st96" d="M137.31,62.55c0.75,0.44,12.05,4.65,18.99,10.47c6.94,5.82,9.85,7.56,8.68,5.53
				c-1.16-2.04-5.95-9.25-13.82-12.29C138.98,61.56,135.55,61.53,137.31,62.55z"/>
			<path class="st95" d="M87.55,205.95c-0.5-13.98,2.09-95.86-0.53-95.21c-2.62,0.65-2.97,69.71-2.64,81.23
				c0.33,11.52-0.79,38.13,2.6,32.89C88.21,222.94,87.84,213.12,87.55,205.95z"/>
			<path class="st96" d="M123.67,85.83c-1.45,0.97-29.96,12.58-34.91,24.91c-4.95,12.33-4.65,60.62-4.36,88.54s5.24,44.8,2.91,43.64
				s-6.11-6.69-8.44-34.91s-5.24-96.58-2.33-103.85c2.91-7.27,5.53-9.02,11.64-11.93C94.29,89.32,131.53,80.59,123.67,85.83z"/>
		</g>
		<g id="Blonde_2_">
			<path class="st19" d="M176.33,82.34c0.52,0.76-13.03,14.2-27.9,17.57s-30.87,0.94-41.05,14.38s-10.76,34.06-6.98,49.79
				c3.78,15.72,19.78,81.76,17.16,86.99s-6.4,8.15-15.71,12.51S71.6,274.88,65.2,273.3c-6.4-1.58-5.82-5.19-9.6-18.37
				s-8.29-84.96-8.29-103.47s4.21-44.3,16.15-63.6c11.87-19.2,29.67-30.3,50.91-32.16S157.13,54.41,176.33,82.34z"/>
			<path class="st92" d="M137.31,62.55c0.75,0.44,12.05,4.65,18.99,10.47c6.94,5.82,9.85,7.56,8.68,5.53
				c-1.16-2.04-5.95-9.25-13.82-12.29C138.98,61.56,135.55,61.53,137.31,62.55z"/>
			<path class="st97" d="M87.55,205.95c-0.5-13.98,2.09-95.86-0.53-95.21c-2.62,0.65-2.97,69.71-2.64,81.23
				c0.33,11.52-0.79,38.13,2.6,32.89C88.21,222.94,87.84,213.12,87.55,205.95z"/>
			<path class="st92" d="M123.67,85.83c-1.45,0.97-29.96,12.58-34.91,24.91c-4.95,12.33-4.65,60.62-4.36,88.54s5.24,44.8,2.91,43.64
				s-6.11-6.69-8.44-34.91s-5.24-96.58-2.33-103.85c2.91-7.27,5.53-9.02,11.64-11.93C94.29,89.32,131.53,80.59,123.67,85.83z"/>
		</g>
		<g id="Brown_2_">
			<path class="st21" d="M176.33,82.34c0.52,0.76-13.03,14.2-27.9,17.57s-30.87,0.94-41.05,14.38s-10.76,34.06-6.98,49.79
				c3.78,15.72,19.78,81.76,17.16,86.99s-6.4,8.15-15.71,12.51S71.6,274.88,65.2,273.3c-6.4-1.58-5.82-5.19-9.6-18.37
				s-8.29-84.96-8.29-103.47s4.21-44.3,16.15-63.6c11.87-19.2,29.67-30.3,50.91-32.16S157.13,54.41,176.33,82.34z"/>
			<path class="st93" d="M137.31,62.55c0.75,0.44,12.05,4.65,18.99,10.47c6.94,5.82,9.85,7.56,8.68,5.53
				c-1.16-2.04-5.95-9.25-13.82-12.29C138.98,61.56,135.55,61.53,137.31,62.55z"/>
			<path class="st98" d="M87.55,205.95c-0.5-13.98,2.09-95.86-0.53-95.21c-2.62,0.65-2.97,69.71-2.64,81.23
				c0.33,11.52-0.79,38.13,2.6,32.89C88.21,222.94,87.84,213.12,87.55,205.95z"/>
			<path class="st93" d="M123.67,85.83c-1.45,0.97-29.96,12.58-34.91,24.91c-4.95,12.33-4.65,60.62-4.36,88.54s5.24,44.8,2.91,43.64
				s-6.11-6.69-8.44-34.91s-5.24-96.58-2.33-103.85c2.91-7.27,5.53-9.02,11.64-11.93C94.29,89.32,131.53,80.59,123.67,85.83z"/>
		</g>
		<g id="Black_2_">
			<path class="st22" d="M176.33,82.34c0.52,0.76-13.03,14.2-27.9,17.57s-30.87,0.94-41.05,14.38s-10.76,34.06-6.98,49.79
				c3.78,15.72,19.78,81.76,17.16,86.99s-6.4,8.15-15.71,12.51S71.6,274.88,65.2,273.3c-6.4-1.58-5.82-5.19-9.6-18.37
				s-8.29-84.96-8.29-103.47s4.21-44.3,16.15-63.6c11.87-19.2,29.67-30.3,50.91-32.16S157.13,54.41,176.33,82.34z"/>
			<path class="st94" d="M137.31,62.55c0.75,0.44,12.05,4.65,18.99,10.47c6.94,5.82,9.85,7.56,8.68,5.53
				c-1.16-2.04-5.95-9.25-13.82-12.29C138.98,61.56,135.55,61.53,137.31,62.55z"/>
			<path class="st99" d="M87.55,205.95c-0.5-13.98,2.09-95.86-0.53-95.21c-2.62,0.65-2.97,69.71-2.64,81.23
				c0.33,11.52-0.79,38.13,2.6,32.89C88.21,222.94,87.84,213.12,87.55,205.95z"/>
			<path class="st94" d="M123.67,85.83c-1.45,0.97-29.96,12.58-34.91,24.91c-4.95,12.33-4.65,60.62-4.36,88.54s5.24,44.8,2.91,43.64
				s-6.11-6.69-8.44-34.91s-5.24-96.58-2.33-103.85c2.91-7.27,5.53-9.02,11.64-11.93C94.29,89.32,131.53,80.59,123.67,85.83z"/>
		</g>
		<g id="Blue_2_">
			<path class="st103" d="M176.33,82.34c0.52,0.76-13.03,14.2-27.9,17.57s-30.87,0.94-41.05,14.38s-10.76,34.06-6.98,49.79
				c3.78,15.72,19.78,81.76,17.16,86.99s-6.4,8.15-15.71,12.51S71.6,274.88,65.2,273.3c-6.4-1.58-5.82-5.19-9.6-18.37
				s-8.29-84.96-8.29-103.47s4.21-44.3,16.15-63.6c11.87-19.2,29.67-30.3,50.91-32.16S157.13,54.41,176.33,82.34z"/>
			<path class="st104" d="M137.31,62.55c0.75,0.44,12.05,4.65,18.99,10.47c6.94,5.82,9.85,7.56,8.68,5.53
				c-1.16-2.04-5.95-9.25-13.82-12.29C138.98,61.56,135.55,61.53,137.31,62.55z"/>
			<path class="st105" d="M87.55,205.95c-0.5-13.98,2.09-95.86-0.53-95.21c-2.62,0.65-2.97,69.71-2.64,81.23
				c0.33,11.52-0.79,38.13,2.6,32.89C88.21,222.94,87.84,213.12,87.55,205.95z"/>
			<path class="st104" d="M123.67,85.83c-1.45,0.97-29.96,12.58-34.91,24.91c-4.95,12.33-4.65,60.62-4.36,88.54
				s5.24,44.8,2.91,43.64s-6.11-6.69-8.44-34.91s-5.24-96.58-2.33-103.85c2.91-7.27,5.53-9.02,11.64-11.93
				C94.29,89.32,131.53,80.59,123.67,85.83z"/>
		</g>
	</g>
	<g id="Style_1" class="st0">
		<g id="Redhair_1_">
			<path class="st17" d="M190.51,113.93c0,0-2.26-27.24-11.1-37.95c-10.08-12.22-17.48-17.59-31.01-21.74
				c-13.53-4.15-31.73-6.09-54.98-1.84c-19.64,3.59-39.92,21.26-45.82,42.11c-6.98,24.65-5.67,27.35-7.42,38.62
				c-2.05,13.17-0.87,68.29-0.87,68.29l57.82,1.87c0,0-3.32-17.39-8.07-44.42c-4.8-27.27,3.71-51.71,3.71-51.71
				s23.13-16.15,31.85-24.44s17.45-20.03,17.45-20.03s16.15,22.43,28.58,33.77c12.44,11.35,19.85,18.55,19.85,18.55"/>
			<path class="st96" d="M104.33,60.91l18.98-1.53c0,0-5.89,16.36-17.02,25.96S85.57,100.4,87.31,100.4c1.75,0,4.15,0.22,12.65-4.36
				s20.95-18.33,26.4-26.4c5.45-8.07,7.42-11.56,5.45-12.65c-1.96-1.09-11.24-1.53-17.08,0c-5.83,1.53-15.61,4.17-11.51,3.93"/>
			<path class="st96" d="M156.04,64.18c0,0,9.38,9.16,12.22,12.65c2.84,3.49,7.2,11.35,7.85,11.56c0.65,0.22,1.75-3.39-2.18-10.2
				S156.04,64.18,156.04,64.18z"/>
			<path class="st95" d="M68.7,191.53h11.49c0,0-9.75-17.45-9.75-39.13s1.16-48,3.35-59.93c2.18-11.93,2.04-16.5,0-16.5
				c-2.71,0-13.67,27.99-15.71,49.66C56.04,147.31,68.7,191.53,68.7,191.53z"/>
			<path class="st96" d="M73.79,77.27c0,0-8.29,46.25-8.73,62.4s2.84,37.75,4.36,46.25s1.53,10.27,1.53,10.27l-18.98-2
				c0,0-3.05-26.38-2.4-44.93c0.65-18.55,3.27-37.09,9.16-51.49S73.13,72.04,73.79,77.27z"/>
		</g>
		<g id="Blonde">
			<path class="st19" d="M190.51,113.93c0,0-2.26-27.24-11.1-37.95c-10.08-12.22-17.48-17.59-31.01-21.74
				c-13.53-4.15-31.73-6.09-54.98-1.84c-19.64,3.59-39.92,21.26-45.82,42.11c-6.98,24.65-5.67,27.35-7.42,38.62
				c-2.05,13.17-0.87,68.29-0.87,68.29l57.82,1.87c0,0-3.32-17.39-8.07-44.42c-4.8-27.27,3.71-51.71,3.71-51.71
				s23.13-16.15,31.85-24.44s17.45-20.03,17.45-20.03s16.15,22.43,28.58,33.77c12.44,11.35,19.85,18.55,19.85,18.55"/>
			<path class="st92" d="M104.33,60.91l18.98-1.53c0,0-5.89,16.36-17.02,25.96S85.57,100.4,87.31,100.4c1.75,0,4.15,0.22,12.65-4.36
				s20.95-18.33,26.4-26.4c5.45-8.07,7.42-11.56,5.45-12.65c-1.96-1.09-11.24-1.53-17.08,0c-5.83,1.53-15.61,4.17-11.51,3.93"/>
			<path class="st92" d="M156.04,64.18c0,0,9.38,9.16,12.22,12.65c2.84,3.49,7.2,11.35,7.85,11.56c0.65,0.22,1.75-3.39-2.18-10.2
				S156.04,64.18,156.04,64.18z"/>
			<path class="st97" d="M68.7,191.53h11.49c0,0-9.75-17.45-9.75-39.13s1.16-48,3.35-59.93c2.18-11.93,2.04-16.5,0-16.5
				c-2.71,0-13.67,27.99-15.71,49.66C56.04,147.31,68.7,191.53,68.7,191.53z"/>
			<path class="st92" d="M73.79,77.27c0,0-8.29,46.25-8.73,62.4s2.84,37.75,4.36,46.25s1.53,10.27,1.53,10.27l-18.98-2
				c0,0-3.05-26.38-2.4-44.93c0.65-18.55,3.27-37.09,9.16-51.49S73.13,72.04,73.79,77.27z"/>
		</g>
		<g id="Brown">
			<path class="st21" d="M190.51,113.93c0,0-2.26-27.24-11.1-37.95c-10.08-12.22-17.48-17.59-31.01-21.74
				c-13.53-4.15-31.73-6.09-54.98-1.84c-19.64,3.59-39.92,21.26-45.82,42.11c-6.98,24.65-5.67,27.35-7.42,38.62
				c-2.05,13.17-0.87,68.29-0.87,68.29l57.82,1.87c0,0-3.32-17.39-8.07-44.42c-4.8-27.27,3.71-51.71,3.71-51.71
				s23.13-16.15,31.85-24.44s17.45-20.03,17.45-20.03s16.15,22.43,28.58,33.77c12.44,11.35,19.85,18.55,19.85,18.55"/>
			<path class="st93" d="M104.33,60.91l18.98-1.53c0,0-5.89,16.36-17.02,25.96S85.57,100.4,87.31,100.4c1.75,0,4.15,0.22,12.65-4.36
				s20.95-18.33,26.4-26.4c5.45-8.07,7.42-11.56,5.45-12.65c-1.96-1.09-11.24-1.53-17.08,0c-5.83,1.53-15.61,4.17-11.51,3.93"/>
			<path class="st93" d="M156.04,64.18c0,0,9.38,9.16,12.22,12.65c2.84,3.49,7.2,11.35,7.85,11.56c0.65,0.22,1.75-3.39-2.18-10.2
				S156.04,64.18,156.04,64.18z"/>
			<path class="st98" d="M68.7,191.53h11.49c0,0-9.75-17.45-9.75-39.13s1.16-48,3.35-59.93c2.18-11.93,2.04-16.5,0-16.5
				c-2.71,0-13.67,27.99-15.71,49.66C56.04,147.31,68.7,191.53,68.7,191.53z"/>
			<path class="st93" d="M73.79,77.27c0,0-8.29,46.25-8.73,62.4s2.84,37.75,4.36,46.25s1.53,10.27,1.53,10.27l-18.98-2
				c0,0-3.05-26.38-2.4-44.93c0.65-18.55,3.27-37.09,9.16-51.49S73.13,72.04,73.79,77.27z"/>
		</g>
		<g id="Black">
			<path class="st22" d="M190.51,113.93c0,0-2.26-27.24-11.1-37.95c-10.08-12.22-17.48-17.59-31.01-21.74
				c-13.53-4.15-31.73-6.09-54.98-1.84c-19.64,3.59-39.92,21.26-45.82,42.11c-6.98,24.65-5.67,27.35-7.42,38.62
				c-2.05,13.17-0.87,68.29-0.87,68.29l57.82,1.87c0,0-3.32-17.39-8.07-44.42c-4.8-27.27,3.71-51.71,3.71-51.71
				s23.13-16.15,31.85-24.44s17.45-20.03,17.45-20.03s16.15,22.43,28.58,33.77c12.44,11.35,19.85,18.55,19.85,18.55"/>
			<path class="st94" d="M104.33,60.91l18.98-1.53c0,0-5.89,16.36-17.02,25.96S85.57,100.4,87.31,100.4c1.75,0,4.15,0.22,12.65-4.36
				s20.95-18.33,26.4-26.4c5.45-8.07,7.42-11.56,5.45-12.65c-1.96-1.09-11.24-1.53-17.08,0c-5.83,1.53-15.61,4.17-11.51,3.93"/>
			<path class="st94" d="M156.04,64.18c0,0,9.38,9.16,12.22,12.65c2.84,3.49,7.2,11.35,7.85,11.56c0.65,0.22,1.75-3.39-2.18-10.2
				S156.04,64.18,156.04,64.18z"/>
			<path class="st99" d="M68.7,191.53h11.49c0,0-9.75-17.45-9.75-39.13s1.16-48,3.35-59.93c2.18-11.93,2.04-16.5,0-16.5
				c-2.71,0-13.67,27.99-15.71,49.66C56.04,147.31,68.7,191.53,68.7,191.53z"/>
			<path class="st94" d="M73.79,77.27c0,0-8.29,46.25-8.73,62.4s2.84,37.75,4.36,46.25s1.53,10.27,1.53,10.27l-18.98-2
				c0,0-3.05-26.38-2.4-44.93c0.65-18.55,3.27-37.09,9.16-51.49S73.13,72.04,73.79,77.27z"/>
		</g>
		<g id="Blue" class="st1">
			<path class="st12" d="M190.51,113.93c0,0-2.26-27.24-11.1-37.95c-10.08-12.22-17.48-17.59-31.01-21.74
				c-13.53-4.15-31.73-6.09-54.98-1.84c-19.64,3.59-39.92,21.26-45.82,42.11c-6.98,24.65-5.67,27.35-7.42,38.62
				c-2.05,13.17-0.87,68.29-0.87,68.29l57.82,1.87c0,0-3.32-17.39-8.07-44.42c-4.8-27.27,3.71-51.71,3.71-51.71
				s23.13-16.15,31.85-24.44s17.45-20.03,17.45-20.03s16.15,22.43,28.58,33.77c12.44,11.35,19.85,18.55,19.85,18.55"/>
			<path class="st13" d="M104.33,60.91l18.98-1.53c0,0-5.89,16.36-17.02,25.96S85.57,100.4,87.31,100.4c1.75,0,4.15,0.22,12.65-4.36
				s20.95-18.33,26.4-26.4c5.45-8.07,7.42-11.56,5.45-12.65c-1.96-1.09-11.24-1.53-17.08,0c-5.83,1.53-15.61,4.17-11.51,3.93"/>
			<path class="st13" d="M156.04,64.18c0,0,9.38,9.16,12.22,12.65c2.84,3.49,7.2,11.35,7.85,11.56c0.65,0.22,1.75-3.39-2.18-10.2
				S156.04,64.18,156.04,64.18z"/>
			<path class="st14" d="M68.7,191.53h11.49c0,0-9.75-17.45-9.75-39.13s1.16-48,3.35-59.93c2.18-11.93,2.04-16.5,0-16.5
				c-2.71,0-13.67,27.99-15.71,49.66C56.04,147.31,68.7,191.53,68.7,191.53z"/>
			<path class="st13" d="M73.79,77.27c0,0-8.29,46.25-8.73,62.4s2.84,37.75,4.36,46.25s1.53,10.27,1.53,10.27l-18.98-2
				c0,0-3.05-26.38-2.4-44.93c0.65-18.55,3.27-37.09,9.16-51.49S73.13,72.04,73.79,77.27z"/>
		</g>
	</g>
</g>
</svg>
