<svg xmlns="http://www.w3.org/2000/svg" viewBox="0 0 199.95 257.03"><defs><style>.cls-1{opacity:0;}.cls-2{fill:#9b614e;stroke:#6f4636;}.cls-2,.cls-7{stroke-miterlimit:10;}.cls-10,.cls-2,.cls-9{stroke-width:3px;}.cls-3{fill:#6f4636;}.cls-3,.cls-8,.cls-9{opacity:0.5;}.cls-4{fill:#f29220;}.cls-5{fill:#ffdc74;}.cls-6{fill:#f6b41a;}.cls-10,.cls-7,.cls-8,.cls-9{fill:none;}.cls-7{stroke:#f29220;stroke-width:4px;}.cls-10,.cls-8,.cls-9{stroke:#3f291b;stroke-linecap:round;stroke-linejoin:round;}.cls-8{stroke-width:2px;}.cls-11{fill:#003f53;}.cls-12{fill:#07698d;}.cls-13{fill:#038ab8;}.cls-14{fill:#3f291b;}.cls-15{fill:#f16022;}.cls-16{fill:#bc4026;}.cls-17{fill:#231f20;opacity:0.25;}</style></defs><title>testShadow</title><g id="hairBehind"><g id="Style_8" data-name="Style 8"><g id="Redhair"><g class="cls-1"><rect class="cls-2" x="80.33" y="140.27" width="35.29" height="31.42" rx="4"/><path class="cls-3" d="M108.15,210.87l32-4.47s1.53-15.41,0-15.63-33.36.1-33.36.1v20" transform="translate(-25.49 -50.01)"/><path class="cls-2" d="M126,56.7c-33.48,0-61,29.1-64.25,66.35-6.79,1.54-11.94,8.94-11.94,17.87,0,10,6.51,18.18,14.54,18.18a11.81,11.81,0,0,0,2.07-.2c9.76,26.58,32.75,45.25,59.58,45.25,35.66,0,64.57-33,64.57-73.72S161.61,56.7,126,56.7Z" transform="translate(-25.49 -50.01)"/><rect class="cls-4" x="69.74" y="164.38" width="55" height="24.3" rx="4"/><path class="cls-4" d="M205.22,272.47c0,28.08-35.85,18.42-80.07,18.42s-80.07,9.66-80.07-18.42,35.85-44.83,80.07-44.83S205.22,244.4,205.22,272.47Z" transform="translate(-25.49 -50.01)"/><path class="cls-5" d="M159.67,229.79s40.32,17.7,42.06,32.54c1.57,13.31,5,18.23-9,24.14s-23.56,4.5-23.56,4.5l-23.56-49.88Z" transform="translate(-25.49 -50.01)"/><path class="cls-6" d="M103.53,231.93s-16.61,20.94-8.3,32.73,37,26.31,37,26.31h45s10.91-3.62,7-25.44-15.61-30.63-29.62-35.17S103.53,231.93,103.53,231.93Z" transform="translate(-25.49 -50.01)"/><path class="cls-7" d="M205.22,272.47c0,28.08-35.85,18.42-80.07,18.42s-80.07,9.66-80.07-18.42,35.85-44.83,80.07-44.83S205.22,244.4,205.22,272.47Z" transform="translate(-25.49 -50.01)"/><path class="cls-8" d="M130.3,107.87a18.63,18.63,0,0,0-19.78,6.41" transform="translate(-25.49 -50.01)"/><path class="cls-8" d="M162.52,107.87a18.65,18.65,0,0,1,19.78,6.41" transform="translate(-25.49 -50.01)"/><path class="cls-9" d="M162.6,155.27c-4-5.72-9.9-4.39-12.6,0" transform="translate(-25.49 -50.01)"/><path class="cls-10" d="M137,176.16a16.21,16.21,0,0,0,22.94,0" transform="translate(-25.49 -50.01)"/><path class="cls-11" d="M190.51,113.93s-2.26-27.25-11.1-38c-10.08-12.21-17.48-17.59-31-21.73s-31.73-6.09-55-1.84C73.79,56,53.51,73.66,47.61,94.51c-7,24.65-5.67,27.35-7.42,38.62-2,13.17-.88,68.29-.88,68.29l57.82,1.87s-3.31-17.39-8.07-44.42c-4.8-27.27,3.71-51.71,3.71-51.71S115.9,91,124.62,82.73s17.46-20,17.46-20,16.14,22.43,28.58,33.77S190.51,115,190.51,115" transform="translate(-25.49 -50.01)"/><path class="cls-12" d="M104.33,60.91l19-1.53s-5.89,16.37-17,26-20.73,15.05-19,15.05,4.15.22,12.66-4.36,20.94-18.33,26.4-26.4,7.42-11.57,5.45-12.66-11.24-1.52-17.07,0-15.62,4.17-11.51,3.93" transform="translate(-25.49 -50.01)"/><path class="cls-12" d="M156,64.18s9.38,9.17,12.22,12.66,7.2,11.34,7.85,11.56,1.75-3.39-2.18-10.2S156,64.18,156,64.18Z" transform="translate(-25.49 -50.01)"/><path class="cls-13" d="M68.7,191.53H80.19s-9.75-17.46-9.75-39.13,1.17-48,3.35-59.93,2-16.5,0-16.5c-2.72,0-13.68,28-15.71,49.67S68.7,191.53,68.7,191.53Z" transform="translate(-25.49 -50.01)"/><path class="cls-12" d="M73.79,77.27s-8.29,46.26-8.73,62.4,2.84,37.75,4.36,46.26S71,196.2,71,196.2l-19-2s-3.06-26.38-2.4-44.93,3.27-37.09,9.16-51.49S73.13,72,73.79,77.27Z" transform="translate(-25.49 -50.01)"/><ellipse class="cls-14" cx="100.28" cy="79.15" rx="5.38" ry="6.18"/><ellipse class="cls-14" cx="148.28" cy="79.15" rx="5.38" ry="6.18"/><path class="cls-15" d="M125.77,178.54c-3.27-4.59-35.48-13.22-35.48-13.22L63,155.27S67,174.7,63,186.92s-11.15,29.67-9.39,28.58,16.59-10,17.24-8.07-1.31,19.46,0,16.49,9.82-11.69,12.88-13.44S108.18,209,108.18,209s9.42-8.29,16.82-9.38" transform="translate(-25.49 -50.01)"/><path class="cls-16" d="M125,199.57c7.4-1.09,18.09,6.33,19.84,7.64s3.56,3.27,5.16,2.18,2.47-3,3.35-3,5.23,2.18,7.63,2.83,7.78,2.4,8.73,1.75-2.84-6.77-2.84-9.6,4.79-12.44,1.52-17-43.57-11.92-43.57-11.92" transform="translate(-25.49 -50.01)"/></g></g></g></g><g id="hairFront"><ellipse class="cls-17" cx="99.97" cy="241.08" rx="99.97" ry="15.95"/></g></svg>